<svg xmlns="http://www.w3.org/2000/svg" width="29.129rem" height="37.185rem" viewBox="0 0 29.129 37.185">
  <g id="Calorie_Icon" data-name="Calorie Icon" transform="translate(0 0)">
    <path id="Path_1377" data-name="Path 1377" d="M26.128,218.19a12.7,12.7,0,0,1,.618,14.669A14.62,14.62,0,0,1,12.7,238.98c-5.6-.711-8.707-3.632-10.362-8.557-1.576-4.692-2.48-11.2,1.334-16.353-.732,4.98,3.277,11,6.449,12.161-3.478-10.106-2.707-19.662,5.722-22.983-2.254,7.463-.575,12.092,2.914,13.908.275.143.849-8.577,4.959-6.835.012,0-1.485,5.22,2.408,7.869" transform="translate(-0.319 -202.583)" fill="#fff" fill-rule="evenodd"/>
    <path id="Path_1378" data-name="Path 1378" d="M26.331,217.457l-.147-.137a5.221,5.221,0,0,1-1.2-1.116,5.421,5.421,0,0,1-.948-1.94,7.544,7.544,0,0,1-.243-1.952,9.466,9.466,0,0,1,.127-1.531c.032-.191.064-.344.087-.45l.028-.123.009-.041.006-.026.005-.028,0-.032,0-.08,0-.053-.009-.065a.628.628,0,0,0-.064-.189l-.118-.163a.692.692,0,0,0-.214-.14v0c-.008,0-.017,0-.026-.008l-.015-.008v0a3.3,3.3,0,0,0-1.253-.27,2.673,2.673,0,0,0-1.409.4,3.622,3.622,0,0,0-.92.829,7.348,7.348,0,0,0-1.065,1.947,19.525,19.525,0,0,0-.836,3.006c-.039.187-.072.357-.1.513a6.122,6.122,0,0,1-1.871-2.147,9.624,9.624,0,0,1-.993-4.553,20.92,20.92,0,0,1,1-5.982.666.666,0,0,0-.881-.812,12.859,12.859,0,0,0-3.67,2.171,11.848,11.848,0,0,0-3.377,4.854,17.349,17.349,0,0,0-1.043,6.2,31.506,31.506,0,0,0,1.452,8.94,8.36,8.36,0,0,1-.636-.542,13.786,13.786,0,0,1-2.842-4,11.75,11.75,0,0,1-1.235-4.955,7.812,7.812,0,0,1,.08-1.132.665.665,0,0,0-1.193-.493,13.945,13.945,0,0,0-2.194,4.453A16.639,16.639,0,0,0,0,222.449a25.08,25.08,0,0,0,1.392,7.867,16.236,16.236,0,0,0,1.6,3.455,11.215,11.215,0,0,0,3.749,3.738,14.035,14.035,0,0,0,5.564,1.812,16.131,16.131,0,0,0,2.026.128,15.854,15.854,0,0,0,7.228-1.73,14.275,14.275,0,0,0,5.428-4.814,13.368,13.368,0,0,0-.652-15.448m-.46,14.716a12.944,12.944,0,0,1-4.925,4.361,14.518,14.518,0,0,1-6.62,1.583A14.858,14.858,0,0,1,12.469,238a14.171,14.171,0,0,1-3.582-.9,9.763,9.763,0,0,1-3.828-2.743,13.334,13.334,0,0,1-2.4-4.465,23.761,23.761,0,0,1-1.323-7.443,15.3,15.3,0,0,1,.575-4.271,12.9,12.9,0,0,1,.773-2.02,12.792,12.792,0,0,0,.569,2.571,15.918,15.918,0,0,0,2.691,4.913A11.961,11.961,0,0,0,7.7,225.428a6.741,6.741,0,0,0,1.875,1.11.666.666,0,0,0,.858-.842,31.84,31.84,0,0,1-1.909-10.162,14.637,14.637,0,0,1,1.716-7.335,10.209,10.209,0,0,1,2.237-2.706,11.019,11.019,0,0,1,2.036-1.36,20.759,20.759,0,0,0-.678,4.971,10.929,10.929,0,0,0,1.149,5.177,7.407,7.407,0,0,0,3.148,3.146.683.683,0,0,0,.751-.081.742.742,0,0,0,.149-.168l.058-.107.056-.151c.027-.088.048-.176.072-.28.043-.193.089-.431.145-.711.1-.488.224-1.1.392-1.73a14.066,14.066,0,0,1,.455-1.428,7.833,7.833,0,0,1,.446-.97,3.448,3.448,0,0,1,.807-1.025,1.586,1.586,0,0,1,.431-.253,1.3,1.3,0,0,1,.47-.085,1.674,1.674,0,0,1,.259.03c-.018.1-.037.213-.054.337a10.779,10.779,0,0,0-.108,1.509,8.4,8.4,0,0,0,.561,3.114,6.425,6.425,0,0,0,2.307,2.918,12.032,12.032,0,0,1,.54,13.829" transform="translate(0 -202.264)" fill="#0072b2"/>
    <path id="Path_1379" data-name="Path 1379" d="M31.952,233.969l.264-.055-.264.054h0l.264-.055-.264.054a8.219,8.219,0,0,1,.12,1.5,9.273,9.273,0,0,1-.939,4.144,7.926,7.926,0,0,1-1.628,2.189,9.693,9.693,0,0,1-2.853,1.846.666.666,0,1,0,.531,1.221,11.028,11.028,0,0,0,3.24-2.1,9.325,9.325,0,0,0,2.441-3.862,10.994,10.994,0,0,0,.539-3.436,9.353,9.353,0,0,0-.149-1.767.666.666,0,0,0-1.3.273" transform="translate(-8.501 -212.271)" fill="#333f48"/>
  </g>
</svg>
