<svg id="Connect_Icon" data-name="Connect Icon" xmlns="http://www.w3.org/2000/svg" xmlns:xlink="http://www.w3.org/1999/xlink" width="23.546rem" height="26rem" viewBox="0 0 23.546 26">
  <defs>
    <clipPath id="clip-path">
      <rect id="Rectangle_858" data-name="Rectangle 858" width="23.546rem" height="26rem" fill="none"/>
    </clipPath>
  </defs>
  <g id="Group_631" data-name="Group 631" clip-path="url(#clip-path)">
    <path id="Path_1869" data-name="Path 1869" d="M23.465,22.425l-.309.068.309-.068A2.888,2.888,0,0,0,22.357,20.8a3.239,3.239,0,0,0-1.913-.621,3.287,3.287,0,0,0-.707.077,3.1,3.1,0,0,0-1.88,1.231L8.4,16.264c.024-.034.048-.066.071-.1a4.044,4.044,0,0,0,.568-3.245,4.16,4.16,0,0,0-.632-1.38L18.142,5.22a3.294,3.294,0,0,0,2.069.727,3.368,3.368,0,0,0,.722-.078A3.183,3.183,0,0,0,22.7,4.807a2.864,2.864,0,0,0,.676-1.833A2.8,2.8,0,0,0,23.3,2.3,2.972,2.972,0,0,0,21.882.448,3.306,3.306,0,0,0,20.217,0a3.39,3.39,0,0,0-.727.079,3.183,3.183,0,0,0-1.771,1.062,2.864,2.864,0,0,0-.676,1.833,2.8,2.8,0,0,0,.084.678,2.756,2.756,0,0,0,.1.321L7.278,10.429c-.092-.063-.186-.124-.284-.182A4.774,4.774,0,0,0,4.587,9.6a4.9,4.9,0,0,0-1.051.114A4.6,4.6,0,0,0,.977,11.248,4.138,4.138,0,0,0,0,13.9a4.045,4.045,0,0,0,.121.979,4.294,4.294,0,0,0,2.043,2.671,4.774,4.774,0,0,0,2.407.648,4.9,4.9,0,0,0,1.051-.114,4.72,4.72,0,0,0,1.629-.693l10.094,5.571c0,.043,0,.087,0,.131a2.728,2.728,0,0,0,.082.662,2.888,2.888,0,0,0,1.108,1.627A3.24,3.24,0,0,0,20.443,26a3.292,3.292,0,0,0,.707-.077,3.117,3.117,0,0,0,1.734-1.04,2.8,2.8,0,0,0,.662-1.8,2.741,2.741,0,0,0-.082-.663m-2.682,2.024a1.606,1.606,0,0,1-.343.037,1.55,1.55,0,0,1-.782-.211,1.392,1.392,0,0,1-.664-.869,1.315,1.315,0,0,1-.039-.318,1.346,1.346,0,0,1,.318-.862,1.492,1.492,0,0,1,.832-.5,1.579,1.579,0,0,1,.339-.037,1.555,1.555,0,0,1,.918.3,1.382,1.382,0,0,1,.531.78,1.313,1.313,0,0,1,.039.318,1.347,1.347,0,0,1-.318.862,1.493,1.493,0,0,1-.832.5M5.254,16.606a3.179,3.179,0,0,1-.682.074,3.087,3.087,0,0,1-1.557-.419,2.776,2.776,0,0,1-1.323-1.73,2.616,2.616,0,0,1-.078-.634,2.681,2.681,0,0,1,.633-1.716A2.974,2.974,0,0,1,3.9,11.188a3.172,3.172,0,0,1,.682-.074,3.088,3.088,0,0,1,1.557.419,2.776,2.776,0,0,1,1.323,1.73,2.615,2.615,0,0,1-.368,2.1,2.941,2.941,0,0,1-1.843,1.242M20.215,1.515a1.617,1.617,0,0,1,.816.22,1.454,1.454,0,0,1,.694.907,1.37,1.37,0,0,1-.193,1.1,1.54,1.54,0,0,1-.966.651,1.647,1.647,0,0,1-.354.039,1.624,1.624,0,0,1-.959-.312,1.443,1.443,0,0,1-.555-.815,1.378,1.378,0,0,1-.041-.332,1.406,1.406,0,0,1,.332-.9,1.559,1.559,0,0,1,.868-.521,1.665,1.665,0,0,1,.358-.039" transform="translate(0 0)" fill="#313f48"/>
  </g>
</svg>
