<svg xmlns="http://www.w3.org/2000/svg" xmlns:xlink="http://www.w3.org/1999/xlink" width="45.373" height="46.141" viewBox="0 0 45.373 46.141">
  <defs>
    <clipPath id="clip-path">
      <rect id="Rectangle_343" data-name="Rectangle 343" width="45.373" height="46.141" fill="none"/>
    </clipPath>
  </defs>
  <g id="Group_376" data-name="Group 376" clip-path="url(#clip-path)">
    <path id="Path_1273" data-name="Path 1273" d="M42.4,40.371h-.41V13.893a2.739,2.739,0,0,0,1.663-2.519V5.017a2.74,2.74,0,0,0-2.738-2.74H30.61V2.25H16.939v.027H6.658a2.74,2.74,0,0,0-2.739,2.74v6.356a2.737,2.737,0,0,0,1.64,2.506V40.371H5.047a2.8,2.8,0,0,0,0,5.595H42.4a2.8,2.8,0,0,0,0-5.595" transform="translate(-0.068 -0.068)" fill="#333f48"/>
    <path id="Path_1274" data-name="Path 1274" d="M42.4,40.371h-.41V13.893a2.739,2.739,0,0,0,1.663-2.519V5.017a2.74,2.74,0,0,0-2.738-2.74H30.61V2.25H16.939v.027H6.658a2.74,2.74,0,0,0-2.739,2.74v6.356a2.737,2.737,0,0,0,1.64,2.506V40.371H5.047a2.8,2.8,0,0,0,0,5.595H42.4a2.8,2.8,0,0,0,0-5.595Z" transform="translate(-0.068 -0.068)" fill="none" stroke="#252f38" stroke-miterlimit="10" stroke-width="0.5"/>
    <path id="Path_1275" data-name="Path 1275" d="M40.651,38.621h-.41V12.142A2.738,2.738,0,0,0,41.9,9.624V3.267A2.74,2.74,0,0,0,39.165.527H28.86V.5H15.189V.527H4.908a2.74,2.74,0,0,0-2.739,2.74V9.624a2.737,2.737,0,0,0,1.64,2.506V38.621H3.3a2.8,2.8,0,0,0,0,5.595H40.651a2.8,2.8,0,0,0,0-5.595" transform="translate(-0.015 -0.015)" fill="#fff"/>
    <path id="Path_1276" data-name="Path 1276" d="M40.71,38.129V12.422a3.216,3.216,0,0,0,1.664-2.813V3.252A3.225,3.225,0,0,0,39.149.028h-9.82V0H14.688V.028h-9.8A3.225,3.225,0,0,0,1.667,3.252V9.609a3.216,3.216,0,0,0,1.64,2.8V38.122H3.282a3.282,3.282,0,1,0,0,6.564H40.636a3.279,3.279,0,0,0,.074-6.557M3.283,42.434a1.031,1.031,0,1,1,0-2.061H40.635a1.031,1.031,0,1,1,0,2.061ZM4.894,2.279h9.794v8.309H5.378v0H4.894a.976.976,0,0,1-.975-.975V3.253a.975.975,0,0,1,.975-.974M18.032,20h7.953a3.344,3.344,0,0,0,3.344-3.345V12.84h9.13V38.122H5.559V12.84h9.129v3.814A3.346,3.346,0,0,0,18.032,20m-1.093-8.285V2.279H27.077V16.654a1.094,1.094,0,0,1-1.093,1.093H18.033a1.1,1.1,0,0,1-1.094-1.094Zm22.21-9.434h0a.975.975,0,0,1,.974.974V9.609a.976.976,0,0,1-.974.974h-.484v0H29.329V2.279Z" transform="translate(0 0)" fill="#0072b2"/>
    <path id="Path_1277" data-name="Path 1277" d="M20.318,7.243h4.529a1.227,1.227,0,0,0,1.227-1.228V5.224A1.227,1.227,0,0,0,24.847,4H20.318A1.227,1.227,0,0,0,19.09,5.224v.791a1.228,1.228,0,0,0,1.228,1.228" transform="translate(-0.573 -0.12)" fill="#84bd00"/>
    <path id="Path_1278" data-name="Path 1278" d="M10.221,3.89H8.629a.856.856,0,0,0,0,1.711h1.593a.856.856,0,1,0,0-1.711" transform="translate(-0.233 -0.117)" fill="#84bd00"/>
    <path id="Path_1279" data-name="Path 1279" d="M10.221,7.6H8.629a.856.856,0,0,0,0,1.711h1.593a.856.856,0,1,0,0-1.711" transform="translate(-0.233 -0.228)" fill="#84bd00"/>
    <path id="Path_1280" data-name="Path 1280" d="M35.081,5.6h1.592a.856.856,0,1,0,0-1.711H35.081a.856.856,0,1,0,0,1.711" transform="translate(-1.027 -0.117)" fill="#84bd00"/>
    <path id="Path_1281" data-name="Path 1281" d="M36.672,7.6H35.081a.856.856,0,1,0,0,1.711h1.592a.856.856,0,1,0,0-1.711" transform="translate(-1.027 -0.228)" fill="#84bd00"/>
    <path id="Path_1282" data-name="Path 1282" d="M22.59,9.942a3.209,3.209,0,1,0,3.21,3.21,3.21,3.21,0,0,0-3.21-3.21m1.364,4.573a1.928,1.928,0,1,1,.565-1.363,1.916,1.916,0,0,1-.565,1.363" transform="translate(-0.581 -0.298)" fill="#84bd00"/>
    <path id="Path_1283" data-name="Path 1283" d="M28.823,24.13H16.407a.883.883,0,0,0-.877.786c-.008.069-.043.4-.067.918H13.228a1.8,1.8,0,0,0-.476.066,1.876,1.876,0,0,0-1.01.711,2.8,2.8,0,0,0-.465,1.641v.164a7.124,7.124,0,0,0,.131,1.468,4.376,4.376,0,0,0,.449,1.225,3.749,3.749,0,0,0,1.673,1.551,6.629,6.629,0,0,0,3.149.575A6.71,6.71,0,0,0,18.642,35.7a6.117,6.117,0,0,0,3.726,1.17h.495a6.122,6.122,0,0,0,3.727-1.17,7.806,7.806,0,0,0,2.669-4.376,17.613,17.613,0,0,0,.532-4.5,18.326,18.326,0,0,0-.09-1.919.882.882,0,0,0-.877-.783m-.8,2.7a14.088,14.088,0,0,1-.941,5.391,5.141,5.141,0,0,1-1.554,2.069,4.346,4.346,0,0,1-2.681.816h-.465a4.349,4.349,0,0,1-2.682-.816,6.133,6.133,0,0,1-2.022-3.419,16.158,16.158,0,0,1-.472-4.042c0-.359.01-.674.022-.936H28c.013.262.022.579.022.937m-12.01,4.618a4.853,4.853,0,0,1-1.546-.307,2.289,2.289,0,0,1-.77-.5,2.125,2.125,0,0,1-.532-1,5,5,0,0,1-.123-1.235v-.142a1.48,1.48,0,0,1,.082-.536c.046-.1.066-.117.134-.137h2.2a16.622,16.622,0,0,0,.558,3.851" transform="translate(-0.338 -0.724)" fill="#84bd00"/>
  </g>
</svg>
