<svg xmlns="http://www.w3.org/2000/svg" xmlns:xlink="http://www.w3.org/1999/xlink" width="56.859" height="34.225" viewBox="0 0 56.859 34.225">
  <defs>
    <clipPath id="clip-path">
      <rect id="Rectangle_342" data-name="Rectangle 342" width="56.859" height="34.225" fill="none"/>
    </clipPath>
  </defs>
  <g id="Group_375" data-name="Group 375" clip-path="url(#clip-path)">
    <path id="Path_1269" data-name="Path 1269" d="M54.81,28.822H53.228V3.789A1.786,1.786,0,0,0,51.447,2H7.474A1.785,1.785,0,0,0,5.692,3.789V28.822H4.109A2.108,2.108,0,0,0,2,30.931v1.245a2.107,2.107,0,0,0,2.109,2.108h50.7a2.108,2.108,0,0,0,2.109-2.108V30.931a2.11,2.11,0,0,0-2.109-2.109" transform="translate(-0.06 -0.06)" fill="#333f48"/>
    <path id="Path_1270" data-name="Path 1270" d="M53.06,27.072H51.478V2.039A1.786,1.786,0,0,0,49.7.25H5.723A1.785,1.785,0,0,0,3.941,2.039V27.072H2.358A2.108,2.108,0,0,0,.25,29.181v1.245a2.107,2.107,0,0,0,2.108,2.108h50.7a2.108,2.108,0,0,0,2.109-2.108V29.181a2.11,2.11,0,0,0-2.109-2.109" transform="translate(-0.008 -0.007)" fill="#fff"/>
    <path id="Path_1271" data-name="Path 1271" d="M27.365,4.218h2.3a.357.357,0,1,0,0-.714h-2.3a.357.357,0,1,0,0,.714" transform="translate(-0.81 -0.105)" fill="#84bd00"/>
    <path id="Path_1272" data-name="Path 1272" d="M53.053,26.822v0h-1.34V2.031A2.03,2.03,0,0,0,49.69,0H5.715A2.028,2.028,0,0,0,3.691,2.031V26.822H2.351A2.351,2.351,0,0,0,0,29.174v1.245A2.351,2.351,0,0,0,2.351,32.77h50.7A2.352,2.352,0,0,0,55.4,30.419V29.174a2.352,2.352,0,0,0-2.351-2.351M5.457,2.031a.261.261,0,0,1,.258-.265H49.69a.262.262,0,0,1,.257.265v25.4a.263.263,0,0,1-.257.267H5.715a.263.263,0,0,1-.258-.267ZM53.638,30.419a.586.586,0,0,1-.585.585H2.351a.586.586,0,0,1-.585-.585V29.174a.586.586,0,0,1,.585-.585H4.078a2,2,0,0,0,1.637.872H49.69a2,2,0,0,0,1.636-.872h1.727a.586.586,0,0,1,.585.585Z" transform="translate(0 0)" fill="#0072b2"/>
  </g>
</svg>
