<svg xmlns="http://www.w3.org/2000/svg" xmlns:xlink="http://www.w3.org/1999/xlink" width="36.108" height="49.161" viewBox="0 0 36.108 49.161">
  <defs>
    <clipPath id="clip-path">
      <rect id="Rectangle_347" data-name="Rectangle 347" width="36.108" height="49.161" fill="none"/>
    </clipPath>
  </defs>
  <g id="Group_377" data-name="Group 377" clip-path="url(#clip-path)">
    <path id="Path_1284" data-name="Path 1284" d="M34.417,18.573V16.229a.49.49,0,1,0-.98,0v2.333H32.4V16.229a.49.49,0,1,0-.98,0v2.344a1.844,1.844,0,0,0-1.743,1.839v2.781a1.85,1.85,0,0,0,1.85,1.85h1.088a8.147,8.147,0,0,1,.552,2.76,4.3,4.3,0,0,1-.282,1.6,3.206,3.206,0,0,1-1.035,1.361,6.659,6.659,0,0,0-1.71,1.848,4.257,4.257,0,0,0-.605,2.2A6.23,6.23,0,0,0,30.2,37.44a15.575,15.575,0,0,0,1.939,3,1.718,1.718,0,0,1,.429,1.079,1.883,1.883,0,0,1-.377,1.06A7.49,7.49,0,0,1,29.727,44.6a28.763,28.763,0,0,1-6.28,2.483,31.142,31.142,0,0,1-6.273,1.142c-.113.006-.221.009-.325.009a3.592,3.592,0,0,1-1.532-.292,2.287,2.287,0,0,1-1.163-1.233,4.873,4.873,0,0,1-.329-1.9,11.19,11.19,0,0,1,.315-2.475l.007-.027h6.743a4.921,4.921,0,0,0,4.922-4.922V6.673A4.922,4.922,0,0,0,20.891,1.75H6.672A4.923,4.923,0,0,0,1.75,6.673V37.385a4.922,4.922,0,0,0,4.923,4.922h6.47a11.932,11.932,0,0,0-.3,2.5,5.09,5.09,0,0,0,.791,2.971A3.194,3.194,0,0,0,14.9,48.83a4.562,4.562,0,0,0,1.946.385c.122,0,.249,0,.378-.011a35.6,35.6,0,0,0,10.089-2.383,18.452,18.452,0,0,0,4.316-2.3A6.261,6.261,0,0,0,33,43.133a2.868,2.868,0,0,0,.547-1.613,2.7,2.7,0,0,0-.641-1.688,14.655,14.655,0,0,1-1.82-2.808,5.268,5.268,0,0,1-.57-2.215,3.275,3.275,0,0,1,.469-1.7,5.7,5.7,0,0,1,1.465-1.571A4.174,4.174,0,0,0,33.8,29.768,5.235,5.235,0,0,0,34.15,27.8a8.66,8.66,0,0,0-.4-2.482c-.031-.1-.061-.19-.091-.277h.653a1.85,1.85,0,0,0,1.849-1.85V20.412a1.844,1.844,0,0,0-1.743-1.839" transform="translate(-0.053 -0.053)" fill="#333f48"/>
    <rect id="Rectangle_344" data-name="Rectangle 344" width="5.135" height="4.786" transform="translate(28.617 17.627)" fill="#fff"/>
    <path id="Path_1285" data-name="Path 1285" d="M33.756,21.875a.87.87,0,0,1-.869.87H30.106a.872.872,0,0,1-.87-.87V19.094a.872.872,0,0,1,.87-.87h2.781a.87.87,0,0,1,.869.87Zm-.763-4.62V14.912a.49.49,0,1,0-.98,0v2.333H30.979V14.912a.49.49,0,1,0-.98,0v2.344a1.844,1.844,0,0,0-1.743,1.839v2.781a1.85,1.85,0,0,0,1.85,1.85h1.088a8.147,8.147,0,0,1,.552,2.76,4.3,4.3,0,0,1-.282,1.6,3.206,3.206,0,0,1-1.035,1.361,6.659,6.659,0,0,0-1.71,1.848,4.257,4.257,0,0,0-.605,2.2,6.23,6.23,0,0,0,.663,2.631,15.576,15.576,0,0,0,1.939,3,1.718,1.718,0,0,1,.429,1.079,1.883,1.883,0,0,1-.377,1.06,7.49,7.49,0,0,1-2.465,2.02,28.763,28.763,0,0,1-6.28,2.483,31.143,31.143,0,0,1-6.273,1.142c-.113.006-.221.009-.325.009a3.592,3.592,0,0,1-1.532-.292,2.287,2.287,0,0,1-1.163-1.233,4.873,4.873,0,0,1-.329-1.9,11.2,11.2,0,0,1,.315-2.475c.08-.34.159-.622.218-.818.011-.038.02-.069.03-.1h.883s.823-.98,0-.98h-2.6c-.823,0,0,.98,0,.98h.7a12.964,12.964,0,0,0-.521,3.393,5.09,5.09,0,0,0,.791,2.971,3.194,3.194,0,0,0,1.267,1.05,4.562,4.562,0,0,0,1.946.385c.122,0,.249,0,.378-.011A35.6,35.6,0,0,0,25.893,45.5a18.452,18.452,0,0,0,4.316-2.3,6.261,6.261,0,0,0,1.37-1.386,2.868,2.868,0,0,0,.547-1.613,2.7,2.7,0,0,0-.641-1.688,14.655,14.655,0,0,1-1.82-2.808,5.268,5.268,0,0,1-.57-2.214,3.275,3.275,0,0,1,.469-1.7,5.7,5.7,0,0,1,1.465-1.571,4.168,4.168,0,0,0,1.344-1.771,5.235,5.235,0,0,0,.354-1.966,8.66,8.66,0,0,0-.4-2.482c-.031-.1-.061-.19-.091-.277h.653a1.85,1.85,0,0,0,1.849-1.85V19.094a1.844,1.844,0,0,0-1.743-1.839" transform="translate(-0.326 -0.433)" fill="#0072b2"/>
    <path id="Path_1286" data-name="Path 1286" d="M12.349,39.616H19.17a3.952,3.952,0,0,0,3.953-3.952V4.952A3.952,3.952,0,0,0,19.17,1H4.952A3.952,3.952,0,0,0,1,4.952V35.665a3.952,3.952,0,0,0,3.952,3.952h6.375s1.013.031,1.022,0" transform="translate(-0.03 -0.03)" fill="#fff"/>
    <path id="Path_1287" data-name="Path 1287" d="M12.349,39.616H19.17a3.952,3.952,0,0,0,3.953-3.952V4.952A3.952,3.952,0,0,0,19.17,1H4.952A3.952,3.952,0,0,0,1,4.952V35.665a3.952,3.952,0,0,0,3.952,3.952h6.375S12.339,39.648,12.349,39.616Z" transform="translate(-0.03 -0.03)" fill="none" stroke="#0072b2" stroke-miterlimit="10" stroke-width="2"/>
    <rect id="Rectangle_345" data-name="Rectangle 345" width="21.112" height="0.97" transform="translate(1.475 7.016)" fill="#84bd00"/>
    <rect id="Rectangle_346" data-name="Rectangle 346" width="21.112" height="0.97" transform="translate(1.475 31.646)" fill="#84bd00"/>
    <path id="Path_1288" data-name="Path 1288" d="M11,5.34h2.7a.485.485,0,1,0,0-.97H11a.485.485,0,1,0,0,.97" transform="translate(-0.315 -0.132)" fill="#84bd00"/>
    <path id="Path_1289" data-name="Path 1289" d="M12.353,35.079a1.658,1.658,0,1,0,1.658,1.658,1.658,1.658,0,0,0-1.658-1.658m0,2.345a.688.688,0,1,1,.688-.688.69.69,0,0,1-.688.688" transform="translate(-0.321 -1.053)" fill="#84bd00"/>
    <path id="Path_1290" data-name="Path 1290" d="M19.141,0H4.922A4.921,4.921,0,0,0,0,4.922V35.635a4.921,4.921,0,0,0,4.922,4.922H19.14a4.923,4.923,0,0,0,4.923-4.922V4.922A4.923,4.923,0,0,0,19.141,0m2.982,35.635a2.986,2.986,0,0,1-2.983,2.982H4.922A2.985,2.985,0,0,1,1.94,35.635V4.922A2.985,2.985,0,0,1,4.922,1.94H19.14a2.987,2.987,0,0,1,2.983,2.982Z" transform="translate(0 0)" fill="#0072b2"/>
  </g>
</svg>
