<svg xmlns="http://www.w3.org/2000/svg" width="182.992" height="21.867" viewBox="0 0 182.992 21.867">
  <g id="ECO-POWR_Logo" data-name="ECO-POWR Logo" transform="translate(-96.004 -118.738)">
    <g id="Group_78" data-name="Group 78">
      <path id="Path_252" data-name="Path 252" d="M162.295,130.975l.374-1.978h5.836l-.368,1.978Z" fill="#333f48"/>
      <path id="Path_253" data-name="Path 253" d="M96,140.6l3.86-21.859h17.817l-.9,5.026H103.917l-.741,4.192h12.869l-.59,3.423H102.612l-.74,4.192h12.844l-.9,5.026Z" fill="#333f48"/>
      <path id="Path_254" data-name="Path 254" d="M120.524,140.6a3.48,3.48,0,0,1-2.593-1,3.434,3.434,0,0,1-1-2.554,4.493,4.493,0,0,1,.067-.776l2.241-12.82a5.446,5.446,0,0,1,1.974-3.324,5.368,5.368,0,0,1,3.564-1.384H139.9l-.895,5.026H124.165L122.1,135.577h14.836l-.892,5.026Z" fill="#333f48"/>
      <path id="Path_255" data-name="Path 255" d="M142.767,140.6a3.477,3.477,0,0,1-2.594-1,3.434,3.434,0,0,1-1-2.554,4.833,4.833,0,0,1,.066-.778l2.244-12.819a5.44,5.44,0,0,1,1.973-3.321,5.362,5.362,0,0,1,3.563-1.384h10.822a3.484,3.484,0,0,1,2.594,1,3.436,3.436,0,0,1,1,2.552,5.031,5.031,0,0,1-.064.786L159.127,135.9a5.444,5.444,0,0,1-1.973,3.32,5.357,5.357,0,0,1-3.563,1.387Zm1.572-5.027h9.86l2.065-11.806h-9.857Z" fill="#333f48"/>
      <path id="Path_256" data-name="Path 256" d="M168.738,140.6l3.863-21.859h15.512a3.481,3.481,0,0,1,2.594,1,3.425,3.425,0,0,1,1,2.552,5.023,5.023,0,0,1-.064.794l-.64,3.585A5.477,5.477,0,0,1,189.04,130a5.3,5.3,0,0,1-3.546,1.383H175.349L173.72,140.6Zm7.364-13.621h9.845l.744-4.19h-9.84Z" fill="#333f48"/>
      <path id="Path_257" data-name="Path 257" d="M195.232,140.6a3.474,3.474,0,0,1-2.593-1,3.432,3.432,0,0,1-1-2.555,4.724,4.724,0,0,1,.067-.778l2.245-12.819a5.886,5.886,0,0,1,5.534-4.705H210.3a3.483,3.483,0,0,1,2.594,1,3.427,3.427,0,0,1,1,2.551,4.787,4.787,0,0,1-.067.784l-2.241,12.815a5.433,5.433,0,0,1-1.974,3.32,5.351,5.351,0,0,1-3.562,1.387Zm1.573-5.027h9.86l2.064-11.806h-9.86Z" fill="#333f48"/>
      <path id="Path_258" data-name="Path 258" d="M231.922,140.6l-.791-13.251L225.356,140.6H217.9l-1.6-21.859h5.021l1.32,16.236,7.232-16.236h5.473l1.367,16.382,7.168-16.382h4.855L239.407,140.6Z" fill="#333f48"/>
      <path id="Path_259" data-name="Path 259" d="M262.091,140.6l1.621-9.217h-9.848l-1.629,9.217h-4.982l3.86-21.859h15.515a3.481,3.481,0,0,1,2.594,1,3.422,3.422,0,0,1,1,2.553,4.76,4.76,0,0,1-.064.782l-.634,3.6a4.2,4.2,0,0,1-2.488,2.844,2.387,2.387,0,0,1,1.523,2.868l-1.483,8.21Zm-7.483-13.573h9.854l.742-4.189h-9.845Z" fill="#333f48"/>
      <g id="Group_77" data-name="Group 77">
        <path id="Path_260" data-name="Path 260" d="M273.629,122.088v-2.944h-1.048v-.367h2.512v.367H274.04v2.944Z" fill="#333f48"/>
        <path id="Path_261" data-name="Path 261" d="M278.583,122.088v-2.726l-1.127,2.726h-.168l-1.122-2.726v2.726h-.412v-3.311h.591l1.028,2.491,1.032-2.491H279v3.311Z" fill="#333f48"/>
      </g>
    </g>
  </g>
</svg>
