<svg id="Group_378" data-name="Group 378" xmlns="http://www.w3.org/2000/svg" width="71.794rem" height="57.622rem" viewBox="0 0 71.794 57.622">
  <path id="Path_1340" data-name="Path 1340" d="M22.034,57.67a1.764,1.764,0,0,1-.542-.121,1.117,1.117,0,0,1-.422-1.326L31.078,31.5H21.793a.993.993,0,0,1-.9-.542,1.039,1.039,0,0,1,0-1.025L36.022,2.142a.993.993,0,0,1,.9-.542H50.189a1,1,0,0,1,.905.542,1.154,1.154,0,0,1,0,1.085L41.086,20.53H51.094a1.073,1.073,0,0,1,.964.6,1.13,1.13,0,0,1-.12,1.146L22.878,57.248a1.269,1.269,0,0,1-.844.422M23.6,29.393h9.043a1.142,1.142,0,0,1,.9.482.945.945,0,0,1,.121.965L24.636,49.475,49.1,21.134l-9.819,1.507a.994.994,0,0,1-.9-.543c-.18-.3-1.235-.873-1.055-1.234L47.327,3.62l-9.737.149Z" transform="translate(-0.623 -0.048)" fill="#333f48" fill-rule="evenodd"/>
  <path id="Path_1341" data-name="Path 1341" d="M62.123,21.8a.994.994,0,0,1-.549-.9,1.072,1.072,0,0,1,.991-1.114l9.959-.433a1.055,1.055,0,1,1,.122,2.106l-9.987.485a1.732,1.732,0,0,1-.536-.145" transform="translate(-1.847 -0.581)" fill="#333f48" fill-rule="evenodd"/>
  <path id="Path_1342" data-name="Path 1342" d="M65.685,37.278a.661.661,0,0,1-.239-.193l-7.37-6.719a1.031,1.031,0,1,1,1.4-1.511l7.37,6.719a1,1,0,0,1,.053,1.458,1.018,1.018,0,0,1-1.218.246" transform="translate(-1.732 -0.857)" fill="#333f48" fill-rule="evenodd"/>
  <path id="Path_1343" data-name="Path 1343" d="M58.619,12.738a.661.661,0,0,1-.239-.193,1,1,0,0,1-.054-1.458l6.719-7.37a1.032,1.032,0,1,1,1.511,1.4l-6.719,7.37a.924.924,0,0,1-1.218.246" transform="translate(-1.741 -0.101)" fill="#333f48" fill-rule="evenodd"/>
  <path id="Path_1344" data-name="Path 1344" d="M12.97,31.7a1.762,1.762,0,0,1-.545.107l-9.9-1.134a1.054,1.054,0,0,1,.271-2.091l9.9,1.134A1.033,1.033,0,0,1,12.97,31.7" transform="translate(-0.048 -0.857)" fill="#333f48" fill-rule="evenodd"/>
  <path id="Path_1345" data-name="Path 1345" d="M8.39,46.911A1.035,1.035,0,0,1,7.136,46.6a1.051,1.051,0,0,1,.156-1.45l7.826-6.183a1.031,1.031,0,0,1,1.294,1.606L8.586,46.759Z" transform="translate(-0.208 -1.163)" fill="#333f48" fill-rule="evenodd"/>
  <path id="Path_1346" data-name="Path 1346" d="M17.2,22.915a1.035,1.035,0,0,1-1.253-.307L9.768,14.782a1.051,1.051,0,0,1,.155-1.45,1,1,0,0,1,1.45.156l6.183,7.826a1.05,1.05,0,0,1-.156,1.45Z" transform="translate(-0.287 -0.393)" fill="#333f48" fill-rule="evenodd"/>
  <path id="Path_1347" data-name="Path 1347" d="M20.434,56.07a1.764,1.764,0,0,1-.542-.121,1.117,1.117,0,0,1-.422-1.326L29.478,29.9H20.193a.993.993,0,0,1-.9-.542,1.039,1.039,0,0,1,0-1.025L34.422.542a.993.993,0,0,1,.9-.542H48.589a1,1,0,0,1,.9.542,1.154,1.154,0,0,1,0,1.085L39.486,18.93H49.494a1.073,1.073,0,0,1,.964.6,1.13,1.13,0,0,1-.12,1.146L21.278,55.648a1.269,1.269,0,0,1-.844.422M22,27.793h9.043a1.142,1.142,0,0,1,.9.482.945.945,0,0,1,.121.965L23.991,49.076,47.263,21.041H37.677a.994.994,0,0,1-.9-.543,1.152,1.152,0,0,1,0-1.084L46.781,2.17H35.989Z" transform="translate(-0.575 0)" fill="#0072b2" fill-rule="evenodd"/>
  <path id="Path_1348" data-name="Path 1348" d="M60.523,20.2a.994.994,0,0,1-.549-.9,1.072,1.072,0,0,1,.991-1.114l9.959-.433a1.055,1.055,0,1,1,.122,2.106l-9.987.485a1.732,1.732,0,0,1-.536-.145" transform="translate(-1.799 -0.533)" fill="#fff" fill-rule="evenodd"/>
  <path id="Path_1349" data-name="Path 1349" d="M64.085,35.678a.662.662,0,0,1-.239-.193l-7.37-6.719a1.031,1.031,0,1,1,1.4-1.511l7.37,6.719a1,1,0,0,1,.053,1.458,1.018,1.018,0,0,1-1.218.246" transform="translate(-1.684 -0.809)" fill="#fff" fill-rule="evenodd"/>
  <path id="Path_1350" data-name="Path 1350" d="M57.019,11.138a.651.651,0,0,1-.239-.193,1,1,0,0,1-.054-1.458l6.719-7.37A1,1,0,0,1,64.9,2.064a1,1,0,0,1,.053,1.458l-6.719,7.37a.924.924,0,0,1-1.218.246" transform="translate(-1.693 -0.053)" fill="#fff" fill-rule="evenodd"/>
  <path id="Path_1351" data-name="Path 1351" d="M11.37,30.1a1.762,1.762,0,0,1-.545.107l-9.9-1.134a1.054,1.054,0,0,1,.271-2.091l9.9,1.134a1.071,1.071,0,0,1,.911,1.18,1.06,1.06,0,0,1-.635.8" transform="translate(0 -0.809)" fill="#fff" fill-rule="evenodd"/>
  <path id="Path_1352" data-name="Path 1352" d="M6.79,45.311A1.035,1.035,0,0,1,5.536,45a1.051,1.051,0,0,1,.156-1.45l7.826-6.183a1.031,1.031,0,1,1,1.294,1.606L6.986,45.159Z" transform="translate(-0.16 -1.115)" fill="#fff" fill-rule="evenodd"/>
  <path id="Path_1353" data-name="Path 1353" d="M15.6,21.315a1.035,1.035,0,0,1-1.253-.307L8.168,13.182a1.051,1.051,0,0,1,.155-1.45,1,1,0,0,1,1.45.156l6.183,7.826a1.05,1.05,0,0,1-.156,1.45Z" transform="translate(-0.239 -0.345)" fill="#fff" fill-rule="evenodd"/>
  <path id="Path_1354" data-name="Path 1354" d="M22.085,27.842h9.043a1.142,1.142,0,0,1,.9.482.945.945,0,0,1,.121.965L24.074,49.125,47.347,21.09H37.76a.994.994,0,0,1-.9-.543,1.152,1.152,0,0,1,0-1.084L46.864,2.219H36.072Z" transform="translate(-0.663 -0.067)" fill="#fff" fill-rule="evenodd"/>
  <rect id="Rectangle_351" data-name="Rectangle 351" width="71.794" height="57.622" transform="translate(0 0)" fill="none"/>
</svg>
