<svg xmlns="http://www.w3.org/2000/svg" width="32.612rem" height="30.668rem" viewBox="0 0 32.612 30.668">
  <g id="Heart_Rate_Icon" data-name="Heart Rate Icon" transform="translate(0 0)">
    <path id="Path_1397" data-name="Path 1397" d="M272.1,227.556c.079-.284.275-.347.552-.348,2.056-.01,4.111-.038,6.166-.047a.343.343,0,0,0,.369-.256c.553-1.3,1.117-2.589,1.678-3.883.034-.078.079-.153.113-.232a.355.355,0,0,1,.386-.246.411.411,0,0,1,.4.3c.1.41.2.822.279,1.237.279,1.542.547,3.086.82,4.629.137.774.274,1.548.455,2.327.051-.172.11-.344.151-.518q.661-2.78,1.317-5.561.8-3.357,1.591-6.714c.043-.18.105-.354.158-.531a.419.419,0,0,1,.4-.3c.2-.021.295.114.345.27.158.491.322.98.447,1.479q.985,3.913,1.946,7.832c.034.138.1.16.218.161,1.3.006,2.6.013,3.9.029.145,0,.179-.087.224-.179a1.8,1.8,0,0,1,3.43.849,1.789,1.789,0,0,1-1.456,1.489,1.757,1.757,0,0,1-1.849-.809c-.011-.016-.029-.032-.032-.05-.057-.335-.3-.317-.56-.317-1.26,0-2.519-.007-3.779-.018a5.638,5.638,0,0,1-.592-.057c-.177-.02-.253-.135-.294-.3-.267-1.073-.542-2.143-.812-3.215q-.532-2.107-1.065-4.213a.784.784,0,0,0-.053-.109c-.077.279-.153.52-.211.765q-1.04,4.412-2.075,8.825c-.322,1.358-.659,2.711-.994,4.066-.073.294-.2.385-.45.368a.49.49,0,0,1-.471-.448q-.406-2.325-.817-4.649-.358-2.021-.725-4.041c-.017-.094-.041-.187-.073-.334-.216.516-.4.98-.6,1.436-.245.55-.507,1.092-.761,1.638a.372.372,0,0,1-.368.243c-.689.007-1.378.036-2.067.038-1.413,0-2.824-.005-4.237-.014-.191,0-.383-.025-.575-.043a.421.421,0,0,1-.429-.312Z" transform="translate(-271.647 -210.427)" fill="#333f48"/>
    <path id="Path_1398" data-name="Path 1398" d="M280.471,229.1l.028.157c.229,1.268.465,2.581.686,3.871q.028.165.069.318a3.055,3.055,0,0,0,2.173,1.874c-.088-.018.179.013.27.013a2.292,2.292,0,0,0,2.3-1.738c.049-.193.1-.387.164-.592.074-.258.15-.523.216-.8.344-1.446.69-2.916,1.024-4.339l.059-.252a3.174,3.174,0,0,0,.465.772,2.271,2.271,0,0,0,1.868.782l.888,0c.715,0,1.454.009,2.182.009h.577a3.656,3.656,0,0,0,2.7,1.118c.105,0,.214,0,.323-.011a3.512,3.512,0,0,0,3.29-3.187,3.671,3.671,0,0,0-.924-2.844,3.514,3.514,0,0,0-2.63-1.131,4.275,4.275,0,0,0-1.06.138,3.786,3.786,0,0,0-1.661.936c-.416.005-.836.006-1.235.006h-.532c-.353-1.444-.717-2.924-1.089-4.38-.3-1.182-.624-2.369-.956-3.581a2.284,2.284,0,0,0-.868-1.3,2.5,2.5,0,0,0-.266-.166,2.211,2.211,0,0,0-.7-.251,2.849,2.849,0,0,0-.482-.045,2.413,2.413,0,0,0-2.4,1.879c-.051.255-.122.514-.2.788-.056.208-.115.423-.166.643-.233.988-.466,1.99-.693,2.969a2.458,2.458,0,0,0-2.122-1.189,2.363,2.363,0,0,0-2.171,1.335l-.023.041a2.228,2.228,0,0,0-.116.225l-.09.208c-.4.923-.809,1.874-1.212,2.818-.92-.01-1.847-.018-2.747-.025l-.59-.005-1.051-.019-.082.982h2.391c1.452.013,1.092.023,2.544.041h.007a.222.222,0,0,0,.237-.168q.733-1.727,1.481-3.448c.037-.085.092-.162.13-.246a1.393,1.393,0,0,1,1.291-.771,1.493,1.493,0,0,1,1.315.759,2.847,2.847,0,0,1,.236.836c.181.88.348,1.763.522,2.646.008.043.026.085.057.185.146-.617.28-1.177.411-1.738q.608-2.608,1.215-5.215c.116-.49.27-.97.37-1.463a1.437,1.437,0,0,1,1.448-1.1,1.528,1.528,0,0,1,.891.281,1.321,1.321,0,0,1,.5.767c.325,1.186.648,2.373.952,3.565.42,1.648.824,3.3,1.229,4.951.029.121.07.16.191.16h0l.8,0h.333c.5,0,.994,0,1.491-.009a.568.568,0,0,0,.326-.183,2.921,2.921,0,0,1,1.319-.781,3.29,3.29,0,0,1,.819-.107,2.618,2.618,0,0,1,.2,5.227c-.086.006-.171.009-.255.009a2.717,2.717,0,0,1-2.073-.891.7.7,0,0,0-.567-.227h-.64c-1.022,0-2.043-.008-3.065-.013a1.315,1.315,0,0,1-1.114-.416,2.016,2.016,0,0,1-.371-.665c-.26-.909-.487-1.828-.726-2.743a2.751,2.751,0,0,0-.2-.575c-.095.371-.2.74-.283,1.112-.556,2.356-1.107,4.712-1.667,7.067-.11.462-.259.916-.376,1.377a1.334,1.334,0,0,1-1.367,1.008,1.633,1.633,0,0,1-.771-.187,1.551,1.551,0,0,1-.786-1.213c-.295-1.728-.611-3.451-.92-5.177-.015-.08-.039-.16-.064-.262-.158.146-.293.279-.435.4a.9.9,0,0,1-.6.237c-1.392.024-3.216.051-4.608.078h-.154a.425.425,0,0,0,.028.111l1.273.828c.858-.017,2.621-.032,3.479-.048a1.837,1.837,0,0,0,.329-.034" transform="translate(-272.164 -209.479)" fill="#0072b2"/>
    <path id="Path_1399" data-name="Path 1399" d="M318.652,219.9v.024l0,.031Z" transform="translate(-286.723 -211.232)" fill="#fff"/>
    <path id="Path_1400" data-name="Path 1400" d="M318.652,221.775l0-.05c0,.01,0,.02,0,.03Z" transform="translate(-286.723 -211.825)" fill="#fff"/>
    <path id="Path_1401" data-name="Path 1401" d="M296.408,213.6h0l0,0Z" transform="translate(-279.52 -209.193)" fill="#fff"/>
    <path id="Path_1402" data-name="Path 1402" d="M303.7,215.18a9.227,9.227,0,0,0-1.611-3.85,8.131,8.131,0,0,0-3.267-2.556,6.172,6.172,0,0,0-1.517-.45,9.709,9.709,0,0,0-1.614-.12c-.128,0-.258,0-.387,0a6.956,6.956,0,0,0-2.505.533,9.427,9.427,0,0,0-2.231,1.337,9.992,9.992,0,0,0-1.8,1.766.567.567,0,0,1-.1.1.479.479,0,0,1-.04.03.39.39,0,0,1-.054.032.426.426,0,0,1-.089.035.474.474,0,0,1-.133.018.483.483,0,0,1-.151-.024.5.5,0,0,1-.207-.133c-.043-.045-.866-.824-1.308-1.258a8.943,8.943,0,0,0-2.112-1.557,7.8,7.8,0,0,0-2.465-.807,9.176,9.176,0,0,0-1.385-.109,7.449,7.449,0,0,0-2.82.536,8.083,8.083,0,0,0-2.5,1.636,7.879,7.879,0,0,0-1.569,2.056,9.554,9.554,0,0,0-.88,2.447,5.372,5.372,0,0,0-.105.936c-.014.332-.014.681-.03,1.04,0,.107-.007.213-.007.32a12.46,12.46,0,0,0,.669,3.611c.126.414.291.893.455,1.361l.569.011.59,0c.9.007,1.828.015,2.747.025.4-.945.813-1.9,1.212-2.818l.089-.208a2.157,2.157,0,0,1,.116-.225c.008-.014.016-.027.023-.041a2.364,2.364,0,0,1,2.171-1.335,2.457,2.457,0,0,1,2.122,1.189c.228-.978.461-1.981.693-2.968.052-.221.11-.435.166-.643.075-.275.145-.534.2-.789a2.413,2.413,0,0,1,2.4-1.879,2.794,2.794,0,0,1,.483.046,2.193,2.193,0,0,1,.7.25,2.441,2.441,0,0,1,.267.166,2.283,2.283,0,0,1,.867,1.3c.333,1.213.655,2.4.957,3.581.371,1.456.735,2.937,1.089,4.38h.531c.4,0,.819,0,1.235-.005a3.794,3.794,0,0,1,1.661-.937,4.28,4.28,0,0,1,1.061-.138,3.516,3.516,0,0,1,2.63,1.131,3.673,3.673,0,0,1,.924,2.844,3.513,3.513,0,0,1-3.29,3.187c-.109.007-.218.011-.323.011a3.658,3.658,0,0,1-2.7-1.118h-.577c-.728,0-1.467,0-2.183-.008l-.887,0a2.275,2.275,0,0,1-1.868-.783,3.136,3.136,0,0,1-.464-.772c-.02.084-.04.168-.06.252-.335,1.422-.68,2.893-1.024,4.338-.066.276-.142.542-.216.8-.059.206-.115.4-.164.592a2.292,2.292,0,0,1-2.3,1.738c-.084,0-.319-.026-.283-.016l.014,0-.014,0a3.058,3.058,0,0,1-2.16-1.871q-.041-.153-.069-.318c-.22-1.29-.456-2.6-.686-3.871-.009-.052-.019-.1-.028-.157a1.908,1.908,0,0,1-.33.035c-.755.013-2.21.027-3.133.041a44.962,44.962,0,0,0,4.418,5.11,35.544,35.544,0,0,0,6.954,4.885.72.72,0,0,0,.147.063.315.315,0,0,0,.095.015.307.307,0,0,0,.086-.012.616.616,0,0,0,.128-.054,34.555,34.555,0,0,0,4.363-2.761,31.8,31.8,0,0,0,5.322-4.947,25.426,25.426,0,0,0,3.535-5.365,18.823,18.823,0,0,0,1.454-3.6c.216-.861.385-1.748.571-2.642.024-.107.03-.263.047-.455v-1.242c-.037-.347-.055-.666-.109-.945" transform="translate(-271.878 -207.436)" fill="#fff"/>
    <path id="Path_1403" data-name="Path 1403" d="M288.014,245.295l.014,0-.014,0" transform="translate(-276.801 -219.457)" fill="#323e48"/>
    <path id="Path_1404" data-name="Path 1404" d="M273.309,222.727l.514.01c-.243-.7-.555-1.554-.762-2.235a12.343,12.343,0,0,1-.662-3.575c0-.1,0-.21.007-.316.016-.356.016-.7.03-1.029a5.332,5.332,0,0,1,.1-.926,9.463,9.463,0,0,1,.871-2.422,7.8,7.8,0,0,1,1.553-2.034,7.987,7.987,0,0,1,2.477-1.619,7.364,7.364,0,0,1,2.791-.53,9.085,9.085,0,0,1,1.371.108,7.732,7.732,0,0,1,2.439.8,8.839,8.839,0,0,1,2.089,1.541c.437.429.883.838,1.325,1.257l.333-.351-.312-.371-.034.031c-.008.009-.018.018-.036.04a.518.518,0,0,0-.041.058.543.543,0,0,0-.036.072.484.484,0,0,0,0,.357.486.486,0,0,0,.3.282.494.494,0,0,0,.149.024.5.5,0,0,0,.22-.053.477.477,0,0,0,.053-.032.381.381,0,0,0,.04-.03.574.574,0,0,0,.1-.1l0,0,0,0a9.851,9.851,0,0,1,1.781-1.748,9.326,9.326,0,0,1,2.207-1.323,6.9,6.9,0,0,1,2.48-.528c.128,0,.256,0,.383,0a9.589,9.589,0,0,1,1.6.12,6.1,6.1,0,0,1,1.5.446,8.045,8.045,0,0,1,3.234,2.53,9.136,9.136,0,0,1,1.594,3.81c.055.283.072.609.11.965l0-.054v1.273l0-.049c-.02.2-.025.368-.049.48-.185.885-.352,1.762-.565,2.615a18.629,18.629,0,0,1-1.44,3.565,25.155,25.155,0,0,1-3.5,5.309,31.448,31.448,0,0,1-5.267,4.9,34.261,34.261,0,0,1-4.318,2.733.645.645,0,0,1-.128.053.3.3,0,0,1-.085.012.308.308,0,0,1-.094-.015.709.709,0,0,1-.145-.062,35.168,35.168,0,0,1-6.883-4.835,53.591,53.591,0,0,1-5.1-6.027l-.513,0-.519.028a.542.542,0,0,0,.009.087,1.429,1.429,0,0,0,.132.259,30.988,30.988,0,0,0,5.346,6.369,36.159,36.159,0,0,0,7.071,4.967,1.722,1.722,0,0,0,.333.14,1.315,1.315,0,0,0,.366.053,1.289,1.289,0,0,0,.344-.048,1.614,1.614,0,0,0,.322-.131,35.213,35.213,0,0,0,4.44-2.81,32.424,32.424,0,0,0,5.428-5.047,26.128,26.128,0,0,0,3.632-5.513,19.509,19.509,0,0,0,1.508-3.753c.222-.889.391-1.78.573-2.653a5.387,5.387,0,0,0,.065-.579l0-.024v-1.325l0-.027c-.036-.313-.051-.663-.122-1.039a10.108,10.108,0,0,0-1.768-4.208,9.023,9.023,0,0,0-3.613-2.833,7.053,7.053,0,0,0-1.737-.517,10.526,10.526,0,0,0-1.757-.133q-.2,0-.408.005a7.87,7.87,0,0,0-2.824.6,10.3,10.3,0,0,0-2.437,1.457,10.845,10.845,0,0,0-1.953,1.922l.294.224-.243-.279a.341.341,0,0,0-.051.054l.294.224-.243-.279.265.3-.234-.327a.265.265,0,0,0-.031.024l.265.3-.234-.327.267.373-.229-.4a.348.348,0,0,0-.039.025l.267.373-.229-.4.237.414-.187-.44a.464.464,0,0,0-.051.026l.237.414-.187-.44.189.444-.131-.465c-.027.008-.044.015-.058.02l.189.444-.131-.465.131.466v-.483a.491.491,0,0,0-.131.018l.131.466v0l.129-.466a.466.466,0,0,0-.129-.018v.483l.129-.466-.129.467.264-.406a.476.476,0,0,0-.135-.06l-.129.467.264-.406-.264.406.439-.2a.487.487,0,0,0-.175-.2l-.264.406.439-.2-.439.2h.484a.486.486,0,0,0-.045-.2l-.439.2h0l.45.178a.479.479,0,0,0,.034-.178h-.483l.45.178-.448-.178.391.282a.482.482,0,0,0,.057-.1l-.448-.178.391.282-.383-.276.342.325a.484.484,0,0,0,.041-.049l-.383-.276.342.325-.308-.293.285.315.022-.022-.308-.293.285.315-.2-.218.189.225.008-.007-.2-.218.189.225.249-.685-.228-.037c-.45-.425-.891-.832-1.314-1.246a9.834,9.834,0,0,0-2.318-1.707,8.725,8.725,0,0,0-2.743-.9,10.059,10.059,0,0,0-1.517-.118,8.316,8.316,0,0,0-3.154.6,8.945,8.945,0,0,0-2.776,1.811,8.755,8.755,0,0,0-1.745,2.285,10.39,10.39,0,0,0-.962,2.668,6.257,6.257,0,0,0-.126,1.094c-.015.356-.015.7-.029,1.026q-.008.181-.008.359a13.252,13.252,0,0,0,.7,3.856c.22.724.416,1.268.652,1.95Z" transform="translate(-271.431 -207.083)" fill="#0072b2"/>
  </g>
</svg>
