<svg xmlns="http://www.w3.org/2000/svg" width="30.807rem" height="34.354rem" viewBox="0 0 30.807 34.354">
  <g id="Human_Watt_Icon" data-name="Human Watt Icon" transform="translate(0 0)">
    <path id="Path_1418" data-name="Path 1418" d="M843.912,216.2a6.917,6.917,0,0,1,6.886,6.2,6.961,6.961,0,0,1-1.227,4.72,15.628,15.628,0,0,0-2.79,7.607.4.4,0,0,1-.389.377h-4.943a.409.409,0,0,1-.412-.343,16.481,16.481,0,0,0-2.843-7.723A6.927,6.927,0,0,1,843.91,216.2Z" transform="translate(-828.43 -208.192)" fill="#fff"/>
    <path id="Path_1419" data-name="Path 1419" d="M842.066,248.2h6.415a.633.633,0,1,0,0-1.266h-6.415a.633.633,0,1,0,0,1.266" transform="translate(-829.87 -218.146)" fill="#0072b2"/>
    <path id="Path_1420" data-name="Path 1420" d="M848.481,249.647h-6.415a.633.633,0,1,0,0,1.266h6.415a.633.633,0,1,0,0-1.266" transform="translate(-829.87 -219.024)" fill="#0072b2"/>
    <path id="Path_1421" data-name="Path 1421" d="M848,252.359H843.41a.643.643,0,0,0-.642.642,1.256,1.256,0,0,0,1.254,1.254h3.368A1.256,1.256,0,0,0,848.645,253a.643.643,0,0,0-.642-.642" transform="translate(-830.303 -219.902)" fill="#0072b2"/>
    <path id="Path_1422" data-name="Path 1422" d="M848.924,216.855a8.128,8.128,0,0,0-4.784-2.461,8.186,8.186,0,0,0-9.126,8.128,8.139,8.139,0,0,0,1.427,4.62,15.457,15.457,0,0,1,2.63,7.132,1.669,1.669,0,0,0,1.662,1.481h4.943a1.65,1.65,0,0,0,1.641-1.521,14.381,14.381,0,0,1,2.564-7,7.919,7.919,0,0,0-.957-10.383M843.2,215.6a6.917,6.917,0,0,1,6.886,6.2,6.961,6.961,0,0,1-1.227,4.72,15.628,15.628,0,0,0-2.79,7.607.4.4,0,0,1-.389.377h-4.943a.409.409,0,0,1-.412-.343,16.482,16.482,0,0,0-2.843-7.723A6.927,6.927,0,0,1,843.2,215.6Z" transform="translate(-827.792 -207.59)" fill="#0072b2"/>
    <path id="Path_1423" data-name="Path 1423" d="M830.407,216.6l-3.695-2.17a.668.668,0,0,0-.915.238.67.67,0,0,0,.238.917l3.694,2.168a.669.669,0,1,0,.678-1.153" transform="translate(-824.777 -207.59)" fill="#333f48"/>
    <path id="Path_1424" data-name="Path 1424" d="M829.172,228.8l-4.252.523a.669.669,0,0,0,.08,1.333.692.692,0,0,0,.083-.005l4.252-.524a.659.659,0,0,0,.445-.25.669.669,0,0,0-.608-1.077" transform="translate(-824.333 -212.273)" fill="#333f48"/>
    <path id="Path_1425" data-name="Path 1425" d="M839.494,209.317a.669.669,0,0,0,1.278-.4l-1.27-4.091a.669.669,0,0,0-1.278.4Z" transform="translate(-828.821 -204.358)" fill="#333f48"/>
    <path id="Path_1426" data-name="Path 1426" d="M861.749,217.847a.659.659,0,0,0,.338-.093l3.694-2.168a.669.669,0,1,0-.677-1.154l-3.693,2.169a.669.669,0,0,0-.239.915.672.672,0,0,0,.577.331" transform="translate(-836.232 -207.59)" fill="#333f48"/>
    <path id="Path_1427" data-name="Path 1427" d="M867.074,229.578a.664.664,0,0,0-.444-.251l-4.253-.523a.669.669,0,0,0-.607,1.077.66.66,0,0,0,.444.251l4.252.523a.691.691,0,0,0,.083.005.67.67,0,0,0,.525-1.083" transform="translate(-836.41 -212.273)" fill="#333f48"/>
    <path id="Path_1428" data-name="Path 1428" d="M852.647,209.757a.668.668,0,0,0,.838-.441l1.27-4.091a.669.669,0,0,0-1.278-.4l-1.27,4.091a.67.67,0,0,0,.44.838" transform="translate(-833.349 -204.358)" fill="#333f48"/>
  </g>
</svg>
