<svg id="Logout_Icon" data-name="Logout Icon" xmlns="http://www.w3.org/2000/svg" xmlns:xlink="http://www.w3.org/1999/xlink" width="17.489rem" height="25rem" viewBox="0 0 17.489 25">
  <defs>
    <clipPath id="clip-path">
      <rect id="Rectangle_729" data-name="Rectangle 729" width="17.489rem" height="25rem" fill="#333f48"/>
    </clipPath>
  </defs>
  <g id="Group_563" data-name="Group 563" clip-path="url(#clip-path)">
    <path id="Path_1765" data-name="Path 1765" d="M4.155,271.424h0Z" transform="translate(-3.723 -246.965)" fill="#333f48"/>
    <path id="Path_1766" data-name="Path 1766" d="M9.167,275.7h0Z" transform="translate(-8.214 -250.858)" fill="#333f48"/>
    <path id="Path_1767" data-name="Path 1767" d="M140.858,1.731h0Z" transform="translate(-126.226 -1.575)" fill="#333f48"/>
    <path id="Path_1768" data-name="Path 1768" d="M14.909,16.623a.635.635,0,0,0-.675.586v6.127a.606.606,0,0,1-.143.4h0a.331.331,0,0,1-.1.078.131.131,0,0,1-.06.015H1.655a.132.132,0,0,1-.061-.015.4.4,0,0,1-.155-.151h0a.632.632,0,0,1-.089-.327V1.667h0v0a.6.6,0,0,1,.143-.4h0a.333.333,0,0,1,.1-.078.131.131,0,0,1,.06-.015H13.93a.13.13,0,0,1,.061.015.4.4,0,0,1,.155.151h0a.632.632,0,0,1,.089.327h0V7.791a.682.682,0,0,0,1.35,0V1.667h0A1.673,1.673,0,0,0,15.153.542h0A1.645,1.645,0,0,0,13.933,0H1.652A1.646,1.646,0,0,0,.247.788h0A1.678,1.678,0,0,0,0,1.667V23.333H0a1.673,1.673,0,0,0,.431,1.125h0A1.644,1.644,0,0,0,1.644,25h12.29a1.646,1.646,0,0,0,1.4-.788h0a1.677,1.677,0,0,0,.247-.878V17.209a.635.635,0,0,0-.675-.586" fill="#333f48"/>
    <path id="Path_1769" data-name="Path 1769" d="M145.86,6h0Z" transform="translate(-130.708 -5.456)" fill="#333f48"/>
    <path id="Path_1770" data-name="Path 1770" d="M85.839,103.8l.01-.015a.561.561,0,0,0,.039-.067l0,0h0c.007-.015.013-.03.018-.045l0-.01c.006-.016.01-.033.014-.05V103.6a.507.507,0,0,0,0-.226h0a.554.554,0,0,0-.139-.257c-.014-.015-.03-.03-.046-.044l-3.345-2.9a.75.75,0,0,0-.955,0,.533.533,0,0,0,0,.828l2.193,1.9H77.062a.592.592,0,1,0,0,1.171h6.573l-2.284,1.981a.533.533,0,0,0,0,.828.75.75,0,0,0,.955,0l3.437-2.981c.014-.012.026-.024.038-.037l.006-.006a.589.589,0,0,0,.052-.063" transform="translate(-68.452 -90.992)" fill="#333f48"/>
  </g>
</svg>
