<svg id="Profile_Icon" data-name="Profile Icon" xmlns="http://www.w3.org/2000/svg" xmlns:xlink="http://www.w3.org/1999/xlink" width="27.28rem" height="26rem" viewBox="0 0 27.28 26">
  <defs>
    <clipPath id="clip-path">
      <rect id="Rectangle_728" data-name="Rectangle 728" width="27.28rem" height="26rem" fill="#333f48"/>
    </clipPath>
  </defs>
  <g id="Group_562" data-name="Group 562" clip-path="url(#clip-path)">
    <path id="Path_1762" data-name="Path 1762" d="M15.424,111.589h0Zm-8.866.211h0m-.124.033a7.863,7.863,0,0,0,4.261,1.246A8.742,8.742,0,0,0,11.866,113a7.988,7.988,0,0,0,3.181-1.159q.532.14,1.024.32a1.994,1.994,0,0,0-.841.5c-.263.261-.539.537-.869.868a1.906,1.906,0,0,0-.251,2.431l.13.2q-.061.139-.117.281l-.2.041a1.92,1.92,0,0,0-1.574,1.923v.212q0,.5,0,.991a2.078,2.078,0,0,0,.017.264c-.56.019-1.123.037-1.679.049-.349.007-.708.011-1.067.011-1.159,0-2.356-.037-3.66-.113-1.569-.092-3.151-.246-4.713-.459.008-.09.015-.18.023-.27.1-1.134.216-1.99.366-2.778a8.831,8.831,0,0,1,.607-2.084c.033-.071.081-.156.126-.238a.682.682,0,0,1,.171-.2,10.163,10.163,0,0,1,3.891-1.96m8.433-1.261a.238.238,0,0,0-.126.04,6.837,6.837,0,0,1-3.035,1.2,7.517,7.517,0,0,1-1.01.07,6.677,6.677,0,0,1-3.71-1.117.842.842,0,0,0-.475-.158,1.034,1.034,0,0,0-.26.037,11.457,11.457,0,0,0-4.463,2.223,1.868,1.868,0,0,0-.456.539c-.058.1-.116.208-.166.315a9.924,9.924,0,0,0-.7,2.365c-.183.957-.295,1.924-.383,2.894-.031.341-.056.683-.082,1.025a.346.346,0,0,0,.335.428q2.765.412,5.555.575c1.242.072,2.486.115,3.73.115q.546,0,1.092-.011c1.309-.027,2.617-.085,3.925-.13.172-.006.344-.021.528-.032-.038-.125-.076-.23-.1-.338a.124.124,0,0,0-.114-.105q-.4-.077-.808-.163a.716.716,0,0,1-.6-.738q0-.6,0-1.2a.719.719,0,0,1,.617-.754c.266-.054.531-.11.8-.161a.114.114,0,0,0,.1-.092,5.568,5.568,0,0,1,.522-1.256.1.1,0,0,0-.006-.128q-.237-.35-.467-.7a.719.719,0,0,1,.1-.939q.431-.433.864-.863a.733.733,0,0,1,.52-.233.782.782,0,0,1,.426.136c.234.151.463.308.7.458a.156.156,0,0,0,.078.02.1.1,0,0,0,.045-.009,6.4,6.4,0,0,1,1.266-.527.148.148,0,0,0,.084-.092c.046-.195.079-.392.124-.587a.118.118,0,0,0-.058-.144c-.286-.189-.563-.391-.855-.569a11.548,11.548,0,0,0-3.5-1.388.124.124,0,0,0-.029,0" transform="translate(0 -99.58)" fill="#333f48"/>
    <path id="Path_1763" data-name="Path 1763" d="M59.122,0V1.193h.048a4.231,4.231,0,0,1,3,1.281A4.125,4.125,0,0,1,63.353,5.43a4.192,4.192,0,0,1-4.227,4.163h-.053a4.11,4.11,0,0,1-2.926-1.268,4.224,4.224,0,0,1-1.19-3,4.206,4.206,0,0,1,4.165-4.127Zm0,0a5.393,5.393,0,0,0-.063,10.786h.067A5.393,5.393,0,0,0,59.184,0h-.063" transform="translate(-48.419)" fill="#333f48"/>
    <path id="Path_1764" data-name="Path 1764" d="M148.525,129.5h0Zm.239.393h.055c.049.241.1.487.145.728a.818.818,0,0,0,.656.672,4.5,4.5,0,0,1,1.5.624.811.811,0,0,0,.446.136.821.821,0,0,0,.464-.148c.208-.14.416-.278.633-.421l.264.264c-.135.2-.272.41-.409.612a.825.825,0,0,0-.014.948,4.489,4.489,0,0,1,.616,1.49.813.813,0,0,0,.657.643c.245.047.5.1.74.147v.374c-.24.049-.484.1-.724.144a.827.827,0,0,0-.676.66,4.395,4.395,0,0,1-.6,1.462.847.847,0,0,0,.014.977c.134.2.269.4.4.6l-.264.264c-.2-.135-.412-.273-.618-.412a.846.846,0,0,0-.479-.154.834.834,0,0,0-.459.141,4.512,4.512,0,0,1-1.5.62.807.807,0,0,0-.638.649c-.049.249-.1.5-.15.747h-.373c-.049-.243-.1-.489-.146-.731a.811.811,0,0,0-.646-.667,4.477,4.477,0,0,1-1.49-.615.846.846,0,0,0-.464-.143.836.836,0,0,0-.475.151c-.2.139-.415.278-.622.415l-.264-.264c.138-.209.278-.419.417-.625a.81.81,0,0,0,.011-.929,4.5,4.5,0,0,1-.62-1.5.814.814,0,0,0-.656-.642c-.248-.049-.495-.1-.742-.149v-.373c.244-.05.493-.1.737-.147a.811.811,0,0,0,.663-.65,4.514,4.514,0,0,1,.618-1.491.82.82,0,0,0-.009-.928c-.14-.207-.28-.418-.417-.626l.263-.263c.211.14.427.283.64.425a.8.8,0,0,0,.9.009,4.561,4.561,0,0,1,1.517-.63.806.806,0,0,0,.636-.649c.049-.249.1-.5.149-.746h.319m-.146,9.83h0a3.946,3.946,0,1,0-2.775-6.743,3.9,3.9,0,0,0-1.164,2.794,3.952,3.952,0,0,0,3.936,3.949m-3.729-8.527h0m8.105.066h0m-10.247,3.926h0m6.016-5.992h-.7c-.166,0-.193.022-.225.182-.076.376-.153.751-.226,1.127a.112.112,0,0,1-.1.1,5.236,5.236,0,0,0-1.747.726.118.118,0,0,1-.064.023.127.127,0,0,1-.07-.027q-.49-.328-.984-.652a.227.227,0,0,0-.119-.048.192.192,0,0,0-.129.075l-.828.828c-.106.106-.11.147-.026.273.212.32.422.64.637.957a.124.124,0,0,1,0,.162,5.186,5.186,0,0,0-.713,1.72.124.124,0,0,1-.114.115c-.376.072-.752.15-1.127.227-.149.031-.175.063-.175.211q0,.575,0,1.15c0,.159.023.188.177.219.376.076.751.154,1.127.227a.119.119,0,0,1,.11.107,5.176,5.176,0,0,0,.717,1.729.124.124,0,0,1,0,.162c-.216.321-.429.644-.642.966-.075.114-.069.161.027.257l.821.82c.059.059.1.088.141.088a.278.278,0,0,0,.14-.062c.317-.21.635-.418.949-.631a.152.152,0,0,1,.085-.032.161.161,0,0,1,.086.031,5.151,5.151,0,0,0,1.72.711.125.125,0,0,1,.11.119c.073.376.15.752.227,1.127.029.142.061.167.206.168h1.15c.165,0,.193-.023.225-.182.076-.376.153-.751.227-1.127a.113.113,0,0,1,.1-.1,5.182,5.182,0,0,0,1.729-.715.149.149,0,0,1,.081-.029.161.161,0,0,1,.089.035c.315.213.632.421.95.63a1.487,1.487,0,0,0,.144.073,1.08,1.08,0,0,0,.121-.09q.412-.409.821-.82c.112-.112.118-.148.031-.28-.205-.312-.41-.624-.62-.932a.157.157,0,0,1-.006-.205,5.071,5.071,0,0,0,.7-1.692.138.138,0,0,1,.128-.126c.376-.072.752-.15,1.127-.226.133-.027.162-.063.162-.2q0-.575,0-1.15c0-.171-.021-.2-.188-.231-.372-.076-.744-.153-1.117-.224a.117.117,0,0,1-.108-.108,5.161,5.161,0,0,0-.712-1.72.137.137,0,0,1,.005-.179c.213-.314.422-.632.631-.949.081-.123.077-.163-.025-.264l-.82-.821c-.059-.059-.1-.087-.14-.087a.26.26,0,0,0-.132.057c-.323.213-.646.426-.967.641a.136.136,0,0,1-.075.029.126.126,0,0,1-.068-.024,5.173,5.173,0,0,0-1.728-.719.131.131,0,0,1-.12-.121c-.071-.376-.15-.752-.226-1.127-.029-.142-.062-.167-.206-.167h-.451m-.142,9.83h0a3.251,3.251,0,1,1,.042-6.5h0a3.251,3.251,0,0,1-.043,6.5" transform="translate(-127.931 -116.35)" fill="#333f48"/>
  </g>
</svg>
