<svg xmlns="http://www.w3.org/2000/svg" width="16rem" height="16rem" viewBox="0 0 16 16">
  <g id="Remember_Me" data-name="Remember Me" transform="translate(-125.6 -387)">
    <g id="Remember_Me-2" data-name="Remember Me" transform="translate(125.6 387)">
      <g id="Rectangle_216" data-name="Rectangle 216" fill="#84bd00" stroke="#84bd00" stroke-width="2">
        <rect width="16rem" height="16rem" stroke="none"/>
        <rect x="1" y="1" width="14rem" height="14rem" fill="none"/>
      </g>
      <path id="Icon_awesome-check" data-name="Icon awesome-check" d="M3.873,12.472.167,8.962a.52.52,0,0,1,0-.764l.806-.764a.593.593,0,0,1,.806,0L4.276,9.8,9.623,4.735a.593.593,0,0,1,.806,0l.806.764a.52.52,0,0,1,0,.764L4.679,12.472A.593.593,0,0,1,3.873,12.472Z" transform="translate(2.299 -0.604)" fill="#fff"/>
    </g>
  </g>
</svg>
