<svg id="Reps_Icon" data-name="Reps Icon" xmlns="http://www.w3.org/2000/svg" xmlns:xlink="http://www.w3.org/1999/xlink" width="29.903rem" height="35.136rem" viewBox="0 0 29.903 35.136">
  <defs>
    <clipPath id="clip-path">
      <rect id="Rectangle_714" data-name="Rectangle 714" width="29.903rem" height="35.136rem" fill="none"/>
    </clipPath>
  </defs>
  <g id="Group_542" data-name="Group 542" transform="translate(0 0)" clip-path="url(#clip-path)">
    <path id="Path_1704" data-name="Path 1704" d="M4.409,26.52a1.134,1.134,0,0,1-.937-.493,15.668,15.668,0,0,1-1.726-3.3A14.338,14.338,0,0,1,12.509,3.75a15.021,15.021,0,0,1,1.628-.2l.461-.04V1.7A.82.82,0,0,1,15.831.99L22.438,4.8a.822.822,0,0,1,0,1.424l-6.607,3.811A.821.821,0,0,1,14.6,9.326V7.486a9.931,9.931,0,0,0-7.976,4.625c-2.468,3.855-2.384,7.85.249,11.872a1.059,1.059,0,0,1-.356,1.5l-1.538.888a1.145,1.145,0,0,1-.569.152" transform="translate(-0.297 -0.296)" fill="#fff"/>
    <path id="Path_1705" data-name="Path 1705" d="M15.123,1.166a.241.241,0,0,1,.119.032L21.85,5.011a.239.239,0,0,1,0,.414L15.243,9.236a.235.235,0,0,1-.119.032.238.238,0,0,1-.239-.238V6.57A10.621,10.621,0,0,0,5.836,11.5c-2.7,4.222-2.423,8.42.251,12.506a.476.476,0,0,1-.16.673l-1.537.888a.557.557,0,0,1-.278.074.549.549,0,0,1-.455-.239A15.018,15.018,0,0,1,2,22.236,13.755,13.755,0,0,1,12.322,4.026c.748-.145,1.519-.172,2.28-.252.084-.009.168-.011.282-.018V1.4a.238.238,0,0,1,.239-.238m0-1.166a1.406,1.406,0,0,0-1.405,1.4V2.683a14.921,14.921,0,0,0-1.617.2A14.92,14.92,0,0,0,.9,22.634,15.982,15.982,0,0,0,2.694,26.06a1.719,1.719,0,0,0,2.28.516l1.537-.888a1.642,1.642,0,0,0,.552-2.321C4.532,19.5,4.452,15.824,6.818,12.128a9.127,9.127,0,0,1,6.9-4.291V9.03a1.4,1.4,0,0,0,2.107,1.216l6.607-3.812a1.405,1.405,0,0,0,0-2.433L15.825.188a1.409,1.409,0,0,0-.7-.188" transform="translate(0 0)" fill="#0073b1"/>
    <path id="Path_1706" data-name="Path 1706" d="M18.342,39.067a.81.81,0,0,1-.4-.109l-6.651-3.835a.809.809,0,0,1,0-1.4l6.639-3.83a.808.808,0,0,1,1.213.7v1.792a10.152,10.152,0,0,0,8.11-4.68,10.352,10.352,0,0,0-.209-11.653,1.157,1.157,0,0,1-.183-.912A1.143,1.143,0,0,1,27.4,14.4l1.476-.854A1.147,1.147,0,0,1,30.4,13.9a13.682,13.682,0,0,1,1.924,12.149c-1.956,6.226-6.387,9.708-13.177,10.359v1.851a.81.81,0,0,1-.809.809" transform="translate(-3.669 -4.514)" fill="#fff"/>
    <path id="Path_1707" data-name="Path 1707" d="M29.153,13.675a.564.564,0,0,1,.47.252,13.138,13.138,0,0,1,1.853,11.65c-2,6.368-6.6,9.518-13.2,10v2.387a.226.226,0,0,1-.339.195l-6.65-3.835a.226.226,0,0,1,0-.391l6.639-3.83a.229.229,0,0,1,.113-.03.226.226,0,0,1,.226.225V32.7A10.967,10.967,0,0,0,27.222,15.42.564.564,0,0,1,27.4,14.6l1.476-.854a.559.559,0,0,1,.281-.076m0-1.166a1.725,1.725,0,0,0-.865.233l-1.476.854a1.724,1.724,0,0,0-.82,1.12,1.743,1.743,0,0,0,.275,1.373,9.766,9.766,0,0,1,.2,10.992,9.524,9.524,0,0,1-7.043,4.36V30.295a1.392,1.392,0,0,0-2.088-1.205l-3,1.733L10.7,32.92a1.392,1.392,0,0,0,0,2.411l3.823,2.2,2.828,1.631a1.391,1.391,0,0,0,2.087-1.205V36.634c6.747-.8,11.168-4.4,13.15-10.708a14.237,14.237,0,0,0-1.994-12.645,1.726,1.726,0,0,0-1.441-.772" transform="translate(-3.373 -4.217)" fill="#0073b1"/>
  </g>
</svg>
