<svg id="Results_Icon" data-name="Results Icon" xmlns="http://www.w3.org/2000/svg" xmlns:xlink="http://www.w3.org/1999/xlink" width="20.332rem" height="26rem" viewBox="0 0 20.332 26">
  <defs>
    <clipPath id="clip-path">
      <rect id="Rectangle_725" data-name="Rectangle 725" width="20.332rem" height="26rem" fill="#333f48"/>
    </clipPath>
  </defs>
  <g id="Group_559" data-name="Group 559" clip-path="url(#clip-path)">
    <path id="Path_1746" data-name="Path 1746" d="M76.166,54.369l.922.922a.621.621,0,0,0,.879,0l2.166-2.166a.622.622,0,1,0-.879-.879l-1.726,1.726-.483-.483a.622.622,0,0,0-.879.879Z" transform="translate(-68.112 -46.671)" fill="#333f48"/>
    <path id="Path_1747" data-name="Path 1747" d="M58.977,33.226H59.6a2.8,2.8,0,1,1,.82,1.98,2.789,2.789,0,0,1-.82-1.98H58.355a4.044,4.044,0,1,0,1.184-2.859,4.034,4.034,0,0,0-1.184,2.859Z" transform="translate(-52.309 -26.159)" fill="#333f48"/>
    <path id="Path_1748" data-name="Path 1748" d="M20.332,18.031V1.866A1.868,1.868,0,0,0,18.467,0H1.865A1.868,1.868,0,0,0,0,1.866v22.27A1.868,1.868,0,0,0,1.865,26H12.338a.622.622,0,1,0,0-1.243H1.865a.625.625,0,0,1-.622-.621V1.866a.625.625,0,0,1,.622-.622h16.6a.625.625,0,0,1,.622.622V18.031a.622.622,0,0,0,1.243,0Z" transform="translate(0 -0.001)" fill="#333f48"/>
    <path id="Path_1749" data-name="Path 1749" d="M114.17,176.205l.44.44,7.325-7.325a.622.622,0,0,0-.439-1.061H114.17a.622.622,0,0,0-.622.622v7.326a.622.622,0,0,0,1.061.44l-.44-.44h.622v-6.7h5.2l-6.264,6.264.44.44h0Z" transform="translate(-101.785 -150.827)" fill="#333f48"/>
    <path id="Path_1750" data-name="Path 1750" d="M32.58,127.566H44.9a.622.622,0,1,0,0-1.243H32.58a.622.622,0,1,0,0,1.243" transform="translate(-28.647 -113.236)" fill="#333f48"/>
    <path id="Path_1751" data-name="Path 1751" d="M32.58,155.824H38.3a.622.622,0,1,0,0-1.243H32.58a.622.622,0,1,0,0,1.243" transform="translate(-28.647 -138.567)" fill="#333f48"/>
    <path id="Path_1752" data-name="Path 1752" d="M32.58,184.469H36.6a.622.622,0,1,0,0-1.243H32.58a.622.622,0,1,0,0,1.243" transform="translate(-28.647 -164.244)" fill="#333f48"/>
  </g>
</svg>
