<svg xmlns="http://www.w3.org/2000/svg" width="12.387rem" height="26.931rem" viewBox="0 0 12.387 26.931">
  <g id="Group_633" data-name="Group 633" transform="translate(0.125 0.125)">
    <path id="Path_1815" data-name="Path 1815" d="M538.664,160.963h0Z" transform="translate(-527.246 -157.328)" fill="#333f48" stroke="#313f48" stroke-width="0.25"/>
    <path id="Path_1816" data-name="Path 1816" d="M139.715,1.451h0Z" transform="translate(-136.754 -1.418)" fill="#333f48" stroke="#313f48" stroke-width="0.25"/>
    <path id="Path_1817" data-name="Path 1817" d="M436.019,3.444h0Z" transform="translate(-426.777 -3.366)" fill="#333f48" stroke="#313f48" stroke-width="0.25"/>
    <path id="Path_1818" data-name="Path 1818" d="M10.772,16.129a6.045,6.045,0,0,0-3.319-2.213v-.285h.27a.309.309,0,0,0,.288-.214L11.418,3.63a.346.346,0,0,0,.019-.114.342.342,0,0,0-.055-.187L9.3.136h0A.32.32,0,0,0,9.242.073.175.175,0,0,0,9.223.058l0,0A.29.29,0,0,0,9.176.028h0A.248.248,0,0,0,9.148.016.292.292,0,0,0,9.1,0h0l-.03,0a.151.151,0,0,0-.029,0H3.094a.155.155,0,0,0-.027,0h0l-.03,0h0A.289.289,0,0,0,2.99.016a.249.249,0,0,0-.028.012.287.287,0,0,0-.043.028A.185.185,0,0,0,2.9.073a.319.319,0,0,0-.054.062h0L.756,3.329A.343.343,0,0,0,.7,3.516.347.347,0,0,0,.72,3.63l3.406,9.787a.309.309,0,0,0,.288.214h.27v.285a6.045,6.045,0,0,0-3.319,2.213,6.769,6.769,0,0,0,.414,8.651,5.87,5.87,0,0,0,4.289,1.9,5.87,5.87,0,0,0,4.289-1.9,6.769,6.769,0,0,0,.414-8.651m-4.7,9.892a5.275,5.275,0,0,1-3.855-1.7,6.073,6.073,0,0,1,0-8.214,5.212,5.212,0,0,1,7.709,0,6.073,6.073,0,0,1,0,8.214,5.275,5.275,0,0,1-3.855,1.7M5.3,13.631H6.838V13.8a5.679,5.679,0,0,0-1.539,0ZM7.718,3.189h-3.3L3.536.65H8.6Zm-.228.655L6.069,7.929,4.647,3.844ZM3.01,1.024l.023.067L3.917,3.63v0l1.86,5.345,0,0v0l1.389,3.991H4.628L1.352,3.563Zm7.775,2.539-3.118,8.96L6.4,8.871,8.218,3.636l0-.006.907-2.606ZM9.221.057h0Zm-6.3,0Z" transform="translate(0 0.005)" fill="#333f48" stroke="#313f48" stroke-width="0.25"/>
    <path id="Path_1819" data-name="Path 1819" d="M136.613,3.444h0Z" transform="translate(-133.717 -3.366)" fill="#333f48" stroke="#313f48" stroke-width="0.25"/>
    <path id="Path_1820" data-name="Path 1820" d="M61.723,663.658a4.721,4.721,0,0,0-6.982,0,5.5,5.5,0,0,0,0,7.439,4.72,4.72,0,0,0,6.982,0,5.5,5.5,0,0,0,0-7.439m-3.491,8.327a4.182,4.182,0,0,1-3.056-1.351,4.815,4.815,0,0,1,0-6.513,4.133,4.133,0,0,1,6.113,0,4.815,4.815,0,0,1,0,6.513,4.182,4.182,0,0,1-3.056,1.351" transform="translate(-52.163 -647.162)" fill="#333f48" stroke="#313f48" stroke-width="0.25"/>
    <path id="Path_1821" data-name="Path 1821" d="M435.519,859.783Z" transform="translate(-426.287 -840.367)" fill="#333f48" stroke="#313f48" stroke-width="0.25"/>
    <path id="Path_1822" data-name="Path 1822" d="M430.619,879.617h0Z" transform="translate(-421.491 -859.753)" fill="#333f48" stroke="#313f48" stroke-width="0.25"/>
    <path id="Path_1823" data-name="Path 1823" d="M142.5,753.827a.439.439,0,0,0-.125-.2.4.4,0,0,0-.206-.1h0l-1.51-.234a.372.372,0,0,1-.278-.215l-.675-1.458a.428.428,0,0,0-.151-.178.391.391,0,0,0-.433,0,.427.427,0,0,0-.151.178l-.675,1.458a.372.372,0,0,1-.278.215l-1.51.234a.4.4,0,0,0-.206.1.44.44,0,0,0-.126.2h0a.466.466,0,0,0-.02.136.449.449,0,0,0,.124.312l1.093,1.135a.407.407,0,0,1,.112.282.422.422,0,0,1-.005.067l-.258,1.6a.47.47,0,0,0-.006.075.444.444,0,0,0,.169.353h0a.387.387,0,0,0,.432.033l1.351-.757a.35.35,0,0,1,.344,0l1.351.757a.387.387,0,0,0,.432-.033.444.444,0,0,0,.169-.353.469.469,0,0,0-.006-.075l-.258-1.6a.417.417,0,0,1-.005-.067.407.407,0,0,1,.112-.282l1.093-1.135a.449.449,0,0,0,.124-.312.465.465,0,0,0-.02-.136m-1.626,1.114a1.083,1.083,0,0,0-.3.751,1.117,1.117,0,0,0,.014.177l.188,1.167-.984-.551a.931.931,0,0,0-.916,0l-.984.551.188-1.167a1.115,1.115,0,0,0,.014-.177,1.084,1.084,0,0,0-.3-.751l-.8-.826,1.1-.17a.991.991,0,0,0,.741-.574l.492-1.062.492,1.062a.991.991,0,0,0,.741.574l1.1.17-.8.826.081.089Z" transform="translate(-133.265 -734.411)" fill="#333f48" stroke="#313f48" stroke-width="0.25"/>
  </g>
</svg>
