<svg xmlns="http://www.w3.org/2000/svg" width="31.095rem" height="31.095rem" viewBox="0 0 31.095 31.095">
  <g id="Speed_Icon" data-name="Speed Icon" transform="translate(0.125 0.125)">
    <path id="Path_1405" data-name="Path 1405" d="M542.1,18.654A14.917,14.917,0,1,1,557.02,33.572,14.918,14.918,0,0,1,542.1,18.654" transform="translate(-541.556 -3.198)" fill="#fff"/>
    <path id="Path_1406" data-name="Path 1406" d="M541.716,18.363h.421a14.582,14.582,0,1,1,4.271,10.31,14.535,14.535,0,0,1-4.271-10.31h-.841A15.422,15.422,0,1,0,556.718,2.94a15.423,15.423,0,0,0-15.423,15.423Z" transform="translate(-541.295 -2.94)" fill="#0083be"/>
    <path id="Path_1407" data-name="Path 1407" d="M541.716,18.363h.421a14.582,14.582,0,1,1,4.271,10.31,14.535,14.535,0,0,1-4.271-10.31h-.841A15.422,15.422,0,1,0,556.718,2.94a15.423,15.423,0,0,0-15.423,15.423Z" transform="translate(-541.295 -2.94)" fill="#0072b2" stroke="#0072b2" stroke-miterlimit="10" stroke-width="0.25"/>
    <path id="Path_1408" data-name="Path 1408" d="M542.875,31.279h3.057a.474.474,0,1,0,0-.947h-3.057a.474.474,0,0,0,0,.947" transform="translate(-541.653 -11.81)" fill="#0072b2"/>
    <path id="Path_1409" data-name="Path 1409" d="M564.35,6.913V3.856a.474.474,0,1,0-.947,0V6.913a.474.474,0,0,0,.947,0" transform="translate(-548.454 -3.083)" fill="#0072b2"/>
    <path id="Path_1410" data-name="Path 1410" d="M549.973,13.085l-2.162-2.162a.473.473,0,0,0-.669.669l2.162,2.162a.473.473,0,1,0,.669-.669" transform="translate(-543.143 -5.48)" fill="#0072b2"/>
    <path id="Path_1411" data-name="Path 1411" d="M556.716,8.229l-1.348-2.744a.474.474,0,1,0-.85.418l1.348,2.744a.474.474,0,0,0,.85-.418" transform="translate(-545.561 -3.678)" fill="#0072b2"/>
    <path id="Path_1412" data-name="Path 1412" d="M545.684,21.369l-3.028-.421a.474.474,0,0,0-.13.939l3.029.42a.473.473,0,1,0,.13-.938" transform="translate(-541.561 -8.77)" fill="#0072b2"/>
    <path id="Path_1413" data-name="Path 1413" d="M583.408,31.279h-3.057a.474.474,0,1,1,0-.947h3.057a.474.474,0,0,1,0,.947" transform="translate(-553.789 -11.81)" fill="#0072b2"/>
    <path id="Path_1414" data-name="Path 1414" d="M576.741,13.085l2.161-2.162a.474.474,0,1,1,.671.669l-2.162,2.162a.473.473,0,0,1-.669-.669" transform="translate(-552.729 -5.48)" fill="#0072b2"/>
    <path id="Path_1415" data-name="Path 1415" d="M570.387,8.229l1.348-2.744a.474.474,0,1,1,.85.418l-1.348,2.744a.474.474,0,0,1-.85-.418" transform="translate(-550.7 -3.678)" fill="#0072b2"/>
    <path id="Path_1416" data-name="Path 1416" d="M580.614,21.369l3.027-.421a.474.474,0,0,1,.13.939l-3.029.42a.473.473,0,1,1-.129-.938" transform="translate(-553.895 -8.77)" fill="#0072b2"/>
    <path id="Path_1417" data-name="Path 1417" d="M573.547,5.868a.58.58,0,0,0-.04-.209.764.764,0,0,0-.15-.24,1.094,1.094,0,0,0-.29-.224,1,1,0,0,0-.175-.072.747.747,0,0,0-.214-.032.584.584,0,0,0-.237.048.538.538,0,0,0-.213.167h0l-9.835,12.441a2.108,2.108,0,0,0-1.07.668,2.07,2.07,0,0,0-.5,1.352,2.151,2.151,0,0,0,.111.676h0a2.111,2.111,0,0,0,1.46,1.371h0a2.2,2.2,0,0,0,.55.07A2.094,2.094,0,0,0,565.03,20l.125-.2c1.219-1.976,8.308-13.645,8.308-13.646h0a.552.552,0,0,0,.084-.287" transform="translate(-547.617 -3.636)" fill="#333f48"/>
  </g>
</svg>
