<svg xmlns="http://www.w3.org/2000/svg" width="42.099rem" height="33.604rem" viewBox="0 0 42.099 33.604">
  <g id="Watt_Icon" data-name="Watt Icon" transform="translate(0 0)">
    <path id="Path_1380" data-name="Path 1380" d="M553.343,223.568h5.42a.683.683,0,0,1,.541.289.565.565,0,0,1,.072.578l-4.842,11.888,13.949-16.8h-5.745a.6.6,0,0,1-.542-.325.687.687,0,0,1,0-.65l6-10.335h-6.468Z" transform="translate(-539.57 -205.98)" fill="#323e48" fill-rule="evenodd"/>
    <path id="Path_1381" data-name="Path 1381" d="M550.21,238.516a1.06,1.06,0,0,1-.325-.072.67.67,0,0,1-.253-.8l6-14.815h-5.564a.6.6,0,0,1-.542-.325.621.621,0,0,1,0-.614l9.069-16.657a.6.6,0,0,1,.542-.325h7.95a.6.6,0,0,1,.542.325.686.686,0,0,1,0,.65l-6,10.37h6a.643.643,0,0,1,.578.362.678.678,0,0,1-.072.686l-17.417,20.958a.759.759,0,0,1-.506.253m.939-16.947h5.42a.684.684,0,0,1,.542.289.565.565,0,0,1,.072.578l-4.842,11.888,13.948-16.8h-5.745A.6.6,0,0,1,560,217.2a.687.687,0,0,1,0-.65l6-10.335h-6.468Z" transform="translate(-538.307 -204.912)" fill="#0072b2" fill-rule="evenodd"/>
    <path id="Path_1382" data-name="Path 1382" d="M584.867,221.644a.6.6,0,0,1-.329-.54.643.643,0,0,1,.594-.667l5.969-.259a.632.632,0,0,1,.073,1.262l-5.985.291a1.061,1.061,0,0,1-.322-.087" transform="translate(-549.671 -209.855)" fill="#333f48" fill-rule="evenodd"/>
    <path id="Path_1383" data-name="Path 1383" d="M586,233.318a.4.4,0,0,1-.143-.116l-4.417-4.027a.618.618,0,1,1,.841-.905L586.7,232.3a.6.6,0,0,1,.033.873.61.61,0,0,1-.73.148" transform="translate(-548.603 -212.42)" fill="#333f48" fill-rule="evenodd"/>
    <path id="Path_1384" data-name="Path 1384" d="M581.846,212.05a.4.4,0,0,1-.143-.116.6.6,0,0,1-.032-.874l4.027-4.417a.618.618,0,1,1,.905.842l-4.026,4.417a.554.554,0,0,1-.73.148" transform="translate(-548.688 -205.406)" fill="#333f48" fill-rule="evenodd"/>
    <path id="Path_1385" data-name="Path 1385" d="M539.788,229.98a1.073,1.073,0,0,1-.327.064l-5.936-.68a.632.632,0,1,1,.162-1.254l5.935.68a.619.619,0,0,1,.165,1.189" transform="translate(-532.974 -212.423)" fill="#333f48" fill-rule="evenodd"/>
    <path id="Path_1386" data-name="Path 1386" d="M538.429,241.744a.62.62,0,0,1-.751-.185.629.629,0,0,1,.094-.869l4.69-3.705a.618.618,0,0,1,.776.963l-4.69,3.705Z" transform="translate(-534.455 -215.256)" fill="#333f48" fill-rule="evenodd"/>
    <path id="Path_1387" data-name="Path 1387" d="M544.4,220.679a.62.62,0,0,1-.751-.185l-3.705-4.69a.629.629,0,0,1,.094-.869.6.6,0,0,1,.869.093l3.705,4.69a.63.63,0,0,1-.093.87Z" transform="translate(-535.187 -208.111)" fill="#333f48" fill-rule="evenodd"/>
    <path id="Path_1388" data-name="Path 1388" d="M551.962,222.176h5.42a.684.684,0,0,1,.542.289.565.565,0,0,1,.072.578l-4.842,11.888,13.948-16.8h-5.745a.6.6,0,0,1-.542-.325.687.687,0,0,1,0-.65l6-10.335h-6.468Z" transform="translate(-539.123 -205.53)" fill="#fff" fill-rule="evenodd"/>
  </g>
</svg>
