<svg id="Weight_Graph_Icon" data-name="Weight Graph Icon" xmlns="http://www.w3.org/2000/svg" xmlns:xlink="http://www.w3.org/1999/xlink" width="22.778rem" height="22rem" viewBox="0 0 22.778 22">
  <defs>
    <clipPath id="clip-path">
      <rect id="Rectangle_726" data-name="Rectangle 726" width="22.778rem" height="22rem" fill="#333f48"/>
    </clipPath>
  </defs>
  <g id="Group_560" data-name="Group 560" clip-path="url(#clip-path)">
    <path id="Path_1753" data-name="Path 1753" d="M186.536,9.96h.589V4.69q0-1.144,0-2.287,0-.459,0-.917a.642.642,0,0,1,.026-.195.254.254,0,0,1,.031-.066.085.085,0,0,1,.034-.031.2.2,0,0,1,.088-.016h.011c.212.006.422.008.63.008.336,0,.668,0,.993,0h.045a.176.176,0,0,1,.072.012l.02.013a.186.186,0,0,1,.042.073.614.614,0,0,1,.031.208q0,4.086,0,8.172,0,2.406,0,4.812,0,.958,0,1.916v.045q0,.326,0,.652,0,.671,0,1.339a.622.622,0,0,1-.026.184.291.291,0,0,1-.033.071.1.1,0,0,1-.034.035.123.123,0,0,1-.06.012q-.51.009-1.021.009-.352,0-.7,0a.08.08,0,0,1-.037-.008.15.15,0,0,1-.061-.067.459.459,0,0,1-.047-.217V18.43h0l-.586.006.586.024c0-.02,0-.029,0-.03l-.586.006.586.024-.588-.024.575.123a.575.575,0,0,0,.013-.1l-.588-.024.575.123.013-.061v-.062q0-2.376,0-4.754,0-.716,0-1.432,0-1.145,0-2.29V9.372h-.592V9.96h0v.589h0V9.96h-.589q0,1.145,0,2.29,0,.716,0,1.431,0,2.376,0,4.754h.589l-.576-.123a.567.567,0,0,0-.013.115c0,.009,0,.014,0,.015h0l.582-.007h-.582v.007l.582-.007h-.582a1.567,1.567,0,0,0,.338,1,1.291,1.291,0,0,0,.423.339,1.258,1.258,0,0,0,.547.131q.358,0,.717,0,.521,0,1.043-.009a1.31,1.31,0,0,0,.542-.125,1.252,1.252,0,0,0,.339-.238,1.38,1.38,0,0,0,.324-.51,1.765,1.765,0,0,0,.1-.6q0-.675,0-1.347,0-.326,0-.652v-.045q0-.958,0-1.916,0-2.406,0-4.812,0-4.086,0-8.172a1.813,1.813,0,0,0-.08-.547,1.439,1.439,0,0,0-.178-.372A1.263,1.263,0,0,0,189.6.149,1.335,1.335,0,0,0,188.984,0h-.046c-.337,0-.668,0-.993,0-.2,0-.4,0-.6-.007H187.3a1.383,1.383,0,0,0-.549.109,1.257,1.257,0,0,0-.356.23,1.348,1.348,0,0,0-.346.522,1.775,1.775,0,0,0-.106.623q0,.459,0,.917,0,1.144,0,2.287v5.858h.588Z" transform="translate(-167.7 0)" fill="#333f48"/>
    <path id="Path_1754" data-name="Path 1754" d="M132.459,42.343h.589v-5.2q0-.485,0-.968,0-.327,0-.654a.388.388,0,0,1,.07-.249.108.108,0,0,1,.036-.029.1.1,0,0,1,.045-.009h.133q.78,0,1.56,0a.184.184,0,0,1,.076.013.084.084,0,0,1,.024.016.2.2,0,0,1,.045.077.6.6,0,0,1,.031.207q0,1.166,0,2.332v2.832q0,2.509,0,5.019,0,.947,0,1.894,0,.761,0,1.521a.571.571,0,0,1-.024.172.2.2,0,0,1-.057.1l-.019.011a.12.12,0,0,1-.039.006q-.493.011-.986.011-.377,0-.754-.007a.09.09,0,0,1-.041-.008.079.079,0,0,1-.021-.017.248.248,0,0,1-.051-.09.6.6,0,0,1-.031-.2v-.005q0-.616,0-1.23t0-1.208q0-.1,0-.2,0-1.3,0-2.608,0-.291,0-.581,0-.478,0-.955v-.589h-.592v.589h0v.589h0v-.589h-.589q0,.478,0,.955,0,.29,0,.581,0,1.3,0,2.608,0,.1,0,.2,0,.6,0,1.208t0,1.222v.012a1.792,1.792,0,0,0,.078.532,1.406,1.406,0,0,0,.435.67,1.243,1.243,0,0,0,.363.211,1.277,1.277,0,0,0,.422.079q.388.007.776.007.506,0,1.012-.011a1.266,1.266,0,0,0,1.109-.691,1.652,1.652,0,0,0,.182-.772q0-.762,0-1.524,0-.947,0-1.894,0-2.51,0-5.019V37.888q0-1.166,0-2.333a1.8,1.8,0,0,0-.082-.55,1.451,1.451,0,0,0-.18-.373,1.279,1.279,0,0,0-.468-.419,1.348,1.348,0,0,0-.618-.148q-.784,0-1.567,0H133.2a1.28,1.28,0,0,0-.548.122,1.316,1.316,0,0,0-.585.555,1.618,1.618,0,0,0-.2.785q0,.329,0,.657,0,.485,0,.968v5.784h.589Z" transform="translate(-118.929 -30.719)" fill="#333f48"/>
    <path id="Path_1755" data-name="Path 1755" d="M78.369,74.859h.589q0-1.29,0-2.58t0-2.558v-.008l-.5.007h.5v-.007l-.5.007h.5a.541.541,0,0,1,.027-.188.138.138,0,0,1,.042-.063.374.374,0,0,1,.064-.045h0l-.074-.175.005.186a.192.192,0,0,0,.068-.011l-.074-.175.005.186q.48-.013.961-.012.448,0,.9.01h.005a.146.146,0,0,1,.051.06.4.4,0,0,1,.042.186v.114q0,1.77,0,3.542,0,.244,0,.489,0,2.993,0,5.985c0,.024,0,.047,0,.07a1.691,1.691,0,0,1-.008.2.282.282,0,0,1-.021.086.313.313,0,0,1-.044.073.071.071,0,0,1-.031.024.262.262,0,0,1-.094.014q-.436,0-.87,0-.413,0-.824-.006a.061.061,0,0,1-.028-.006A.15.15,0,0,1,79,80.2a.406.406,0,0,1-.045-.2q0-.408,0-.816,0-1.6,0-3.207,0-.21,0-.419,0-.354,0-.706V74.27h-.593v.589h0v.589h0v-.589h-.589q0,.353,0,.706,0,.209,0,.418,0,1.6,0,3.209,0,.409,0,.818a1.531,1.531,0,0,0,.34.981,1.291,1.291,0,0,0,.415.331,1.239,1.239,0,0,0,.537.13q.421.006.841.006.441,0,.88,0a1.5,1.5,0,0,0,.349-.043,1.26,1.26,0,0,0,.514-.261,1.41,1.41,0,0,0,.362-.486,1.455,1.455,0,0,0,.123-.44,2.77,2.77,0,0,0,.017-.345c0-.024,0-.048,0-.07q0-2.993,0-5.985,0-.244,0-.488,0-1.77,0-3.542v-.114a1.528,1.528,0,0,0-.319-.952,1.272,1.272,0,0,0-.4-.334,1.186,1.186,0,0,0-.532-.139q-.461-.01-.923-.01-.5,0-.992.013a.941.941,0,0,0-.249.041,1.206,1.206,0,0,0-.275.125,1.605,1.605,0,0,0-.2.147,1.321,1.321,0,0,0-.383.546,1.7,1.7,0,0,0-.1.6v.01l.589-.008H77.78q0,1.279,0,2.557t0,2.58v.589h.589Z" transform="translate(-70.147 -61.547)" fill="#333f48"/>
    <path id="Path_1756" data-name="Path 1756" d="M24.274,103.732l.589.011a.3.3,0,0,1,.065-.191.125.125,0,0,1,.037-.03.039.039,0,0,1,.018,0l.891,0,.878,0,.018,0a.157.157,0,0,1,.06.063.365.365,0,0,1,.047.175c0,.016,0,.059,0,.116,0,.174,0,.495,0,.9,0,1.2-.005,3.128-.006,4.08v.061q0,.9.007,1.8h0v.007a.6.6,0,0,1-.025.181.224.224,0,0,1-.064.109l-.023.013a.132.132,0,0,1-.043.006q-.408.006-.817.006-.448,0-.9-.006a.12.12,0,0,1-.052-.011.139.139,0,0,1-.06-.063.42.42,0,0,1-.045-.2c0-.612,0-1.583,0-2.344V107.26c0-.055,0-.621,0-1.292,0-.43,0-.9,0-1.312s0-.752.006-.914l-.589-.011-.589-.011c0,.179-.005.522-.006.933s0,.884,0,1.315c0,.672,0,1.24,0,1.292V108.4c0,.761,0,1.732,0,2.345a1.533,1.533,0,0,0,.346,1A1.284,1.284,0,0,0,25,112.2q.456.006.913.006.417,0,.834-.006a1.292,1.292,0,0,0,.552-.129,1.308,1.308,0,0,0,.58-.571,1.679,1.679,0,0,0,.184-.786V110.7h0q-.008-.892-.007-1.786v-.061c0-.949.006-2.875.006-4.08,0-.268,0-.5,0-.679,0-.09,0-.166,0-.227s0-.106,0-.141a1.5,1.5,0,0,0-.362-.948,1.3,1.3,0,0,0-.409-.314,1.218,1.218,0,0,0-.525-.122l-.883,0-.9,0a1.218,1.218,0,0,0-.522.121,1.327,1.327,0,0,0-.558.515,1.5,1.5,0,0,0-.211.744Z" transform="translate(-21.354 -92.295)" fill="#333f48"/>
    <path id="Path_1757" data-name="Path 1757" d="M0,7.673V27.8a.589.589,0,0,0,.589.589h21.6a.589.589,0,1,0,0-1.177H1.178V7.673A.589.589,0,0,0,0,7.673Z" transform="translate(0 -6.389)" fill="#333f48"/>
  </g>
</svg>
