<svg id="Weight_Icon" data-name="Weight Icon" xmlns="http://www.w3.org/2000/svg" xmlns:xlink="http://www.w3.org/1999/xlink" width="38.341rem" height="26.92rem" viewBox="0 0 38.341 26.92">
  <defs>
    <clipPath id="clip-path">
      <rect id="Rectangle_716" data-name="Rectangle 716" width="38.341rem" height="26.92rem" fill="none"/>
    </clipPath>
  </defs>
  <rect id="Rectangle_715" data-name="Rectangle 715" width="13.816" height="4.568" transform="translate(12.263 11.176)" fill="#0073b1"/>
  <g id="Group_544" data-name="Group 544" transform="translate(0 0)">
    <g id="Group_543" data-name="Group 543" clip-path="url(#clip-path)">
      <path id="Path_1708" data-name="Path 1708" d="M54.08,17.367H52.992v3.444H54.08a1.438,1.438,0,0,0,1.436-1.436V18.8a1.438,1.438,0,0,0-1.436-1.436" transform="translate(-17.175 -5.629)" fill="#0073b1"/>
      <path id="Path_1709" data-name="Path 1709" d="M13.475,0h-.236A1.861,1.861,0,0,0,11.38,1.859v23.2a1.861,1.861,0,0,0,1.859,1.859h.236a1.861,1.861,0,0,0,1.859-1.859V1.859A1.861,1.861,0,0,0,13.475,0m.94,25.061a.941.941,0,0,1-.94.94h-.236a.941.941,0,0,1-.941-.94V1.859a.941.941,0,0,1,.941-.94h.236a.941.941,0,0,1,.94.94Z" transform="translate(-3.688 0)" fill="#243138"/>
      <path id="Path_1710" data-name="Path 1710" d="M41.592,0h-.236A1.861,1.861,0,0,0,39.5,1.859v23.2a1.861,1.861,0,0,0,1.859,1.859h.236a1.861,1.861,0,0,0,1.859-1.859V1.859A1.861,1.861,0,0,0,41.592,0m.94,25.061a.941.941,0,0,1-.94.94h-.236a.941.941,0,0,1-.941-.94V1.859a.941.941,0,0,1,.941-.94h.236a.941.941,0,0,1,.94.94Z" transform="translate(-12.801 0)" fill="#243138"/>
      <path id="Path_1711" data-name="Path 1711" d="M6.744,3.013H6.508A1.861,1.861,0,0,0,4.649,4.872V24A1.861,1.861,0,0,0,6.508,25.86h.236A1.861,1.861,0,0,0,8.6,24V4.872A1.861,1.861,0,0,0,6.744,3.013M7.684,24a.941.941,0,0,1-.94.94H6.508A.941.941,0,0,1,5.567,24V4.872a.941.941,0,0,1,.941-.94h.236a.941.941,0,0,1,.94.94Z" transform="translate(-1.507 -0.976)" fill="#243138"/>
      <path id="Path_1712" data-name="Path 1712" d="M48.324,3.013h-.236a1.861,1.861,0,0,0-1.859,1.859V24a1.861,1.861,0,0,0,1.859,1.859h.236A1.861,1.861,0,0,0,50.182,24V4.872a1.861,1.861,0,0,0-1.859-1.859M49.264,24a.941.941,0,0,1-.94.94h-.236a.942.942,0,0,1-.941-.94V4.872a.942.942,0,0,1,.941-.94h.236a.941.941,0,0,1,.94.94Z" transform="translate(-14.983 -0.976)" fill="#243138"/>
      <path id="Path_1713" data-name="Path 1713" d="M1.436,17.367A1.438,1.438,0,0,0,0,18.8v.572a1.438,1.438,0,0,0,1.436,1.436H2.524V17.367Z" transform="translate(0 -5.629)" fill="#0073b1"/>
    </g>
  </g>
</svg>
