<svg id="Workout_Builder_Icon" data-name="Workout Builder Icon" xmlns="http://www.w3.org/2000/svg" xmlns:xlink="http://www.w3.org/1999/xlink" width="21.211rem" height="21rem" viewBox="0 0 21.211 21">
  <defs>
    <clipPath id="clip-path">
      <rect id="Rectangle_727" data-name="Rectangle 727" width="21.211rem" height="21rem" fill="#333f48"/>
    </clipPath>
  </defs>
  <g id="Group_561" data-name="Group 561" clip-path="url(#clip-path)">
    <path id="Path_1758" data-name="Path 1758" d="M12.626,26.663H.659A.659.659,0,0,0,0,27.322V44.074a.659.659,0,0,0,.659.659H17.494a.659.659,0,0,0,.659-.659V32.314a.659.659,0,1,0-1.318,0v11.1H1.318V27.981H12.626a.659.659,0,0,0,0-1.318Z" transform="translate(0 -23.733)" fill="#333f48"/>
    <path id="Path_1759" data-name="Path 1759" d="M160.351,3.348l.392-.385-1.874-1.909-.392.385.408.368c.1-.111.191-.216.278-.308a1.687,1.687,0,0,1,.358-.306.7.7,0,0,1,.162-.07.677.677,0,0,1,.188-.025h.007a1.008,1.008,0,0,1,.253.032.649.649,0,0,1,.263.136.827.827,0,0,1,.2.28.864.864,0,0,1,.092.371.678.678,0,0,1-.045.241.961.961,0,0,1-.153.261,2.868,2.868,0,0,1-.233.251c-.091.089-.193.185-.3.293l.392.385.392-.385-.392.385.392.385c.085-.086.182-.178.286-.28a3.957,3.957,0,0,0,.321-.349,2.062,2.062,0,0,0,.323-.56,1.78,1.78,0,0,0,.115-.627,1.961,1.961,0,0,0-.2-.84,1.86,1.86,0,0,0-.694-.8,1.779,1.779,0,0,0-.483-.208A2.111,2.111,0,0,0,159.886,0h-.016a1.76,1.76,0,0,0-.636.116,2.144,2.144,0,0,0-.7.456c-.184.173-.332.35-.468.5a.55.55,0,0,0,.016.753l1.874,1.909a.549.549,0,0,0,.784,0Z" transform="translate(-140.575 0)" fill="#333f48"/>
    <path id="Path_1760" data-name="Path 1760" d="M72.713,8.719,62.191,19.241a.549.549,0,0,0,0,.777l1.857,1.857a.549.549,0,0,0,.777,0L75.346,11.353a.549.549,0,0,0-.777-.777L64.436,20.709l-1.08-1.08L73.49,9.5a.549.549,0,0,0-.777-.777Z" transform="translate(-55.215 -7.618)" fill="#333f48"/>
    <path id="Path_1761" data-name="Path 1761" d="M53.344,105.117l-.389.389,1.321,1.321-1.095.448.682-1.978-.519-.179-.389.389.389-.389-.519-.179-1.078,3.126a.549.549,0,0,0,.728.687l2.982-1.221a.549.549,0,0,0,.18-.9l-1.9-1.9a.549.549,0,0,0-.908.209Z" transform="translate(-46.034 -93.078)" fill="#333f48"/>
  </g>
</svg>
