<svg id="Workout_Log_Icon" data-name="Workout Log Icon" xmlns="http://www.w3.org/2000/svg" xmlns:xlink="http://www.w3.org/1999/xlink" width="18.843rem" height="26rem" viewBox="0 0 18.843 26">
  <defs>
    <clipPath id="clip-path">
      <rect id="Rectangle_734" data-name="Rectangle 734" width="18.843rem" height="26rem" fill="#333f48"/>
    </clipPath>
  </defs>
  <g id="Group_565" data-name="Group 565" clip-path="url(#clip-path)">
    <path id="Path_1771" data-name="Path 1771" d="M18.842,9.64V5.675c0-.019,0-.041,0-.064s0-.032,0-.049a1.856,1.856,0,0,0-.286-.955,1.933,1.933,0,0,0-.759-.66,1.8,1.8,0,0,0-.835-.189H14.935q0-.284,0-.566,0-.175,0-.351h0v0a1.11,1.11,0,0,0-.086-.434,1.217,1.217,0,0,0-.243-.366,1.4,1.4,0,0,0-.521-.342,1.614,1.614,0,0,0-.587-.1H11.906A2.047,2.047,0,0,0,11.56.961a2.44,2.44,0,0,0-.912-.7A2.918,2.918,0,0,0,9.435,0a3.15,3.15,0,0,0-.37.022A2.752,2.752,0,0,0,7.682.571a2.118,2.118,0,0,0-.744,1.023H5.349a1.7,1.7,0,0,0-.411.043,1.458,1.458,0,0,0-.705.4,1.177,1.177,0,0,0-.328.821c0,.022,0,.044,0,.066.005.107.007.215.007.324,0,.165,0,.334,0,.5H1.929a2.49,2.49,0,0,0-.3.013A1.867,1.867,0,0,0,.067,5.1,2.044,2.044,0,0,0,0,5.66H0Q0,12.831,0,20v4.088q0,.054,0,.108a1.837,1.837,0,0,0,1.417,1.746A2.192,2.192,0,0,0,1.936,26h15.05c.077-.006.164-.009.257-.021a1.859,1.859,0,0,0,.982-.45,1.816,1.816,0,0,0,.564-.914,2.158,2.158,0,0,0,.055-.534q0-7.219,0-14.439m-1.2,14.481a.805.805,0,0,1-.018.2.669.669,0,0,1-.64.5H1.973a1.237,1.237,0,0,1-.241-.015.669.669,0,0,1-.375-.224.619.619,0,0,1-.152-.393q0-.059,0-.119V18.7q0-6.509,0-13.017V5.66a.945.945,0,0,1,.019-.235.652.652,0,0,1,.235-.35.643.643,0,0,1,.384-.138H3.907c0,.151,0,.3,0,.447,0,.1,0,.2-.006.3,0,.021,0,.042,0,.063a1.177,1.177,0,0,0,.314.808,1.445,1.445,0,0,0,.676.407,1.669,1.669,0,0,0,.412.059h8.147a1.867,1.867,0,0,0,.487-.058,1.421,1.421,0,0,0,.636-.357,1.237,1.237,0,0,0,.266-.376,1.107,1.107,0,0,0,.1-.455V5.766q0-.171,0-.342,0-.244,0-.488H16.95a.647.647,0,0,1,.265.045.717.717,0,0,1,.306.235.669.669,0,0,1,.116.361c0,.015,0,.032,0,.05s0,.055,0,.086v5q0,6.668,0,13.335c0,.025,0,.049,0,.073M13.731,2.853c0,.017,0,.032,0,.046s0,.045,0,.06v2.7c0,.012,0,.029,0,.052s0,.027,0,.043h0v.006c0,.011,0,.007,0,.012a.121.121,0,0,1-.036.03.341.341,0,0,1-.167.043H5.4a1.49,1.49,0,0,1-.191-.016.179.179,0,0,1-.081-.039.074.074,0,0,1-.019-.018h0v0h0c0-.013,0-.025,0-.037s0-.041,0-.054V2.959c0-.02,0-.044,0-.071s0-.027,0-.041h0v0a.07.07,0,0,1,.02-.019.228.228,0,0,1,.124-.047c.048,0,.1,0,.151,0h1.94a1.171,1.171,0,0,0,.2-.012A.607.607,0,0,0,7.9,2.572a.581.581,0,0,0,.148-.365,1.008,1.008,0,0,1,.034-.234A.88.88,0,0,1,8.3,1.6a1.3,1.3,0,0,1,.516-.325,1.84,1.84,0,0,1,.607-.106,1.8,1.8,0,0,1,.647.123,1.308,1.308,0,0,1,.4.235,1,1,0,0,1,.241.3.835.835,0,0,1,.092.359.608.608,0,0,0,.033.187.572.572,0,0,0,.449.379,1.17,1.17,0,0,0,.212.016h1.941c.052,0,.1,0,.152,0a.23.23,0,0,1,.118.043.089.089,0,0,1,.026.023s0,0,0,.008v0Z" transform="translate(0 0)" fill="#333f48"/>
    <path id="Path_1772" data-name="Path 1772" d="M46.24,91.672a.433.433,0,0,0-.277-.117l-.179,0H34.623a1.156,1.156,0,0,0-.129.006.444.444,0,0,0-.4.437.417.417,0,0,0,0,.063.44.44,0,0,0,.376.378,1.247,1.247,0,0,0,.2.011H45.9a.915.915,0,0,0,.114-.011A.443.443,0,0,0,46.383,92v-.02a.434.434,0,0,0-.143-.3" transform="translate(-30.82 -82.958)" fill="#333f48"/>
    <path id="Path_1773" data-name="Path 1773" d="M38.533,127.638H34.617c-.029,0-.059,0-.089,0a.557.557,0,0,0-.146.03.44.44,0,0,0-.29.41.424.424,0,0,0,0,.053.442.442,0,0,0,.382.39,1.34,1.34,0,0,0,.2.01H45.9a.908.908,0,0,0,.115-.011.442.442,0,0,0,.369-.437v-.025a.442.442,0,0,0-.405-.416c-.042,0-.083,0-.124,0H38.533" transform="translate(-30.815 -115.656)" fill="#333f48"/>
    <path id="Path_1774" data-name="Path 1774" d="M34.941,201.107a1.6,1.6,0,0,0,.177.005H46.226a1.463,1.463,0,0,0,.164,0,.523.523,0,0,0,.145-.034.395.395,0,0,0-.1-.753,1.46,1.46,0,0,0-.218-.01H35.139c-.036,0-.073,0-.109,0a.873.873,0,0,0-.109.009.4.4,0,0,0,.02.785" transform="translate(-31.258 -181.508)" fill="#333f48"/>
    <path id="Path_1775" data-name="Path 1775" d="M46.422,236.408a1.35,1.35,0,0,0-.191-.008H35.152c-.041,0-.082,0-.123,0a.832.832,0,0,0-.135.016.4.4,0,0,0,.052.78,1.77,1.77,0,0,0,.177,0H46.244a1.506,1.506,0,0,0,.191-.007.4.4,0,0,0-.013-.786" transform="translate(-31.26 -214.209)" fill="#333f48"/>
    <path id="Path_1776" data-name="Path 1776" d="M45.991,163.74a1.213,1.213,0,0,0-.17-.008H34.645c-.047,0-.093,0-.139,0a.443.443,0,0,0-.417.439v.011a.445.445,0,0,0,.408.435,1.2,1.2,0,0,0,.134.006H45.8a1.332,1.332,0,0,0,.2-.01.44.44,0,0,0,.377-.437v0a.441.441,0,0,0-.384-.435" transform="translate(-30.812 -148.361)" fill="#333f48"/>
  </g>
</svg>
