<svg id="Workouts_Icon" data-name="Workouts Icon" xmlns="http://www.w3.org/2000/svg" xmlns:xlink="http://www.w3.org/1999/xlink" width="26.35rem" height="33.73rem" viewBox="0 0 26.35 33.73">
  <defs>
    <clipPath id="clip-path">
      <rect id="Rectangle_712" data-name="Rectangle 712" width="26.35rem" height="33.73rem" fill="none" />
    </clipPath>
  </defs>
  <g id="Group_540" data-name="Group 540" transform="translate(0 0)" clip-path="url(#clip-path)">
    <path id="Path_1694" data-name="Path 1694" d="M14.216,12.186l1.2,1.2a.473.473,0,0,0,.668,0L18.9,10.568a.472.472,0,0,0-.668-.668l-2.486,2.486-.867-.867a.472.472,0,0,0-.668.668Z" transform="translate(-3.553 -2.463)" fill="#243138" />
    <path id="Path_1695" data-name="Path 1695" d="M11.369,10.562h.472a3.983,3.983,0,1,1,1.167,2.817,3.974,3.974,0,0,1-1.167-2.817H10.9a4.928,4.928,0,1,0,4.928-4.928A4.928,4.928,0,0,0,10.9,10.562Z" transform="translate(-2.75 -1.422)" fill="#0073b1" />
    <path id="Path_1696" data-name="Path 1696" d="M26.35,23.413V2.366A2.371,2.371,0,0,0,23.984,0H2.366A2.371,2.371,0,0,0,0,2.366v29A2.371,2.371,0,0,0,2.366,33.73H16a.748.748,0,0,0,0-1.5H2.366a.877.877,0,0,1-.871-.872v-29A.876.876,0,0,1,2.366,1.5H23.984a.876.876,0,0,1,.871.871V23.413a.748.748,0,1,0,1.5,0Z" transform="translate(0 0)" fill="#0073b1" />
    <path id="Path_1697" data-name="Path 1697" d="M21.235,40.644l.529.529L31.3,31.634a.748.748,0,0,0-.529-1.276H21.235a.748.748,0,0,0-.748.748v9.538a.747.747,0,0,0,1.276.529l-.529-.529h.748V31.853h6.986l-8.262,8.262.529.529h0Z" transform="translate(-5.17 -7.661)" fill="#0073b1" />
    <path id="Path_1698" data-name="Path 1698" d="M6.64,24.04H22.679a.374.374,0,0,0,0-.748H6.64a.374.374,0,0,0,0,.748" transform="translate(-1.581 -5.878)" fill="#243138" />
    <path id="Path_1699" data-name="Path 1699" d="M6.64,29.138h7.449a.374.374,0,1,0,0-.748H6.64a.374.374,0,0,0,0,.748" transform="translate(-1.581 -7.165)" fill="#243138" />
    <path id="Path_1700" data-name="Path 1700" d="M6.64,34.307h5.24a.374.374,0,0,0,0-.748H6.64a.374.374,0,0,0,0,.748" transform="translate(-1.581 -8.469)" fill="#243138" />
  </g>
</svg>