<svg  xmlns="http://www.w3.org/2000/svg" width="118.97rem" height="118.967rem" viewBox="0 0 118.97 118.967">
  <g id="Avatar_Icon" data-name="Avatar Icon" transform="translate(-595.208 -207.125)">
    <g id="Group_28" data-name="Group 28" transform="translate(595.208 207.125)">
      <path id="Path_458" data-name="Path 458" d="M654.693,207.125a59.483,59.483,0,1,1-59.485,59.482,59.511,59.511,0,0,1,59.485-59.482Z" transform="translate(-595.208 -207.125)" fill="#0074bd" fill-rule="evenodd"/>
    </g>
    <g id="Group_29" data-name="Group 29" transform="translate(616.089 220.875)">
      <path id="Path_459" data-name="Path 459" d="M602.259,286.89A32.266,32.266,0,0,1,630.1,270.951h21.518a32.266,32.266,0,0,1,27.844,15.939,53.767,53.767,0,0,1-77.207,0Zm38.6-75.122a21.521,21.521,0,1,1-21.521,21.521,21.532,21.532,0,0,1,21.521-21.521Z" transform="translate(-602.259 -211.768)" fill="#f26623" fill-rule="evenodd"/>
    </g>
  </g>
</svg>
