<svg id="Competition" xmlns="http://www.w3.org/2000/svg" xmlns:xlink="http://www.w3.org/1999/xlink" width="56" height="56" viewBox="0 0 56 56">
  <defs>
    <clipPath id="clip-path">
      <rect id="Rectangle_830" data-name="Rectangle 830" width="20.79" height="42.893" fill="none" stroke="#fff" stroke-linecap="round" stroke-linejoin="round" stroke-width="1.5"/>
    </clipPath>
  </defs>
  <circle id="Ellipse_15" data-name="Ellipse 15" cx="28" cy="28" r="28" fill="#84bd00"/>
  <g id="Competition_Icon" data-name="Competition Icon" transform="translate(18 7.004)">
    <g id="Group_587" data-name="Group 587" transform="translate(0 -0.004)" clip-path="url(#clip-path)">
      <path id="Path_1815" data-name="Path 1815" d="M538.664,160.963h0Z" transform="translate(-519.107 -155.119)" fill="none" stroke="#fff" stroke-linecap="round" stroke-linejoin="round" stroke-width="1.5"/>
      <path id="Path_1816" data-name="Path 1816" d="M139.715,1.451h0Z" transform="translate(-134.643 -1.398)" fill="none" stroke="#fff" stroke-linecap="round" stroke-linejoin="round" stroke-width="1.5"/>
      <path id="Path_1817" data-name="Path 1817" d="M436.019,3.444h0Z" transform="translate(-420.189 -3.319)" fill="none" stroke="#fff" stroke-linecap="round" stroke-linejoin="round" stroke-width="1.5"/>
      <path id="Path_1818" data-name="Path 1818" d="M18.451,25.933a10.415,10.415,0,0,0-5.685-3.558v-.457h.463a.527.527,0,0,0,.494-.344L19.557,5.839a.526.526,0,0,0-.062-.484L15.922.221h0a.526.526,0,0,0-.092-.1A.3.3,0,0,0,15.8.1l-.006,0a.5.5,0,0,0-.074-.045h0a.44.44,0,0,0-.048-.019.524.524,0,0,0-.078-.022h0A.481.481,0,0,0,15.539,0a.275.275,0,0,0-.049,0H5.3a.282.282,0,0,0-.046,0h0A.484.484,0,0,0,5.2.006h0a.519.519,0,0,0-.079.023.443.443,0,0,0-.049.019A.5.5,0,0,0,5,.093.317.317,0,0,0,4.96.12a.524.524,0,0,0-.092.1h0L1.295,5.355a.526.526,0,0,0-.062.484L7.067,21.574a.526.526,0,0,0,.494.344h.463v.457a10.4,10.4,0,1,0,10.427,3.558m-8.056,15.9A9.353,9.353,0,1,1,17,39.1a9.312,9.312,0,0,1-6.6,2.739M9.077,21.917h2.636v.266a10.358,10.358,0,0,0-2.636,0ZM13.22,5.129H7.57L6.057,1.048h8.677Zm-.39,1.053L10.395,12.75,7.96,6.183ZM5.156,1.65l.04.108L6.709,5.839l0,.005L9.9,14.437l0,.008v0l2.379,6.416H7.927L2.316,5.731ZM18.474,5.731l-5.34,14.4-2.177-5.87,3.12-8.416,0-.01L15.634,1.65ZM15.794.094h0ZM5,.093Z" transform="translate(0 0.005)" fill="none" stroke="#fff" stroke-linecap="round" stroke-linejoin="round" stroke-width="1.5"/>
      <path id="Path_1819" data-name="Path 1819" d="M136.613,3.444h0Z" transform="translate(-131.653 -3.319)" fill="none" stroke="#fff" stroke-linecap="round" stroke-linejoin="round" stroke-width="1.5"/>
      <path id="Path_1820" data-name="Path 1820" d="M67.732,664.6a8.447,8.447,0,1,0,2.481,5.979,8.435,8.435,0,0,0-2.481-5.979m-5.979,13.386a7.415,7.415,0,1,1,5.235-2.172,7.383,7.383,0,0,1-5.235,2.172" transform="translate(-51.358 -638.076)" fill="none" stroke="#fff" stroke-linecap="round" stroke-linejoin="round" stroke-width="1.5"/>
      <path id="Path_1821" data-name="Path 1821" d="M435.519,859.783h0Z" transform="translate(-419.707 -828.568)" fill="none" stroke="#fff" stroke-linecap="round" stroke-linejoin="round" stroke-width="1.5"/>
      <path id="Path_1822" data-name="Path 1822" d="M430.619,879.617h0Z" transform="translate(-414.985 -847.682)" fill="none" stroke="#fff" stroke-linecap="round" stroke-linejoin="round" stroke-width="1.5"/>
      <path id="Path_1823" data-name="Path 1823" d="M147.02,755.315a.7.7,0,0,0-.567-.478h0l-2.587-.376a.633.633,0,0,1-.477-.346l-1.157-2.344a.7.7,0,0,0-1.26,0l-1.157,2.344a.633.633,0,0,1-.477.346l-2.587.376a.7.7,0,0,0-.567.478h0a.707.707,0,0,0-.035.218.7.7,0,0,0,.212.5l1.872,1.824a.633.633,0,0,1,.182.56L137.975,761a.711.711,0,0,0-.01.12.7.7,0,0,0,.29.567h0a.7.7,0,0,0,.74.053l2.314-1.216a.633.633,0,0,1,.589,0l2.314,1.216a.7.7,0,0,0,1.029-.62.712.712,0,0,0-.01-.12l-.442-2.576a.632.632,0,0,1,.182-.56l1.872-1.824a.7.7,0,0,0,.178-.72m-2.785,1.79a1.686,1.686,0,0,0-.485,1.492l.322,1.876-1.685-.886a1.687,1.687,0,0,0-1.569,0l-1.685.886.322-1.876a1.686,1.686,0,0,0-.485-1.492l-1.363-1.329,1.883-.274a1.686,1.686,0,0,0,1.27-.922l.842-1.707.842,1.707a1.686,1.686,0,0,0,1.27.922l1.883.274-1.363,1.329.139.143Z" transform="translate(-131.208 -724.1)" fill="none" stroke="#fff" stroke-linecap="round" stroke-linejoin="round" stroke-width="1.5"/>
    </g>
  </g>
</svg>
