<svg xmlns="http://www.w3.org/2000/svg" xmlns:xlink="http://www.w3.org/1999/xlink" width="17.05" height="21.955" viewBox="0 0 17.05 21.955">
  <defs>
    <clipPath id="clip-path">
      <rect id="Rectangle_896" data-name="Rectangle 896" width="17.05" height="21.955" transform="translate(0 0)" fill="#97989a"/>
    </clipPath>
  </defs>
  <g id="Delete_Icon" data-name="Delete Icon" clip-path="url(#clip-path)">
    <path id="Path_1840" data-name="Path 1840" d="M659.75,764.473a.434.434,0,0,0,.434-.434v-7.863a.434.434,0,0,0-.868,0v7.863a.434.434,0,0,0,.434.434" transform="translate(-651.124 -746.352)" fill="#97989a"/>
    <path id="Path_1841" data-name="Path 1841" d="M928.749,783.35l.045,0a.434.434,0,0,0,.431-.39l.81-7.863a.434.434,0,1,0-.863-.089l-.81,7.863a.434.434,0,0,0,.387.476" transform="translate(-916.825 -764.996)" fill="#97989a"/>
    <path id="Path_1842" data-name="Path 1842" d="M344.7,782.958a.434.434,0,0,0,.431.39l.045,0a.434.434,0,0,0,.387-.476l-.81-7.863a.434.434,0,1,0-.863.089Z" transform="translate(-339.615 -764.992)" fill="#97989a"/>
    <path id="Path_1843" data-name="Path 1843" d="M15.758,3.468h-3a4.181,4.181,0,0,0-8.238,0H1.292A1.408,1.408,0,0,0,0,4.965a1.408,1.408,0,0,0,1.292,1.5H1.5L2.569,19.57a2.409,2.409,0,0,0,2.406,2.387h7.45a2.409,2.409,0,0,0,2.406-2.39l.928-13.105a1.408,1.408,0,0,0,1.292-1.5,1.408,1.408,0,0,0-1.292-1.5M8.638.871a3.329,3.329,0,0,1,3.235,2.6H5.4A3.329,3.329,0,0,1,8.638.871m5.326,18.65c0,.01,0,.02,0,.031a1.54,1.54,0,0,1-1.538,1.538H4.975a1.54,1.54,0,0,1-1.538-1.538q0-.018,0-.035L2.368,6.463h12.52ZM15.758,5.595H1.292c-.226,0-.424-.294-.424-.63s.2-.63.424-.63H15.758c.226,0,.424.294.424.63s-.2.63-.424.63" transform="translate(0 -0.003)" fill="#97989a"/>
  </g>
</svg>
