<svg id="Group_362" data-name="Group 362" xmlns="http://www.w3.org/2000/svg" xmlns:xlink="http://www.w3.org/1999/xlink" width="41.808" height="47" viewBox="0 0 41.808 47">
  <defs>
    <clipPath id="clip-path">
      <rect id="Rectangle_339" data-name="Rectangle 339" width="41.808" height="47" fill="#313f48"/>
    </clipPath>
  </defs>
  <g id="Group_361" data-name="Group 361" transform="translate(0 0)" clip-path="url(#clip-path)">
    <path id="Path_1253" data-name="Path 1253" d="M37.872,13.053a.579.579,0,0,0,.82,0l1.595-1.594a.581.581,0,0,0,0-.82L35.5,5.852a.579.579,0,0,0-.82,0L33.085,7.447a.58.58,0,0,0,0,.82l1.178,1.178-1.116,1.116A19.841,19.841,0,0,0,22.408,5.9V3.767h2.578a.58.58,0,0,0,.58-.58V.58a.58.58,0,0,0-.58-.58H15.47a.58.58,0,0,0-.58.58V3.187a.58.58,0,0,0,.58.58h2.577V5.9a19.835,19.835,0,0,0-10.763,4.64L6.192,9.445,7.371,8.267a.579.579,0,0,0,0-.82L5.776,5.852a.579.579,0,0,0-.82,0L.17,10.639a.579.579,0,0,0,0,.82l1.595,1.594a.579.579,0,0,0,.82,0l1.178-1.178,1.1,1.1a19.934,19.934,0,1,0,30.7.028l1.132-1.132ZM16.049,1.159h8.357V2.608H16.049ZM2.175,11.823,1.4,11.049,5.366,7.081l.775.775ZM19.207,5.8V3.782h2.042V5.8H21.1c-.3-.013-.6-.023-.9-.023s-.6.01-.9.023ZM4.591,11.064l.791-.79,1.041,1.041q-.4.387-.787.795ZM33.2,38.716a18.39,18.39,0,1,1,5.386-13,18.33,18.33,0,0,1-5.386,13m1.587-26.579c-.254-.273-.517-.538-.785-.8l1.067-1.067.791.79Zm.3-5.056,3.967,3.967-.775.774L34.314,7.857Z" transform="translate(0 0)" fill="#313f48"/>
    <path id="Path_1254" data-name="Path 1254" d="M21.214,12.378A15.548,15.548,0,1,0,36.762,27.926,15.548,15.548,0,0,0,21.214,12.378m10.636,25.5L30.073,36.1a.483.483,0,1,0-.683.683l1.777,1.777a14.509,14.509,0,0,1-9.47,3.921V39.971a.483.483,0,0,0-.967,0v2.512a14.509,14.509,0,0,1-9.47-3.921l1.777-1.778a.483.483,0,1,0-.683-.682l-1.777,1.777a14.506,14.506,0,0,1-3.921-9.47H9.169a.483.483,0,1,0,0-.966H6.656a14.5,14.5,0,0,1,3.921-9.47l1.777,1.778a.483.483,0,0,0,.683-.683L11.261,17.29a14.5,14.5,0,0,1,9.47-3.921v2.512a.483.483,0,0,0,.967,0V13.368a14.5,14.5,0,0,1,9.47,3.921L29.39,19.067a.483.483,0,0,0,.683.683l1.777-1.778a14.5,14.5,0,0,1,3.921,9.47H33.259a.483.483,0,0,0,0,.966h2.512a14.5,14.5,0,0,1-3.921,9.47" transform="translate(-1.013 -2.213)" fill="#313f48"/>
    <path id="Path_1255" data-name="Path 1255" d="M26.07,31.058A2.271,2.271,0,0,0,24.7,27.5V22.271a.483.483,0,0,0-.966,0V27.5a2.279,2.279,0,1,0,1.611,4.2l3.779,3.779a.483.483,0,0,0,.683-.683ZM22.9,29.731a1.314,1.314,0,0,1,1.158-1.3.406.406,0,0,0,.316,0,1.313,1.313,0,1,1-1.474,1.3" transform="translate(-3.922 -3.895)" fill="#313f48"/>
  </g>
</svg>
