<svg id="Error_Device_Manager" data-name="Error Device Manager" xmlns="http://www.w3.org/2000/svg" width="56" height="56" viewBox="0 0 56 56">
  <circle id="Ellipse_12" data-name="Ellipse 12" cx="28" cy="28" r="28" fill="#84bd00"/>
  <g id="Group_121" data-name="Group 121" transform="translate(9.037 12)">
    <g id="Group_119" data-name="Group 119" transform="translate(4.583 21.777)">
      <path id="Path_331" data-name="Path 331" d="M823.841,38.819a.412.412,0,1,0-.442-.38A.412.412,0,0,0,823.841,38.819Z" transform="translate(-797.851 -37.097)" fill="none" stroke="#fff" stroke-linecap="round" stroke-linejoin="round" stroke-width="1.5"/>
      <path id="Path_332" data-name="Path 332" d="M822.877,38.007a.411.411,0,1,0-.443-.381A.416.416,0,0,0,822.877,38.007Z" transform="translate(-797.957 -37.186)" fill="none" stroke="#fff" stroke-linecap="round" stroke-linejoin="round" stroke-width="1.5"/>
      <path id="Path_333" data-name="Path 333" d="M822.2,38.936a.41.41,0,1,0-.443-.378A.409.409,0,0,0,822.2,38.936Z" transform="translate(-798.031 -37.084)" fill="none" stroke="#fff" stroke-linecap="round" stroke-linejoin="round" stroke-width="1.5"/>
      <path id="Path_334" data-name="Path 334" d="M821.234,38.125a.412.412,0,1,0-.443-.382A.415.415,0,0,0,821.234,38.125Z" transform="translate(-798.136 -37.173)" fill="none" stroke="#fff" stroke-linecap="round" stroke-linejoin="round" stroke-width="1.5"/>
      <path id="Path_335" data-name="Path 335" d="M820.552,39.055a.411.411,0,1,0-.441-.381A.412.412,0,0,0,820.552,39.055Z" transform="translate(-798.211 -37.071)" fill="none" stroke="#fff" stroke-linecap="round" stroke-linejoin="round" stroke-width="1.5"/>
      <path id="Path_336" data-name="Path 336" d="M819.588,38.242a.41.41,0,1,0-.442-.379A.41.41,0,0,0,819.588,38.242Z" transform="translate(-798.316 -37.16)" fill="none" stroke="#fff" stroke-linecap="round" stroke-linejoin="round" stroke-width="1.5"/>
      <path id="Path_337" data-name="Path 337" d="M818.909,39.173a.41.41,0,1,0-.442-.382A.411.411,0,0,0,818.909,39.173Z" transform="translate(-798.39 -37.058)" fill="none" stroke="#fff" stroke-linecap="round" stroke-linejoin="round" stroke-width="1.5"/>
      <path id="Path_338" data-name="Path 338" d="M817.945,38.361a.412.412,0,1,0-.443-.381A.413.413,0,0,0,817.945,38.361Z" transform="translate(-798.496 -37.147)" fill="none" stroke="#fff" stroke-linecap="round" stroke-linejoin="round" stroke-width="1.5"/>
      <path id="Path_339" data-name="Path 339" d="M817.264,39.292a.412.412,0,1,0-.443-.382A.412.412,0,0,0,817.264,39.292Z" transform="translate(-798.57 -37.046)" fill="none" stroke="#fff" stroke-linecap="round" stroke-linejoin="round" stroke-width="1.5"/>
      <path id="Path_340" data-name="Path 340" d="M816.3,38.478a.412.412,0,0,0,.384-.439.414.414,0,1,0-.384.439Z" transform="translate(-798.676 -37.135)" fill="none" stroke="#fff" stroke-linecap="round" stroke-linejoin="round" stroke-width="1.5"/>
      <path id="Path_341" data-name="Path 341" d="M815.61,39.4a.41.41,0,1,0-.441-.378A.407.407,0,0,0,815.61,39.4Z" transform="translate(-798.751 -37.033)" fill="none" stroke="#fff" stroke-linecap="round" stroke-linejoin="round" stroke-width="1.5"/>
      <path id="Path_342" data-name="Path 342" d="M814.646,38.591a.412.412,0,1,0-.443-.382A.414.414,0,0,0,814.646,38.591Z" transform="translate(-798.856 -37.122)" fill="none" stroke="#fff" stroke-linecap="round" stroke-linejoin="round" stroke-width="1.5"/>
      <path id="Path_343" data-name="Path 343" d="M813.965,39.522a.412.412,0,1,0-.443-.382A.413.413,0,0,0,813.965,39.522Z" transform="translate(-798.931 -37.02)" fill="none" stroke="#fff" stroke-linecap="round" stroke-linejoin="round" stroke-width="1.5"/>
      <path id="Path_344" data-name="Path 344" d="M813,38.708a.41.41,0,1,0-.442-.378A.411.411,0,0,0,813,38.708Z" transform="translate(-799.036 -37.109)" fill="none" stroke="#fff" stroke-linecap="round" stroke-linejoin="round" stroke-width="1.5"/>
      <path id="Path_345" data-name="Path 345" d="M812.321,39.639a.41.41,0,1,0-.441-.382A.41.41,0,0,0,812.321,39.639Z" transform="translate(-799.111 -37.007)" fill="none" stroke="#fff" stroke-linecap="round" stroke-linejoin="round" stroke-width="1.5"/>
      <path id="Path_346" data-name="Path 346" d="M811.357,38.827a.411.411,0,1,0-.442-.381A.414.414,0,0,0,811.357,38.827Z" transform="translate(-799.216 -37.096)" fill="none" stroke="#fff" stroke-linecap="round" stroke-linejoin="round" stroke-width="1.5"/>
      <path id="Path_347" data-name="Path 347" d="M810.676,39.758a.412.412,0,1,0-.443-.381A.412.412,0,0,0,810.676,39.758Z" transform="translate(-799.291 -36.995)" fill="none" stroke="#fff" stroke-linecap="round" stroke-linejoin="round" stroke-width="1.5"/>
      <path id="Path_348" data-name="Path 348" d="M809.712,38.944a.411.411,0,1,0-.443-.381A.412.412,0,0,0,809.712,38.944Z" transform="translate(-799.396 -37.084)" fill="none" stroke="#fff" stroke-linecap="round" stroke-linejoin="round" stroke-width="1.5"/>
      <path id="Path_349" data-name="Path 349" d="M809.035,39.869a.41.41,0,1,0-.442-.378A.407.407,0,0,0,809.035,39.869Z" transform="translate(-799.47 -36.982)" fill="none" stroke="#fff" stroke-linecap="round" stroke-linejoin="round" stroke-width="1.5"/>
      <path id="Path_350" data-name="Path 350" d="M808.071,39.057a.411.411,0,1,0-.443-.381A.414.414,0,0,0,808.071,39.057Z" transform="translate(-799.575 -37.071)" fill="none" stroke="#fff" stroke-linecap="round" stroke-linejoin="round" stroke-width="1.5"/>
      <path id="Path_351" data-name="Path 351" d="M807.39,39.988a.412.412,0,1,0-.443-.381A.412.412,0,0,0,807.39,39.988Z" transform="translate(-799.65 -36.97)" fill="none" stroke="#fff" stroke-linecap="round" stroke-linejoin="round" stroke-width="1.5"/>
      <path id="Path_352" data-name="Path 352" d="M806.425,39.174a.41.41,0,1,0-.442-.378A.411.411,0,0,0,806.425,39.174Z" transform="translate(-799.755 -37.058)" fill="none" stroke="#fff" stroke-linecap="round" stroke-linejoin="round" stroke-width="1.5"/>
      <path id="Path_353" data-name="Path 353" d="M805.746,40.1a.41.41,0,1,0-.442-.381A.409.409,0,0,0,805.746,40.1Z" transform="translate(-799.829 -36.956)" fill="none" stroke="#fff" stroke-linecap="round" stroke-linejoin="round" stroke-width="1.5"/>
      <path id="Path_354" data-name="Path 354" d="M804.782,39.294a.412.412,0,1,0-.059-.821.412.412,0,1,0,.059.821Z" transform="translate(-799.935 -37.045)" fill="none" stroke="#fff" stroke-linecap="round" stroke-linejoin="round" stroke-width="1.5"/>
      <path id="Path_355" data-name="Path 355" d="M804.1,40.224a.411.411,0,1,0-.443-.381A.412.412,0,0,0,804.1,40.224Z" transform="translate(-800.009 -36.944)" fill="none" stroke="#fff" stroke-linecap="round" stroke-linejoin="round" stroke-width="1.5"/>
      <path id="Path_356" data-name="Path 356" d="M803.136,39.411a.412.412,0,1,0-.442-.382A.413.413,0,0,0,803.136,39.411Z" transform="translate(-800.115 -37.033)" fill="none" stroke="#fff" stroke-linecap="round" stroke-linejoin="round" stroke-width="1.5"/>
      <path id="Path_357" data-name="Path 357" d="M802.447,40.335a.41.41,0,1,0-.442-.378A.409.409,0,0,0,802.447,40.335Z" transform="translate(-800.19 -36.931)" fill="none" stroke="#fff" stroke-linecap="round" stroke-linejoin="round" stroke-width="1.5"/>
      <path id="Path_358" data-name="Path 358" d="M801.5,39.543a.412.412,0,1,0-.442-.382A.412.412,0,0,0,801.5,39.543Z" transform="translate(-800.294 -37.018)" fill="none" stroke="#fff" stroke-linecap="round" stroke-linejoin="round" stroke-width="1.5"/>
      <path id="Path_359" data-name="Path 359" d="M800.812,40.467a.41.41,0,1,0-.442-.378A.407.407,0,0,0,800.812,40.467Z" transform="translate(-800.369 -36.917)" fill="none" stroke="#fff" stroke-linecap="round" stroke-linejoin="round" stroke-width="1.5"/>
    </g>
    <g id="Group_120" data-name="Group 120">
      <path id="Path_360" data-name="Path 360" d="M796.374,45.288H798.5a.134.134,0,0,0,.133-.148c-.132-1.668,1.063-4.766,3.168-4.932l23-1.853a3.43,3.43,0,0,1,3.872,3.368c.1,1.154.1,3.081.094,3.407a.133.133,0,0,0,.134.135h2.814a.4.4,0,0,0,.4-.4c0-.194.074-2.931.05-3.918A31.926,31.926,0,0,0,830.71,31.8a23.814,23.814,0,0,0-4.064-7.569l4.067-4.969a.408.408,0,0,0-.068-.579l-1.039-.947a.6.6,0,0,0-.866.024l-4.944,5.263-9.161.71a.429.429,0,0,0-.3.663,5.981,5.981,0,0,0,.937,1.027,1.737,1.737,0,0,0,1.321.531c1.058,0,2.545-.163,4.056-.225,2.585-.106,3.385-.245,5.075,2.347a12,12,0,0,1,2.4,6.78l-26.767,2.182c-3.369.239-5.091,5.483-5.118,8.115A.136.136,0,0,0,796.374,45.288Z" transform="translate(-796.238 -17.555)" fill="none" stroke="#fff" stroke-linecap="round" stroke-linejoin="round" stroke-width="1.5"/>
      <line id="Line_17" data-name="Line 17" x1="29.575" y2="1.951" transform="translate(2.43 24.539)" fill="none" stroke="#fff" stroke-linecap="round" stroke-linejoin="round" stroke-width="1.5"/>
    </g>
  </g>
</svg>
