<svg id="Group_590" data-name="Group 590" xmlns="http://www.w3.org/2000/svg" xmlns:xlink="http://www.w3.org/1999/xlink" width="39.961" height="38.44" viewBox="0 0 39.961 38.44">
  <defs>
    <clipPath id="clip-path">
      <rect id="Rectangle_834" data-name="Rectangle 834" width="39.961" height="38.44" fill="#84bd00" stroke="rgba(0,0,0,0)" stroke-width="1"/>
    </clipPath>
  </defs>
  <g id="Group_589" data-name="Group 589" clip-path="url(#clip-path)">
    <path id="Path_1824" data-name="Path 1824" d="M39.85,37.01,20.848.526a.978.978,0,0,0-1.736,0L.111,37.01a.978.978,0,0,0,.868,1.43h38a.978.978,0,0,0,.868-1.43M2.592,36.483,19.98,3.1,37.369,36.483Z" transform="translate(0)" fill="#84bd00" stroke="rgba(0,0,0,0)" stroke-width="1"/>
    <path id="Path_1825" data-name="Path 1825" d="M379.838,257.966l.445-15.254h-3.051l.445,15.254Z" transform="translate(-358.777 -230.838)" fill="#84bd00" stroke="rgba(0,0,0,0)" stroke-width="1"/>
    <path id="Path_1826" data-name="Path 1826" d="M371.962,607.128a1.973,1.973,0,0,0,0,3.941,1.973,1.973,0,0,0,0-3.941" transform="translate(-351.982 -577.426)" fill="#84bd00" stroke="rgba(0,0,0,0)" stroke-width="1"/>
  </g>
</svg>
