<svg xmlns="http://www.w3.org/2000/svg" xmlns:xlink="http://www.w3.org/1999/xlink" width="17.709" height="22.646" viewBox="0 0 17.709 22.646">
  <defs>
    <clipPath id="clip-path">
      <rect id="Rectangle_725" data-name="Rectangle 725" width="17.709" height="22.646" fill="#97989a"/>
    </clipPath>
  </defs>
  <g id="Export_Icon" data-name="Export Icon" transform="translate(0 0)">
    <g id="Group_559" data-name="Group 559" transform="translate(0 0)" clip-path="url(#clip-path)">
      <path id="Path_1748" data-name="Path 1748" d="M17.709,6.942V21.021a1.627,1.627,0,0,1-1.624,1.624H1.624A1.627,1.627,0,0,1,0,21.021V1.624A1.627,1.627,0,0,1,1.624,0h9.122a.541.541,0,1,1,0,1.083H1.624a.544.544,0,0,0-.541.541v19.4a.545.545,0,0,0,.541.541H16.085a.545.545,0,0,0,.541-.541V6.942a.541.541,0,0,1,1.083,0Z" transform="translate(0 0)" fill="#97989a"/>
      <path id="Path_1749" data-name="Path 1749" d="M.541.541.924.159,7.3,6.539a.541.541,0,0,1-.383.924H.541A.541.541,0,0,1,0,6.922V.541A.541.541,0,0,1,.924.159L.541.541h.541V6.38H5.615L.159.924.541.541h0Z" transform="translate(10.246 0)" fill="#97989a"/>
    </g>
    <path id="Path_1770" data-name="Path 1770" d="M86.728,104.157l.011-.016a.615.615,0,0,0,.043-.074l0,0h0c.008-.016.014-.033.02-.049l0-.011c.006-.018.011-.036.016-.055l0-.006a.555.555,0,0,0,0-.247h0a.606.606,0,0,0-.153-.281c-.016-.017-.032-.033-.05-.048l-3.66-3.175a.821.821,0,0,0-1.045,0,.583.583,0,0,0,0,.906l2.4,2.081H77.126a.647.647,0,1,0,0,1.282h7.191l-2.5,2.168a.583.583,0,0,0,0,.906.821.821,0,0,0,1.045,0l3.76-3.262c.015-.013.029-.027.042-.04l.006-.006a.648.648,0,0,0,.056-.069" transform="translate(-72.453 -90.447)" fill="#97989a"/>
  </g>
</svg>
