<svg xmlns="http://www.w3.org/2000/svg" width="57.294" height="45.734" viewBox="0 0 57.294 45.734">
  <g id="Group_435" data-name="Group 435" transform="translate(-120 -211)">
    <path id="Path_1347" data-name="Path 1347" d="M20.2,45.734a1.439,1.439,0,0,1-.442-.1.911.911,0,0,1-.344-1.082l8.163-20.163H20a.81.81,0,0,1-.737-.442.847.847,0,0,1,0-.836L31.607.442A.81.81,0,0,1,32.345,0H43.163A.812.812,0,0,1,43.9.442a.942.942,0,0,1,0,.885L35.738,15.441H43.9a.875.875,0,0,1,.786.492.921.921,0,0,1-.1.934L20.887,45.39a1.035,1.035,0,0,1-.688.344M21.477,22.67h7.376a.932.932,0,0,1,.737.393.771.771,0,0,1,.1.787L23.1,40.03,42.082,17.163H34.262a.811.811,0,0,1-.737-.443.94.94,0,0,1,0-.885L41.689,1.77h-8.8Z" transform="translate(116.001 211)" fill="#313f48" fill-rule="evenodd"/>
    <path id="Path_1348" data-name="Path 1348" d="M60.421,19.752a.811.811,0,0,1-.448-.734.874.874,0,0,1,.809-.908l8.123-.353a.86.86,0,1,1,.1,1.718l-8.146.4a1.413,1.413,0,0,1-.438-.118" transform="translate(107.478 207.293)" fill="#313f48" fill-rule="evenodd"/>
    <path id="Path_1349" data-name="Path 1349" d="M62.62,34.072a.54.54,0,0,1-.195-.157l-6.011-5.481A.841.841,0,1,1,57.558,27.2l6.011,5.481a.819.819,0,0,1,.044,1.189.83.83,0,0,1-.994.2" transform="translate(108.279 205.369)" fill="#313f48" fill-rule="evenodd"/>
    <path id="Path_1350" data-name="Path 1350" d="M56.912,9.413a.531.531,0,0,1-.195-.157.819.819,0,0,1-.044-1.189l5.481-6.011a.82.82,0,0,1,1.189-.044A.819.819,0,0,1,63.386,3.2L57.906,9.212a.754.754,0,0,1-.994.2" transform="translate(108.215 210.629)" fill="#313f48" fill-rule="evenodd"/>
    <path id="Path_1351" data-name="Path 1351" d="M9.274,29.527a1.437,1.437,0,0,1-.445.087L.751,28.69a.86.86,0,0,1,.221-1.706l8.078.925a.874.874,0,0,1,.743.963.865.865,0,0,1-.518.656" transform="translate(120 205.367)" fill="#313f48" fill-rule="evenodd"/>
    <path id="Path_1352" data-name="Path 1352" d="M6.518,43.807A.844.844,0,0,1,5.5,43.556a.857.857,0,0,1,.127-1.183l6.383-5.043a.841.841,0,1,1,1.055,1.31L6.679,43.683Z" transform="translate(118.889 203.242)" fill="#313f48" fill-rule="evenodd"/>
    <path id="Path_1353" data-name="Path 1353" d="M14.193,19.5a.844.844,0,0,1-1.022-.251L8.128,12.87a.857.857,0,0,1,.127-1.183.818.818,0,0,1,1.183.127L14.481,18.2a.856.856,0,0,1-.127,1.183Z" transform="translate(118.34 208.601)" fill="#313f48" fill-rule="evenodd"/>
    <path id="Path_1354" data-name="Path 1354" d="M22.085,23.119h7.376a.932.932,0,0,1,.737.393.771.771,0,0,1,.1.787l-6.59,16.179L42.69,17.612H34.871a.811.811,0,0,1-.737-.443.94.94,0,0,1,0-.885L42.3,2.219h-8.8Z" transform="translate(115.388 210.537)" fill="none" fill-rule="evenodd"/>
  </g>
</svg>
