<svg id="Maintenance_Manager" data-name="Maintenance Manager" xmlns="http://www.w3.org/2000/svg" width="56" height="56" viewBox="0 0 56 56">
  <g id="Ellipse_13" data-name="Ellipse 13" fill="none" stroke="#97989a" stroke-width="2">
    <circle cx="28" cy="28" r="28" stroke="none"/>
    <circle cx="28" cy="28" r="27" fill="none"/>
  </g>
  <g id="Maintenance_Icin" data-name="Maintenance Icin" transform="translate(11.001 10)">
    <g id="Group_135" data-name="Group 135" transform="translate(8.291)">
      <path id="Path_369" data-name="Path 369" d="M1073.157,44.389a6.289,6.289,0,0,1-6.169-7.453l-6.912-7.03a6.287,6.287,0,0,1-7.654-7.973l.289-.91,3.2,3.2a1.12,1.12,0,0,0,1.581,0l1.3-1.3a1.122,1.122,0,0,0,0-1.583l-3.2-3.2.912-.29a6.287,6.287,0,0,1,8.087,7.154l6.913,7.03a6.287,6.287,0,0,1,7.654,7.972l-.29.911-3.2-3.2a1.12,1.12,0,0,0-1.582,0l-1.3,1.3a1.12,1.12,0,0,0,0,1.582l3.2,3.2-.911.29A6.31,6.31,0,0,1,1073.157,44.389Z" transform="translate(-1052.123 -17.555)" fill="none" stroke="#97989a" stroke-linecap="round" stroke-linejoin="round" stroke-width="1.25"/>
    </g>
    <g id="Group_136" data-name="Group 136" transform="translate(0 10.665)">
      <path id="Path_370" data-name="Path 370" d="M1059.244,42.337a6.21,6.21,0,0,1-6.154-6.265c.024-2.549,1.478-5.012,3.783-5.66.1-.028-5.214-5.169-5.214-5.169l-3.3,3.237,1.661,1.691-1.379,3.686-2.457-.028-.042,4.62,2.37.022,1.63,3.581-1.752,1.72,3.237,3.295,1.691-1.661,3.7,1.39L1057,49.219l4.62.042.021-2.37,3.582-1.632,1.719,1.754,3.3-3.238-5.215-5.246A5.659,5.659,0,0,1,1059.244,42.337Z" transform="translate(-1046.146 -25.242)" fill="none" stroke="#97989a" stroke-linecap="round" stroke-linejoin="round" stroke-width="1.25"/>
    </g>
  </g>
</svg>
