<svg xmlns="http://www.w3.org/2000/svg" xmlns:xlink="http://www.w3.org/1999/xlink" width="260" height="906" viewBox="0 0 260 906">
  <defs>
    <clipPath id="clip-path">
      <rect id="Rectangle_729" data-name="Rectangle 729" width="21.1" height="30.162" fill="#97989a"/>
    </clipPath>
    <clipPath id="clip-path-2">
      <rect id="Rectangle_830" data-name="Rectangle 830" width="20.79" height="42.893" fill="#97989a"/>
    </clipPath>
    <clipPath id="clip-path-3">
      <rect id="Rectangle_728" data-name="Rectangle 728" width="32.813" height="31.274" fill="#fff"/>
    </clipPath>
  </defs>
  <g id="Menu" transform="translate(0 -135)">
    <path id="Rectangle_545" data-name="Rectangle 545" d="M0,0H252a8,8,0,0,1,8,8V898a8,8,0,0,1-8,8H0a0,0,0,0,1,0,0V0A0,0,0,0,1,0,0Z" transform="translate(0 135)" fill="#313f48"/>
    <g id="Logout" transform="translate(16 965)">
      <text id="Logout-2" data-name="Logout" transform="translate(71 15)" fill="#e5e5e5" font-size="22" font-family="Helvetica" letter-spacing="0.025em"><tspan x="0" y="17">Logout</tspan></text>
      <g id="Logout-3" data-name="Logout">
        <g id="Ellipse_16" data-name="Ellipse 16" fill="none" stroke="#97989a" stroke-width="2">
          <circle cx="28" cy="28" r="28" stroke="none"/>
          <circle cx="28" cy="28" r="27" fill="none"/>
        </g>
        <g id="Logout_Icon" data-name="Logout Icon" transform="translate(19 13)">
          <g id="Group_563" data-name="Group 563" clip-path="url(#clip-path)">
            <path id="Path_1765" data-name="Path 1765" d="M4.155,271.424h0Z" transform="translate(-3.634 -241.915)" fill="#97989a"/>
            <path id="Path_1766" data-name="Path 1766" d="M9.167,275.7h0Z" transform="translate(-8.018 -245.729)" fill="#97989a"/>
            <path id="Path_1767" data-name="Path 1767" d="M140.858,1.731h0Z" transform="translate(-123.205 -1.543)" fill="#97989a"/>
            <path id="Path_1768" data-name="Path 1768" d="M17.988,20.056a.766.766,0,0,0-.815.707v7.392a.731.731,0,0,1-.172.481h0a.4.4,0,0,1-.121.095.158.158,0,0,1-.073.018H2a.159.159,0,0,1-.073-.018.476.476,0,0,1-.187-.183h0a.762.762,0,0,1-.107-.395V2.011h0v0A.729.729,0,0,1,1.8,1.527h0a.4.4,0,0,1,.121-.095A.158.158,0,0,1,2,1.413H16.806a.157.157,0,0,1,.073.018.476.476,0,0,1,.187.183h0a.762.762,0,0,1,.107.395h0V9.4a.823.823,0,0,0,1.629,0V2.011h0a2.018,2.018,0,0,0-.52-1.357h0A1.984,1.984,0,0,0,16.809,0H1.993A1.986,1.986,0,0,0,.3.951h0A2.025,2.025,0,0,0,0,2.011v26.14H0a2.018,2.018,0,0,0,.52,1.357h0a1.983,1.983,0,0,0,1.463.653H16.811a1.985,1.985,0,0,0,1.694-.951h0a2.024,2.024,0,0,0,.3-1.06V20.762a.766.766,0,0,0-.815-.707" fill="#97989a"/>
            <path id="Path_1769" data-name="Path 1769" d="M145.86,6l0,0Z" transform="translate(-127.58 -5.344)" fill="#97989a"/>
            <path id="Path_1770" data-name="Path 1770" d="M87.79,104.583l.012-.018a.678.678,0,0,0,.047-.081l0,0h0c.008-.018.016-.036.022-.054l0-.012c.007-.02.013-.04.017-.06l0-.007a.611.611,0,0,0,0-.273h0a.668.668,0,0,0-.168-.31c-.017-.018-.036-.036-.055-.053l-4.036-3.5a.905.905,0,0,0-1.152,0,.643.643,0,0,0,0,1l2.645,2.295H77.2a.714.714,0,1,0,0,1.413h7.93l-2.756,2.391a.643.643,0,0,0,0,1,.9.9,0,0,0,1.152,0l4.147-3.6c.016-.014.031-.029.046-.044l.007-.007a.713.713,0,0,0,.062-.076" transform="translate(-66.814 -89.131)" fill="#97989a"/>
          </g>
        </g>
      </g>
    </g>
    <g id="Competition" transform="translate(16 605)">
      <text id="Competition-2" data-name="Competition" transform="translate(71 15)" fill="#e5e5e5" font-size="22" font-family="Helvetica" letter-spacing="0.025em"><tspan x="0" y="17">Competition</tspan></text>
      <g id="Competition-3" data-name="Competition">
        <g id="Ellipse_15" data-name="Ellipse 15" fill="none" stroke="#97989a" stroke-width="2">
          <circle cx="28" cy="28" r="28" stroke="none"/>
          <circle cx="28" cy="28" r="27" fill="none"/>
        </g>
        <g id="Competition_Icon" data-name="Competition Icon" transform="translate(18 7.004)">
          <g id="Group_587" data-name="Group 587" transform="translate(0 -0.004)" clip-path="url(#clip-path-2)">
            <path id="Path_1815" data-name="Path 1815" d="M538.664,160.963h0Z" transform="translate(-519.107 -155.119)" fill="#97989a"/>
            <path id="Path_1816" data-name="Path 1816" d="M139.715,1.451h0Z" transform="translate(-134.643 -1.398)" fill="#97989a"/>
            <path id="Path_1817" data-name="Path 1817" d="M436.019,3.444h0Z" transform="translate(-420.189 -3.319)" fill="#97989a"/>
            <path id="Path_1818" data-name="Path 1818" d="M18.451,25.933a10.415,10.415,0,0,0-5.685-3.558v-.457h.463a.527.527,0,0,0,.494-.344L19.557,5.839a.526.526,0,0,0-.062-.484L15.922.221h0a.526.526,0,0,0-.092-.1A.3.3,0,0,0,15.8.1l-.006,0a.5.5,0,0,0-.074-.045h0a.44.44,0,0,0-.048-.019.524.524,0,0,0-.078-.022h0A.481.481,0,0,0,15.539,0a.275.275,0,0,0-.049,0H5.3a.282.282,0,0,0-.046,0h0A.484.484,0,0,0,5.2.006h0a.519.519,0,0,0-.079.023.443.443,0,0,0-.049.019A.5.5,0,0,0,5,.093.317.317,0,0,0,4.96.12a.524.524,0,0,0-.092.1h0L1.295,5.355a.526.526,0,0,0-.062.484L7.067,21.574a.526.526,0,0,0,.494.344h.463v.457a10.4,10.4,0,1,0,10.427,3.558m-8.056,15.9A9.353,9.353,0,1,1,17,39.1a9.312,9.312,0,0,1-6.6,2.739M9.077,21.917h2.636v.266a10.358,10.358,0,0,0-2.636,0ZM13.22,5.129H7.57L6.057,1.048h8.677Zm-.39,1.053L10.395,12.75,7.96,6.183ZM5.156,1.65l.04.108L6.709,5.839l0,.005L9.9,14.437l0,.008v0l2.379,6.416H7.927L2.316,5.731ZM18.474,5.731l-5.34,14.4-2.177-5.87,3.12-8.416,0-.01L15.634,1.65ZM15.794.094h0ZM5,.093Z" transform="translate(0 0.005)" fill="#97989a"/>
            <path id="Path_1819" data-name="Path 1819" d="M136.613,3.444h0Z" transform="translate(-131.653 -3.319)" fill="#97989a"/>
            <path id="Path_1820" data-name="Path 1820" d="M67.732,664.6a8.447,8.447,0,1,0,2.481,5.979,8.435,8.435,0,0,0-2.481-5.979m-5.979,13.386a7.415,7.415,0,1,1,5.235-2.172,7.383,7.383,0,0,1-5.235,2.172" transform="translate(-51.358 -638.076)" fill="#97989a"/>
            <path id="Path_1821" data-name="Path 1821" d="M435.519,859.783h0Z" transform="translate(-419.707 -828.568)" fill="#97989a"/>
            <path id="Path_1822" data-name="Path 1822" d="M430.619,879.617h0Z" transform="translate(-414.985 -847.682)" fill="#97989a"/>
            <path id="Path_1823" data-name="Path 1823" d="M147.02,755.315a.7.7,0,0,0-.567-.478h0l-2.587-.376a.633.633,0,0,1-.477-.346l-1.157-2.344a.7.7,0,0,0-1.26,0l-1.157,2.344a.633.633,0,0,1-.477.346l-2.587.376a.7.7,0,0,0-.567.478h0a.707.707,0,0,0-.035.218.7.7,0,0,0,.212.5l1.872,1.824a.633.633,0,0,1,.182.56L137.975,761a.711.711,0,0,0-.01.12.7.7,0,0,0,.29.567h0a.7.7,0,0,0,.74.053l2.314-1.216a.633.633,0,0,1,.589,0l2.314,1.216a.7.7,0,0,0,1.029-.62.712.712,0,0,0-.01-.12l-.442-2.576a.632.632,0,0,1,.182-.56l1.872-1.824a.7.7,0,0,0,.178-.72m-2.785,1.79a1.686,1.686,0,0,0-.485,1.492l.322,1.876-1.685-.886a1.687,1.687,0,0,0-1.569,0l-1.685.886.322-1.876a1.686,1.686,0,0,0-.485-1.492l-1.363-1.329,1.883-.274a1.686,1.686,0,0,0,1.27-.922l.842-1.707.842,1.707a1.686,1.686,0,0,0,1.27.922l1.883.274-1.363,1.329.139.143Z" transform="translate(-131.208 -724.1)" fill="#97989a"/>
          </g>
        </g>
      </g>
    </g>
    <g id="Club_User_Ranking" data-name="Club User Ranking" transform="translate(16 516)">
      <text id="Club_User_Ranking-2" data-name="Club User Ranking" transform="translate(71 3)" fill="#e5e5e5" font-size="22" font-family="Helvetica" letter-spacing="0.025em"><tspan x="0" y="17">Club User </tspan><tspan x="0" y="39">Ranking</tspan></text>
      <g id="Ranking_Icon" data-name="Ranking Icon">
        <g id="Ellipse_14" data-name="Ellipse 14" fill="none" stroke="#97989a" stroke-width="2">
          <circle cx="28" cy="28" r="28" stroke="none"/>
          <circle cx="28" cy="28" r="27" fill="none"/>
        </g>
        <g id="Group_588" data-name="Group 588" transform="translate(12.365 12)">
          <g id="Group_130" data-name="Group 130" transform="translate(0 11.872)">
            <line id="Line_18" data-name="Line 18" x2="19.318" transform="translate(12.233 4.78)" fill="none" stroke="#97989a" stroke-linecap="round" stroke-linejoin="round" stroke-width="2"/>
            <path id="Path_366" data-name="Path 366" d="M582.9,26.505a4.78,4.78,0,1,0,4.781,4.781A4.78,4.78,0,0,0,582.9,26.505Zm2.136,7.135h-4.1V32.59c2.264-1.638,2.688-2,2.688-2.516,0-.359-.336-.548-.744-.548a1.937,1.937,0,0,0-1.372.572l-.744-.893a2.881,2.881,0,0,1,2.116-.87c1.231,0,2.116.69,2.116,1.739,0,.8-.572,1.482-1.975,2.392h2.015Z" transform="translate(-578.121 -26.505)" fill="#97989a"/>
          </g>
          <g id="Group_131" data-name="Group 131" transform="translate(0 23.603)">
            <line id="Line_19" data-name="Line 19" x2="19.318" transform="translate(12.233 4.78)" fill="none" stroke="#97989a" stroke-linecap="round" stroke-linejoin="round" stroke-width="2"/>
            <path id="Path_367" data-name="Path 367" d="M582.9,35.348a4.78,4.78,0,1,0,4.781,4.779A4.779,4.779,0,0,0,582.9,35.348Zm0,7.432a2.773,2.773,0,0,1-2.125-.808l.67-.87a2.139,2.139,0,0,0,1.4.554c.57,0,.862-.231.862-.532s-.215-.47-.915-.47c-.223,0-.617.008-.694.016V39.53c.1.008.5.008.694.008.531,0,.83-.154.83-.439,0-.322-.369-.492-.861-.492a2,2,0,0,0-1.295.508l-.623-.809a2.65,2.65,0,0,1,2.056-.832c1.309,0,2.04.562,2.04,1.41a1.25,1.25,0,0,1-1.124,1.155,1.287,1.287,0,0,1,1.208,1.216C585.025,42.157,584.178,42.78,582.9,42.78Z" transform="translate(-578.121 -35.348)" fill="#97989a"/>
          </g>
          <g id="Group_132" data-name="Group 132">
            <line id="Line_20" data-name="Line 20" x2="19.318" transform="translate(12.233 4.78)" fill="none" stroke="#97989a" stroke-linecap="round" stroke-linejoin="round" stroke-width="2"/>
            <path id="Path_368" data-name="Path 368" d="M582.9,17.555a4.78,4.78,0,1,0,4.781,4.779A4.779,4.779,0,0,0,582.9,17.555Zm.937,7.432h-1.369V21.432l-.89.9-.78-.818,1.853-1.831h1.186Z" transform="translate(-578.121 -17.555)" fill="#97989a"/>
          </g>
        </g>
      </g>
    </g>
    <g id="Maintenance_Manager" data-name="Maintenance Manager" transform="translate(16 426)">
      <text id="Maintenance_Manager-2" data-name="Maintenance Manager" transform="translate(71 2)" fill="#e5e5e5" font-size="22" font-family="Helvetica" letter-spacing="0.025em"><tspan x="0" y="17">Maintenance </tspan><tspan x="0" y="39">Manager</tspan></text>
      <g id="Maintenance_Manager-3" data-name="Maintenance Manager">
        <g id="Ellipse_13" data-name="Ellipse 13" fill="none" stroke="#97989a" stroke-width="2">
          <circle cx="28" cy="28" r="28" stroke="none"/>
          <circle cx="28" cy="28" r="27" fill="none"/>
        </g>
        <g id="Maintenance_Icin" data-name="Maintenance Icin" transform="translate(11.001 10)">
          <g id="Group_135" data-name="Group 135" transform="translate(8.291)">
            <path id="Path_369" data-name="Path 369" d="M1073.157,44.389a6.289,6.289,0,0,1-6.169-7.453l-6.912-7.03a6.287,6.287,0,0,1-7.654-7.973l.289-.91,3.2,3.2a1.12,1.12,0,0,0,1.581,0l1.3-1.3a1.122,1.122,0,0,0,0-1.583l-3.2-3.2.912-.29a6.287,6.287,0,0,1,8.087,7.154l6.913,7.03a6.287,6.287,0,0,1,7.654,7.972l-.29.911-3.2-3.2a1.12,1.12,0,0,0-1.582,0l-1.3,1.3a1.12,1.12,0,0,0,0,1.582l3.2,3.2-.911.29A6.31,6.31,0,0,1,1073.157,44.389Z" transform="translate(-1052.123 -17.555)" fill="none" stroke="#97989a" stroke-linecap="round" stroke-linejoin="round" stroke-width="1.25"/>
          </g>
          <g id="Group_136" data-name="Group 136" transform="translate(0 10.665)">
            <path id="Path_370" data-name="Path 370" d="M1059.244,42.337a6.21,6.21,0,0,1-6.154-6.265c.024-2.549,1.478-5.012,3.783-5.66.1-.028-5.214-5.169-5.214-5.169l-3.3,3.237,1.661,1.691-1.379,3.686-2.457-.028-.042,4.62,2.37.022,1.63,3.581-1.752,1.72,3.237,3.295,1.691-1.661,3.7,1.39L1057,49.219l4.62.042.021-2.37,3.582-1.632,1.719,1.754,3.3-3.238-5.215-5.246A5.659,5.659,0,0,1,1059.244,42.337Z" transform="translate(-1046.146 -25.242)" fill="none" stroke="#97989a" stroke-linecap="round" stroke-linejoin="round" stroke-width="1.25"/>
          </g>
        </g>
      </g>
    </g>
    <g id="Error_Device_Manager" data-name="Error Device Manager" transform="translate(16 337)">
      <text id="Error_Device_Manager-2" data-name="Error Device Manager" transform="translate(71 3)" fill="#e5e5e5" font-size="22" font-family="Helvetica" letter-spacing="0.025em"><tspan x="0" y="17">Error Device </tspan><tspan x="0" y="39">Manager</tspan></text>
      <g id="Error_Device_Manager-3" data-name="Error Device Manager">
        <g id="Ellipse_12" data-name="Ellipse 12" fill="none" stroke="#97989a" stroke-width="2">
          <circle cx="28" cy="28" r="28" stroke="none"/>
          <circle cx="28" cy="28" r="27" fill="none"/>
        </g>
        <g id="Group_121" data-name="Group 121" transform="translate(9.037 12)">
          <g id="Group_119" data-name="Group 119" transform="translate(4.583 21.777)">
            <path id="Path_331" data-name="Path 331" d="M823.841,38.819a.412.412,0,1,0-.442-.38A.412.412,0,0,0,823.841,38.819Z" transform="translate(-797.851 -37.097)" fill="#97989a"/>
            <path id="Path_332" data-name="Path 332" d="M822.877,38.007a.411.411,0,1,0-.443-.381A.416.416,0,0,0,822.877,38.007Z" transform="translate(-797.957 -37.186)" fill="#97989a"/>
            <path id="Path_333" data-name="Path 333" d="M822.2,38.936a.41.41,0,1,0-.443-.378A.409.409,0,0,0,822.2,38.936Z" transform="translate(-798.031 -37.084)" fill="#97989a"/>
            <path id="Path_334" data-name="Path 334" d="M821.234,38.125a.412.412,0,1,0-.443-.382A.415.415,0,0,0,821.234,38.125Z" transform="translate(-798.136 -37.173)" fill="#97989a"/>
            <path id="Path_335" data-name="Path 335" d="M820.552,39.055a.411.411,0,1,0-.441-.381A.412.412,0,0,0,820.552,39.055Z" transform="translate(-798.211 -37.071)" fill="#97989a"/>
            <path id="Path_336" data-name="Path 336" d="M819.588,38.242a.41.41,0,1,0-.442-.379A.41.41,0,0,0,819.588,38.242Z" transform="translate(-798.316 -37.16)" fill="#97989a"/>
            <path id="Path_337" data-name="Path 337" d="M818.909,39.173a.41.41,0,1,0-.442-.382A.411.411,0,0,0,818.909,39.173Z" transform="translate(-798.39 -37.058)" fill="#97989a"/>
            <path id="Path_338" data-name="Path 338" d="M817.945,38.361a.412.412,0,1,0-.443-.381A.413.413,0,0,0,817.945,38.361Z" transform="translate(-798.496 -37.147)" fill="#97989a"/>
            <path id="Path_339" data-name="Path 339" d="M817.264,39.292a.412.412,0,1,0-.443-.382A.412.412,0,0,0,817.264,39.292Z" transform="translate(-798.57 -37.046)" fill="#97989a"/>
            <path id="Path_340" data-name="Path 340" d="M816.3,38.478a.412.412,0,0,0,.384-.439.414.414,0,1,0-.384.439Z" transform="translate(-798.676 -37.135)" fill="#97989a"/>
            <path id="Path_341" data-name="Path 341" d="M815.61,39.4a.41.41,0,1,0-.441-.378A.407.407,0,0,0,815.61,39.4Z" transform="translate(-798.751 -37.033)" fill="#97989a"/>
            <path id="Path_342" data-name="Path 342" d="M814.646,38.591a.412.412,0,1,0-.443-.382A.414.414,0,0,0,814.646,38.591Z" transform="translate(-798.856 -37.122)" fill="#97989a"/>
            <path id="Path_343" data-name="Path 343" d="M813.965,39.522a.412.412,0,1,0-.443-.382A.413.413,0,0,0,813.965,39.522Z" transform="translate(-798.931 -37.02)" fill="#97989a"/>
            <path id="Path_344" data-name="Path 344" d="M813,38.708a.41.41,0,1,0-.442-.378A.411.411,0,0,0,813,38.708Z" transform="translate(-799.036 -37.109)" fill="#97989a"/>
            <path id="Path_345" data-name="Path 345" d="M812.321,39.639a.41.41,0,1,0-.441-.382A.41.41,0,0,0,812.321,39.639Z" transform="translate(-799.111 -37.007)" fill="#97989a"/>
            <path id="Path_346" data-name="Path 346" d="M811.357,38.827a.411.411,0,1,0-.442-.381A.414.414,0,0,0,811.357,38.827Z" transform="translate(-799.216 -37.096)" fill="#97989a"/>
            <path id="Path_347" data-name="Path 347" d="M810.676,39.758a.412.412,0,1,0-.443-.381A.412.412,0,0,0,810.676,39.758Z" transform="translate(-799.291 -36.995)" fill="#97989a"/>
            <path id="Path_348" data-name="Path 348" d="M809.712,38.944a.411.411,0,1,0-.443-.381A.412.412,0,0,0,809.712,38.944Z" transform="translate(-799.396 -37.084)" fill="#97989a"/>
            <path id="Path_349" data-name="Path 349" d="M809.035,39.869a.41.41,0,1,0-.442-.378A.407.407,0,0,0,809.035,39.869Z" transform="translate(-799.47 -36.982)" fill="#97989a"/>
            <path id="Path_350" data-name="Path 350" d="M808.071,39.057a.411.411,0,1,0-.443-.381A.414.414,0,0,0,808.071,39.057Z" transform="translate(-799.575 -37.071)" fill="#97989a"/>
            <path id="Path_351" data-name="Path 351" d="M807.39,39.988a.412.412,0,1,0-.443-.381A.412.412,0,0,0,807.39,39.988Z" transform="translate(-799.65 -36.97)" fill="#97989a"/>
            <path id="Path_352" data-name="Path 352" d="M806.425,39.174a.41.41,0,1,0-.442-.378A.411.411,0,0,0,806.425,39.174Z" transform="translate(-799.755 -37.058)" fill="#97989a"/>
            <path id="Path_353" data-name="Path 353" d="M805.746,40.1a.41.41,0,1,0-.442-.381A.409.409,0,0,0,805.746,40.1Z" transform="translate(-799.829 -36.956)" fill="#97989a"/>
            <path id="Path_354" data-name="Path 354" d="M804.782,39.294a.412.412,0,1,0-.059-.821.412.412,0,1,0,.059.821Z" transform="translate(-799.935 -37.045)" fill="#97989a"/>
            <path id="Path_355" data-name="Path 355" d="M804.1,40.224a.411.411,0,1,0-.443-.381A.412.412,0,0,0,804.1,40.224Z" transform="translate(-800.009 -36.944)" fill="#97989a"/>
            <path id="Path_356" data-name="Path 356" d="M803.136,39.411a.412.412,0,1,0-.442-.382A.413.413,0,0,0,803.136,39.411Z" transform="translate(-800.115 -37.033)" fill="#97989a"/>
            <path id="Path_357" data-name="Path 357" d="M802.447,40.335a.41.41,0,1,0-.442-.378A.409.409,0,0,0,802.447,40.335Z" transform="translate(-800.19 -36.931)" fill="#97989a"/>
            <path id="Path_358" data-name="Path 358" d="M801.5,39.543a.412.412,0,1,0-.442-.382A.412.412,0,0,0,801.5,39.543Z" transform="translate(-800.294 -37.018)" fill="#97989a"/>
            <path id="Path_359" data-name="Path 359" d="M800.812,40.467a.41.41,0,1,0-.442-.378A.407.407,0,0,0,800.812,40.467Z" transform="translate(-800.369 -36.917)" fill="#97989a"/>
          </g>
          <g id="Group_120" data-name="Group 120">
            <path id="Path_360" data-name="Path 360" d="M796.374,45.288H798.5a.134.134,0,0,0,.133-.148c-.132-1.668,1.063-4.766,3.168-4.932l23-1.853a3.43,3.43,0,0,1,3.872,3.368c.1,1.154.1,3.081.094,3.407a.133.133,0,0,0,.134.135h2.814a.4.4,0,0,0,.4-.4c0-.194.074-2.931.05-3.918A31.926,31.926,0,0,0,830.71,31.8a23.814,23.814,0,0,0-4.064-7.569l4.067-4.969a.408.408,0,0,0-.068-.579l-1.039-.947a.6.6,0,0,0-.866.024l-4.944,5.263-9.161.71a.429.429,0,0,0-.3.663,5.981,5.981,0,0,0,.937,1.027,1.737,1.737,0,0,0,1.321.531c1.058,0,2.545-.163,4.056-.225,2.585-.106,3.385-.245,5.075,2.347a12,12,0,0,1,2.4,6.78l-26.767,2.182c-3.369.239-5.091,5.483-5.118,8.115A.136.136,0,0,0,796.374,45.288Z" transform="translate(-796.238 -17.555)" fill="none" stroke="#97989a" stroke-miterlimit="10" stroke-width="0.997"/>
            <line id="Line_17" data-name="Line 17" x1="29.575" y2="1.951" transform="translate(2.43 24.539)" fill="none" stroke="#97989a" stroke-miterlimit="10" stroke-width="0.997"/>
          </g>
        </g>
      </g>
    </g>
    <text id="Administrator" transform="translate(87 262)" fill="#84bd00" font-size="22" font-family="Helvetica" letter-spacing="0.025em"><tspan x="0" y="17">Administrator</tspan></text>
    <g id="Results" transform="translate(16 247)">
      <g id="Ellipse_11" data-name="Ellipse 11" fill="#84bd00" stroke="#84bd00" stroke-width="2">
        <circle cx="28" cy="28" r="28" stroke="none"/>
        <circle cx="28" cy="28" r="27" fill="none"/>
      </g>
      <g id="Admin_Icon" data-name="Admin Icon" transform="translate(12 12)">
        <g id="Group_562" data-name="Group 562" clip-path="url(#clip-path-3)">
          <path id="Path_1762" data-name="Path 1762" d="M18.552,111.8h0Zm-10.665.253h0m-.149.039a9.457,9.457,0,0,0,5.126,1.5,10.516,10.516,0,0,0,1.408-.1A9.608,9.608,0,0,0,18.1,112.1q.64.168,1.232.385a2.4,2.4,0,0,0-1.011.606c-.317.314-.649.646-1.045,1.044a2.292,2.292,0,0,0-.3,2.924l.157.24q-.074.168-.14.338l-.239.049a2.31,2.31,0,0,0-1.893,2.313v.256q0,.6,0,1.192a2.5,2.5,0,0,0,.02.318c-.673.023-1.351.044-2.02.058-.42.009-.851.013-1.283.013-1.394,0-2.834-.045-4.4-.136-1.887-.11-3.79-.3-5.669-.552.009-.109.018-.216.028-.325.124-1.363.26-2.394.441-3.341a10.622,10.622,0,0,1,.73-2.506c.04-.086.1-.188.152-.286a.821.821,0,0,1,.206-.239,12.225,12.225,0,0,1,4.68-2.358m10.143-1.517a.286.286,0,0,0-.152.049,8.224,8.224,0,0,1-3.65,1.449,9.041,9.041,0,0,1-1.215.084A8.031,8.031,0,0,1,8.4,110.808a1.013,1.013,0,0,0-.572-.19,1.243,1.243,0,0,0-.312.044,13.781,13.781,0,0,0-5.368,2.674,2.247,2.247,0,0,0-.549.649c-.07.125-.139.25-.2.379a11.937,11.937,0,0,0-.839,2.844c-.22,1.151-.354,2.314-.46,3.481-.037.41-.068.821-.1,1.232a.416.416,0,0,0,.4.515q3.325.5,6.682.691c1.494.087,2.99.139,4.486.139q.656,0,1.313-.014c1.574-.033,3.148-.1,4.721-.157.207-.007.414-.025.635-.039-.046-.15-.092-.277-.123-.407a.149.149,0,0,0-.137-.127q-.487-.092-.971-.2a.861.861,0,0,1-.721-.887q0-.722,0-1.445a.865.865,0,0,1,.742-.907c.32-.064.639-.132.959-.194a.137.137,0,0,0,.124-.111,6.7,6.7,0,0,1,.628-1.51.125.125,0,0,0-.007-.154q-.285-.421-.561-.847a.865.865,0,0,1,.116-1.129q.518-.52,1.039-1.038a.882.882,0,0,1,.625-.28.941.941,0,0,1,.512.164c.281.182.557.371.839.55a.187.187,0,0,0,.094.024.117.117,0,0,0,.055-.011,7.694,7.694,0,0,1,1.522-.633.178.178,0,0,0,.1-.111c.055-.234.1-.472.149-.706a.142.142,0,0,0-.069-.173c-.344-.227-.678-.47-1.029-.684a13.89,13.89,0,0,0-4.213-1.67.15.15,0,0,0-.034,0" transform="translate(0 -97.35)" fill="#fff"/>
          <path id="Path_1763" data-name="Path 1763" d="M60.209,0V1.435h.058a5.089,5.089,0,0,1,3.611,1.541A4.962,4.962,0,0,1,65.3,6.532a5.042,5.042,0,0,1-5.085,5.007h-.064a4.944,4.944,0,0,1-3.519-1.525A5.081,5.081,0,0,1,55.2,6.4a5.059,5.059,0,0,1,5.01-4.964Zm0,0a6.487,6.487,0,0,0-.076,12.973h.081A6.487,6.487,0,0,0,60.284,0h-.076" transform="translate(-47.335)" fill="#fff"/>
          <path id="Path_1764" data-name="Path 1764" d="M149.838,129.558h0Zm.288.472h.066c.059.29.119.586.174.876a.984.984,0,0,0,.79.808,5.413,5.413,0,0,1,1.8.75.975.975,0,0,0,.537.164.987.987,0,0,0,.558-.178c.251-.169.5-.334.761-.507l.318.318c-.163.246-.327.494-.492.736a.993.993,0,0,0-.016,1.141,5.4,5.4,0,0,1,.741,1.792.978.978,0,0,0,.791.774c.3.057.6.117.89.177v.45c-.288.059-.583.118-.871.174a.994.994,0,0,0-.814.794,5.286,5.286,0,0,1-.727,1.758,1.019,1.019,0,0,0,.017,1.175c.162.236.323.48.482.72l-.317.317c-.246-.162-.5-.328-.744-.5a1.018,1.018,0,0,0-.576-.185,1,1,0,0,0-.552.169,5.427,5.427,0,0,1-1.8.745.97.97,0,0,0-.767.781c-.059.3-.119.6-.18.9h-.449c-.06-.292-.119-.588-.176-.88a.976.976,0,0,0-.777-.8,5.385,5.385,0,0,1-1.792-.74,1.018,1.018,0,0,0-.558-.172,1.006,1.006,0,0,0-.572.182c-.246.167-.5.335-.748.5l-.317-.317c.166-.251.334-.5.5-.752a.975.975,0,0,0,.013-1.118,5.416,5.416,0,0,1-.746-1.8.98.98,0,0,0-.789-.772c-.3-.058-.595-.119-.892-.179v-.449c.294-.06.593-.12.886-.177a.975.975,0,0,0,.8-.782,5.429,5.429,0,0,1,.743-1.793.987.987,0,0,0-.011-1.116c-.168-.248-.337-.5-.5-.753l.317-.317c.254.168.514.34.77.512a.957.957,0,0,0,1.084.011,5.486,5.486,0,0,1,1.824-.757.97.97,0,0,0,.765-.781c.058-.3.119-.6.179-.9h.383m-.175,11.824h0a4.747,4.747,0,1,0-3.338-8.111,4.686,4.686,0,0,0-1.4,3.361,4.754,4.754,0,0,0,4.734,4.75M145.465,131.6h0m9.749.08h0M142.889,136.4h0m7.236-7.207h-.841c-.2,0-.232.027-.271.218-.091.452-.184.9-.272,1.356a.135.135,0,0,1-.122.124,6.3,6.3,0,0,0-2.1.873.142.142,0,0,1-.078.028.152.152,0,0,1-.084-.032q-.59-.4-1.183-.785a.274.274,0,0,0-.144-.058.231.231,0,0,0-.156.09l-1,1c-.127.127-.132.176-.032.328.255.384.508.77.766,1.152a.15.15,0,0,1,0,.194,6.238,6.238,0,0,0-.858,2.068.149.149,0,0,1-.137.138c-.453.087-.9.18-1.355.273-.179.037-.21.076-.21.254q0,.692,0,1.383c0,.192.028.226.213.264.452.092.9.185,1.355.274a.143.143,0,0,1,.133.129,6.225,6.225,0,0,0,.862,2.08.149.149,0,0,1-.005.194c-.26.386-.516.774-.772,1.162-.09.137-.083.193.033.309l.987.987c.071.071.118.106.17.106a.335.335,0,0,0,.168-.074c.381-.252.763-.5,1.141-.759a.182.182,0,0,1,.1-.038.194.194,0,0,1,.1.038,6.2,6.2,0,0,0,2.069.855.15.15,0,0,1,.132.143c.088.452.181.9.273,1.355.035.171.074.2.248.2h1.383c.2,0,.232-.027.271-.219.091-.452.184-.9.273-1.356a.136.136,0,0,1,.123-.124,6.233,6.233,0,0,0,2.08-.861.179.179,0,0,1,.1-.035.193.193,0,0,1,.107.042c.378.256.76.507,1.142.758a1.788,1.788,0,0,0,.173.088,1.3,1.3,0,0,0,.146-.109q.5-.491.987-.986c.135-.135.142-.178.037-.337-.247-.375-.493-.75-.746-1.121a.188.188,0,0,1-.007-.247,6.1,6.1,0,0,0,.843-2.035.166.166,0,0,1,.154-.152c.453-.087.9-.18,1.356-.272.16-.033.195-.075.195-.241q0-.692,0-1.383c0-.205-.025-.237-.226-.278-.448-.091-.895-.184-1.344-.27a.141.141,0,0,1-.13-.13,6.207,6.207,0,0,0-.857-2.069.165.165,0,0,1,.006-.216c.256-.378.508-.76.76-1.141.1-.148.092-.2-.03-.318l-.987-.987c-.071-.071-.117-.1-.169-.1a.313.313,0,0,0-.158.068c-.388.256-.777.512-1.163.772a.164.164,0,0,1-.09.035.151.151,0,0,1-.082-.029,6.222,6.222,0,0,0-2.078-.865.158.158,0,0,1-.145-.146c-.086-.453-.18-.9-.272-1.356-.035-.17-.074-.2-.248-.2h-.542m-.171,11.824h0a3.91,3.91,0,1,1,.05-7.82h0a3.91,3.91,0,0,1-.052,7.82" transform="translate(-125.067 -113.745)" fill="#fff"/>
        </g>
      </g>
    </g>
    <g id="Facility_Data" data-name="Facility Data" transform="translate(16 158)">
      <text id="Facility_Data-2" data-name="Facility Data" transform="translate(71 15)" fill="#fff" font-size="22" font-family="Helvetica" letter-spacing="0.025em"><tspan x="0" y="17">Facility Data</tspan></text>
      <g id="Dashboard">
        <g id="Ellipse_10" data-name="Ellipse 10" fill="none" stroke="#97989a" stroke-width="2">
          <circle cx="28" cy="28" r="28" stroke="none"/>
          <circle cx="28" cy="28" r="27" fill="none"/>
        </g>
        <g id="FACILITY_ICON" data-name="FACILITY ICON" transform="translate(11.999 14)">
          <g id="Group_123" data-name="Group 123" transform="translate(3.628 10.775)">
            <path id="Path_361" data-name="Path 361" d="M435.36,27.384V44.1h8.345V31.943h8.2V44.1h8.345V27.384" transform="translate(-435.36 -27.384)" fill="none" stroke="#97989a" stroke-linecap="round" stroke-linejoin="round" stroke-width="1.5"/>
          </g>
          <path id="Path_362" data-name="Path 362" d="M432.1,31.467,448.16,17.7l16.06,13.766" transform="translate(-432.1 -17.701)" fill="none" stroke="#97989a" stroke-linecap="round" stroke-linejoin="round" stroke-width="1.5"/>
        </g>
      </g>
    </g>
  </g>
</svg>
