<svg xmlns="http://www.w3.org/2000/svg" width="411.108" height="71.947" viewBox="0 0 411.108 71.947">
  <g id="Powr_Logo" data-name="Powr+ Logo" transform="translate(-249.691 -147)">
    <path id="Path_1345" data-name="Path 1345" d="M458.405,0V1.339h3.821v10.74h1.5V1.339h3.841V0Z" transform="translate(179 147)" fill="#313f48"/>
    <path id="Path_1346" data-name="Path 1346" d="M479.644,0l-3.767,9.089L472.127,0h-2.154V12.079h1.5V2.134l4.094,9.945h.614L480.3,2.134v9.945h1.5V0Z" transform="translate(179 147)" fill="#313f48"/>
    <path id="Path_1347" data-name="Path 1347" d="M423.454,61.956l3.331-19.434H407.437l2.328-13.1H429.18l3.331-19.431h13.546l-3.442,19.431h19.432l-2.321,13.1H440.292L436.85,61.956Z" transform="translate(179 147)" fill="#313f48"/>
    <path id="Path_1348" data-name="Path 1348" d="M70.691,71.947,83.4,0h51.057A11.45,11.45,0,0,1,143,3.3a11.281,11.281,0,0,1,3.305,8.4,16.655,16.655,0,0,1-.216,2.613l-2.1,11.8a18.051,18.051,0,0,1-6.459,10.951,17.473,17.473,0,0,1-11.671,4.552h-33.4L87.091,71.947ZM94.929,27.118h32.406l2.448-13.791H97.395Z" transform="translate(179 147)" fill="#313f48"/>
    <path id="Path_1349" data-name="Path 1349" d="M157.9,71.947a11.445,11.445,0,0,1-8.536-3.3,11.292,11.292,0,0,1-3.306-8.409,15.143,15.143,0,0,1,.219-2.559l7.386-42.189a17.844,17.844,0,0,1,6.488-10.93A17.649,17.649,0,0,1,171.886,0H207.5a11.456,11.456,0,0,1,8.538,3.3,11.281,11.281,0,0,1,3.295,8.4,15.876,15.876,0,0,1-.22,2.581l-7.376,42.177a17.9,17.9,0,0,1-6.5,10.927,17.627,17.627,0,0,1-11.725,4.564ZM163.077,55.4H195.53l6.8-38.855H169.871Z" transform="translate(179 147)" fill="#313f48"/>
    <path id="Path_1350" data-name="Path 1350" d="M278.653,71.945l-2.605-43.613L257.041,71.945H232.5L227.219,0h16.527l4.345,53.438L271.894,0h18.013l4.5,53.916L318,0h15.978l-30.7,71.945Z" transform="translate(179 147)" fill="#313f48"/>
    <path id="Path_1351" data-name="Path 1351" d="M377.94,71.947l5.338-30.336H350.866L345.5,71.947H329.1L341.808,0h51.066A11.456,11.456,0,0,1,401.412,3.3a11.283,11.283,0,0,1,3.3,8.4,15.812,15.812,0,0,1-.212,2.573l-2.085,11.847c-1.3,6.735-8.188,9.36-8.188,9.36s6.437,2,5.012,9.439l-4.879,27.023ZM353.313,27.275h32.435l2.439-13.788h-32.4Z" transform="translate(179 147)" fill="#313f48"/>
  </g>
</svg>
