<svg id="Ranking_Icon" data-name="Ranking Icon" xmlns="http://www.w3.org/2000/svg" width="56" height="56" viewBox="0 0 56 56">
  <g id="Ellipse_14" data-name="Ellipse 14" fill="none" stroke="#97989a" stroke-width="2">
    <circle cx="28" cy="28" r="28" stroke="none"/>
    <circle cx="28" cy="28" r="27" fill="none"/>
  </g>
  <g id="Group_588" data-name="Group 588" transform="translate(12.365 12)">
    <g id="Group_130" data-name="Group 130" transform="translate(0 11.872)">
      <line id="Line_18" data-name="Line 18" x2="19.318" transform="translate(12.233 4.78)" fill="none" stroke="#97989a" stroke-linecap="round" stroke-linejoin="round" stroke-width="2"/>
      <path id="Path_366" data-name="Path 366" d="M582.9,26.505a4.78,4.78,0,1,0,4.781,4.781A4.78,4.78,0,0,0,582.9,26.505Zm2.136,7.135h-4.1V32.59c2.264-1.638,2.688-2,2.688-2.516,0-.359-.336-.548-.744-.548a1.937,1.937,0,0,0-1.372.572l-.744-.893a2.881,2.881,0,0,1,2.116-.87c1.231,0,2.116.69,2.116,1.739,0,.8-.572,1.482-1.975,2.392h2.015Z" transform="translate(-578.121 -26.505)" fill="#97989a"/>
    </g>
    <g id="Group_131" data-name="Group 131" transform="translate(0 23.603)">
      <line id="Line_19" data-name="Line 19" x2="19.318" transform="translate(12.233 4.78)" fill="none" stroke="#97989a" stroke-linecap="round" stroke-linejoin="round" stroke-width="2"/>
      <path id="Path_367" data-name="Path 367" d="M582.9,35.348a4.78,4.78,0,1,0,4.781,4.779A4.779,4.779,0,0,0,582.9,35.348Zm0,7.432a2.773,2.773,0,0,1-2.125-.808l.67-.87a2.139,2.139,0,0,0,1.4.554c.57,0,.862-.231.862-.532s-.215-.47-.915-.47c-.223,0-.617.008-.694.016V39.53c.1.008.5.008.694.008.531,0,.83-.154.83-.439,0-.322-.369-.492-.861-.492a2,2,0,0,0-1.295.508l-.623-.809a2.65,2.65,0,0,1,2.056-.832c1.309,0,2.04.562,2.04,1.41a1.25,1.25,0,0,1-1.124,1.155,1.287,1.287,0,0,1,1.208,1.216C585.025,42.157,584.178,42.78,582.9,42.78Z" transform="translate(-578.121 -35.348)" fill="#97989a"/>
    </g>
    <g id="Group_132" data-name="Group 132">
      <line id="Line_20" data-name="Line 20" x2="19.318" transform="translate(12.233 4.78)" fill="none" stroke="#97989a" stroke-linecap="round" stroke-linejoin="round" stroke-width="2"/>
      <path id="Path_368" data-name="Path 368" d="M582.9,17.555a4.78,4.78,0,1,0,4.781,4.779A4.779,4.779,0,0,0,582.9,17.555Zm.937,7.432h-1.369V21.432l-.89.9-.78-.818,1.853-1.831h1.186Z" transform="translate(-578.121 -17.555)" fill="#97989a"/>
    </g>
  </g>
</svg>
