<svg id="Remember_Me_Checked_" data-name="Remember Me (Checked)" xmlns="http://www.w3.org/2000/svg" width="20" height="20" viewBox="0 0 20 20">
  <g id="Rectangle_216" data-name="Rectangle 216" fill="#84bd00" stroke="#84bd00" stroke-width="2">
    <rect width="20" height="20" rx="6" stroke="none"/>
    <rect x="1" y="1" width="18" height="18" rx="5" fill="none"/>
  </g>
  <path id="Icon_awesome-check" data-name="Icon awesome-check" d="M5.231,14.591.226,10.139a.633.633,0,0,1,0-.969L1.315,8.2A.839.839,0,0,1,2.4,8.2l3.372,3L13,4.778a.839.839,0,0,1,1.089,0l1.089.969a.633.633,0,0,1,0,.969L6.321,14.591A.839.839,0,0,1,5.231,14.591Z" transform="translate(2.299 0.316)" fill="#fff"/>
</svg>
