<svg id="Results" xmlns="http://www.w3.org/2000/svg" xmlns:xlink="http://www.w3.org/1999/xlink" width="56" height="56" viewBox="0 0 56 56">
  <defs>
    <clipPath id="clip-path">
      <rect id="Rectangle_728" data-name="Rectangle 728" width="32.813" height="31.274" fill="#fff"/>
    </clipPath>
  </defs>
  <g id="Ellipse_11" data-name="Ellipse 11" fill="#84bd00" stroke="#84bd00" stroke-width="2">
    <circle cx="28" cy="28" r="28" stroke="none"/>
    <circle cx="28" cy="28" r="27" fill="none"/>
  </g>
  <g id="Admin_Icon" data-name="Admin Icon" transform="translate(12 12)">
    <g id="Group_562" data-name="Group 562" clip-path="url(#clip-path)">
      <path id="Path_1762" data-name="Path 1762" d="M18.552,111.8h0Zm-10.665.253h0m-.149.039a9.457,9.457,0,0,0,5.126,1.5,10.516,10.516,0,0,0,1.408-.1A9.608,9.608,0,0,0,18.1,112.1q.64.168,1.232.385a2.4,2.4,0,0,0-1.011.606c-.317.314-.649.646-1.045,1.044a2.292,2.292,0,0,0-.3,2.924l.157.24q-.074.168-.14.338l-.239.049a2.31,2.31,0,0,0-1.893,2.313v.256q0,.6,0,1.192a2.5,2.5,0,0,0,.02.318c-.673.023-1.351.044-2.02.058-.42.009-.851.013-1.283.013-1.394,0-2.834-.045-4.4-.136-1.887-.11-3.79-.3-5.669-.552.009-.109.018-.216.028-.325.124-1.363.26-2.394.441-3.341a10.622,10.622,0,0,1,.73-2.506c.04-.086.1-.188.152-.286a.821.821,0,0,1,.206-.239,12.225,12.225,0,0,1,4.68-2.358m10.143-1.517a.286.286,0,0,0-.152.049,8.224,8.224,0,0,1-3.65,1.449,9.041,9.041,0,0,1-1.215.084A8.031,8.031,0,0,1,8.4,110.808a1.013,1.013,0,0,0-.572-.19,1.243,1.243,0,0,0-.312.044,13.781,13.781,0,0,0-5.368,2.674,2.247,2.247,0,0,0-.549.649c-.07.125-.139.25-.2.379a11.937,11.937,0,0,0-.839,2.844c-.22,1.151-.354,2.314-.46,3.481-.037.41-.068.821-.1,1.232a.416.416,0,0,0,.4.515q3.325.5,6.682.691c1.494.087,2.99.139,4.486.139q.656,0,1.313-.014c1.574-.033,3.148-.1,4.721-.157.207-.007.414-.025.635-.039-.046-.15-.092-.277-.123-.407a.149.149,0,0,0-.137-.127q-.487-.092-.971-.2a.861.861,0,0,1-.721-.887q0-.722,0-1.445a.865.865,0,0,1,.742-.907c.32-.064.639-.132.959-.194a.137.137,0,0,0,.124-.111,6.7,6.7,0,0,1,.628-1.51.125.125,0,0,0-.007-.154q-.285-.421-.561-.847a.865.865,0,0,1,.116-1.129q.518-.52,1.039-1.038a.882.882,0,0,1,.625-.28.941.941,0,0,1,.512.164c.281.182.557.371.839.55a.187.187,0,0,0,.094.024.117.117,0,0,0,.055-.011,7.694,7.694,0,0,1,1.522-.633.178.178,0,0,0,.1-.111c.055-.234.1-.472.149-.706a.142.142,0,0,0-.069-.173c-.344-.227-.678-.47-1.029-.684a13.89,13.89,0,0,0-4.213-1.67.15.15,0,0,0-.034,0" transform="translate(0 -97.35)" fill="#fff"/>
      <path id="Path_1763" data-name="Path 1763" d="M60.209,0V1.435h.058a5.089,5.089,0,0,1,3.611,1.541A4.962,4.962,0,0,1,65.3,6.532a5.042,5.042,0,0,1-5.085,5.007h-.064a4.944,4.944,0,0,1-3.519-1.525A5.081,5.081,0,0,1,55.2,6.4a5.059,5.059,0,0,1,5.01-4.964Zm0,0a6.487,6.487,0,0,0-.076,12.973h.081A6.487,6.487,0,0,0,60.284,0h-.076" transform="translate(-47.335)" fill="#fff"/>
      <path id="Path_1764" data-name="Path 1764" d="M149.838,129.558h0Zm.288.472h.066c.059.29.119.586.174.876a.984.984,0,0,0,.79.808,5.413,5.413,0,0,1,1.8.75.975.975,0,0,0,.537.164.987.987,0,0,0,.558-.178c.251-.169.5-.334.761-.507l.318.318c-.163.246-.327.494-.492.736a.993.993,0,0,0-.016,1.141,5.4,5.4,0,0,1,.741,1.792.978.978,0,0,0,.791.774c.3.057.6.117.89.177v.45c-.288.059-.583.118-.871.174a.994.994,0,0,0-.814.794,5.286,5.286,0,0,1-.727,1.758,1.019,1.019,0,0,0,.017,1.175c.162.236.323.48.482.72l-.317.317c-.246-.162-.5-.328-.744-.5a1.018,1.018,0,0,0-.576-.185,1,1,0,0,0-.552.169,5.427,5.427,0,0,1-1.8.745.97.97,0,0,0-.767.781c-.059.3-.119.6-.18.9h-.449c-.06-.292-.119-.588-.176-.88a.976.976,0,0,0-.777-.8,5.385,5.385,0,0,1-1.792-.74,1.018,1.018,0,0,0-.558-.172,1.006,1.006,0,0,0-.572.182c-.246.167-.5.335-.748.5l-.317-.317c.166-.251.334-.5.5-.752a.975.975,0,0,0,.013-1.118,5.416,5.416,0,0,1-.746-1.8.98.98,0,0,0-.789-.772c-.3-.058-.595-.119-.892-.179v-.449c.294-.06.593-.12.886-.177a.975.975,0,0,0,.8-.782,5.429,5.429,0,0,1,.743-1.793.987.987,0,0,0-.011-1.116c-.168-.248-.337-.5-.5-.753l.317-.317c.254.168.514.34.77.512a.957.957,0,0,0,1.084.011,5.486,5.486,0,0,1,1.824-.757.97.97,0,0,0,.765-.781c.058-.3.119-.6.179-.9h.383m-.175,11.824h0a4.747,4.747,0,1,0-3.338-8.111,4.686,4.686,0,0,0-1.4,3.361,4.754,4.754,0,0,0,4.734,4.75M145.465,131.6h0m9.749.08h0M142.889,136.4h0m7.236-7.207h-.841c-.2,0-.232.027-.271.218-.091.452-.184.9-.272,1.356a.135.135,0,0,1-.122.124,6.3,6.3,0,0,0-2.1.873.142.142,0,0,1-.078.028.152.152,0,0,1-.084-.032q-.59-.4-1.183-.785a.274.274,0,0,0-.144-.058.231.231,0,0,0-.156.09l-1,1c-.127.127-.132.176-.032.328.255.384.508.77.766,1.152a.15.15,0,0,1,0,.194,6.238,6.238,0,0,0-.858,2.068.149.149,0,0,1-.137.138c-.453.087-.9.18-1.355.273-.179.037-.21.076-.21.254q0,.692,0,1.383c0,.192.028.226.213.264.452.092.9.185,1.355.274a.143.143,0,0,1,.133.129,6.225,6.225,0,0,0,.862,2.08.149.149,0,0,1-.005.194c-.26.386-.516.774-.772,1.162-.09.137-.083.193.033.309l.987.987c.071.071.118.106.17.106a.335.335,0,0,0,.168-.074c.381-.252.763-.5,1.141-.759a.182.182,0,0,1,.1-.038.194.194,0,0,1,.1.038,6.2,6.2,0,0,0,2.069.855.15.15,0,0,1,.132.143c.088.452.181.9.273,1.355.035.171.074.2.248.2h1.383c.2,0,.232-.027.271-.219.091-.452.184-.9.273-1.356a.136.136,0,0,1,.123-.124,6.233,6.233,0,0,0,2.08-.861.179.179,0,0,1,.1-.035.193.193,0,0,1,.107.042c.378.256.76.507,1.142.758a1.788,1.788,0,0,0,.173.088,1.3,1.3,0,0,0,.146-.109q.5-.491.987-.986c.135-.135.142-.178.037-.337-.247-.375-.493-.75-.746-1.121a.188.188,0,0,1-.007-.247,6.1,6.1,0,0,0,.843-2.035.166.166,0,0,1,.154-.152c.453-.087.9-.18,1.356-.272.16-.033.195-.075.195-.241q0-.692,0-1.383c0-.205-.025-.237-.226-.278-.448-.091-.895-.184-1.344-.27a.141.141,0,0,1-.13-.13,6.207,6.207,0,0,0-.857-2.069.165.165,0,0,1,.006-.216c.256-.378.508-.76.76-1.141.1-.148.092-.2-.03-.318l-.987-.987c-.071-.071-.117-.1-.169-.1a.313.313,0,0,0-.158.068c-.388.256-.777.512-1.163.772a.164.164,0,0,1-.09.035.151.151,0,0,1-.082-.029,6.222,6.222,0,0,0-2.078-.865.158.158,0,0,1-.145-.146c-.086-.453-.18-.9-.272-1.356-.035-.17-.074-.2-.248-.2h-.542m-.171,11.824h0a3.91,3.91,0,1,1,.05-7.82h0a3.91,3.91,0,0,1-.052,7.82" transform="translate(-125.067 -113.745)" fill="#fff"/>
    </g>
  </g>
</svg>
