<svg xmlns="http://www.w3.org/2000/svg" xmlns:xlink="http://www.w3.org/1999/xlink" width="30" height="30" viewBox="0 0 30 30">
  <defs>
    <clipPath id="clip-path">
      <rect id="Rectangle_893" data-name="Rectangle 893" width="12.817" height="19.068" fill="#97989a"/>
    </clipPath>
  </defs>
  <g id="Search_Icon" data-name="Search Icon" transform="translate(-121.678 144.322)">
    <g id="Ellipse_11" data-name="Ellipse 11" transform="translate(121.678 -144.322)" fill="none" stroke="#97989a" stroke-width="1">
      <circle cx="15" cy="15" r="15" stroke="none"/>
      <circle cx="15" cy="15" r="14.5" fill="none"/>
    </g>
    <g id="Search_Icon-2" data-name="Search Icon" transform="translate(129.666 -138.856)" clip-path="url(#clip-path)">
      <path id="Path_1839" data-name="Path 1839" d="M.586,8.862a6.213,6.213,0,1,1,9.335,2.406l2.791,5.995a1.136,1.136,0,0,1-.545,1.506l-.418.195a1.136,1.136,0,0,1-1.5-.553L7.43,12.364a6.25,6.25,0,0,1-6.844-3.5M8.072,10.22A4.391,4.391,0,1,0,2.258,8.083,4.385,4.385,0,0,0,8.072,10.22" transform="translate(0 0)" fill="#97989a"/>
    </g>
  </g>
</svg>
