<?xml version="1.0" encoding="UTF-8"?><svg id="Layer_1" xmlns="http://www.w3.org/2000/svg" viewBox="0 0 200 200"><defs><style>.cls-1{fill:#323e48;}.cls-1,.cls-2{stroke-width:0px;}.cls-2{fill:#fff;}</style></defs><rect class="cls-1" width="200" height="200"/><path class="cls-2" d="M178.11,108.75v-4.51h-1.61v-.56h3.85v.56h-1.61v4.51h-.63Z"/><path class="cls-2" d="M185.7,108.75v-4.18l-1.73,4.18h-.26l-1.72-4.18v4.18h-.63v-5.07h.9l1.57,3.82,1.58-3.82h.91v5.07h-.63Z"/><polygon class="cls-2" points="161.83 129.7 163.23 121.54 155.1 121.54 156.08 116.04 164.23 116.04 165.63 107.88 171.32 107.88 169.88 116.04 178.04 116.04 177.06 121.54 168.9 121.54 167.45 129.7 161.83 129.7"/><path class="cls-2" d="M13.67,133.9l5.34-30.22h21.44c1.48,0,2.65.45,3.59,1.38.93.93,1.39,2.09,1.39,3.53,0,.35-.03.71-.09,1.1l-.88,4.96c-.32,1.81-1.2,3.31-2.71,4.6-1.51,1.29-3.11,1.91-4.9,1.91h-14.03l-2.25,12.74h-6.89ZM23.85,115.07h13.61l1.03-5.79h-13.6l-1.04,5.79Z"/><path class="cls-2" d="M50.3,133.9c-1.48,0-2.65-.45-3.59-1.39-.93-.93-1.39-2.09-1.39-3.53,0-.36.03-.72.09-1.07l3.1-17.72c.31-1.8,1.2-3.3,2.72-4.59,1.52-1.29,3.13-1.91,4.93-1.91h14.96c1.48,0,2.65.45,3.59,1.38.93.93,1.38,2.09,1.38,3.53,0,.35-.03.72-.09,1.08l-3.1,17.71c-.31,1.8-1.2,3.3-2.73,4.59-1.52,1.29-3.13,1.92-4.92,1.92h-14.96ZM52.47,126.95h13.63l2.85-16.32h-13.63l-2.85,16.32Z"/><polygon class="cls-2" points="101.01 133.9 99.92 115.58 91.93 133.9 81.63 133.9 79.41 103.68 86.35 103.68 88.17 126.13 98.17 103.68 105.74 103.68 107.63 126.33 117.54 103.68 124.25 103.68 111.35 133.9 101.01 133.9"/><path class="cls-2" d="M142.71,133.9l2.24-12.74h-13.61l-2.25,12.74h-6.89l5.34-30.22h21.45c1.48,0,2.65.45,3.59,1.38.93.93,1.38,2.09,1.38,3.53,0,.36-.03.73-.09,1.08l-.88,4.98c-.55,2.83-3.44,3.93-3.44,3.93,0,0,2.7.84,2.11,3.96l-2.05,11.35h-6.89ZM132.37,115.14h13.62l1.02-5.79h-13.61l-1.04,5.79Z"/><path class="cls-2" d="M90.1,96l3.93-20.93-12.35,20.93h-2.78l-4.5-20.93-3.93,20.93h-6.36l5.61-29.9h8.92l3.87,18.06,10.65-18.06h8.96l-5.61,29.9h-6.41Z"/><path class="cls-2" d="M112.5,96l2.3-12.24-8.2-17.66h7.26l5.19,12.01,9.61-12.01h7.26l-14.74,17.66-2.3,12.24h-6.36Z"/></svg>