<svg xmlns="http://www.w3.org/2000/svg" width="159.369" height="27.891" viewBox="0 0 159.369 27.891">
  <g id="Powr_Logo" data-name="Powr+ Logo" transform="translate(-15.816 -13.806)">
    <path id="Path_1345" data-name="Path 1345" d="M458.405,0V.519h1.481V4.683h.583V.519h1.489V0Z" transform="translate(-292.289 13.806)" fill="#333f48" />
    <path id="Path_1346" data-name="Path 1346" d="M473.722,0l-1.46,3.523L470.808,0h-.835V4.683h.582V.827l1.587,3.855h.238L473.975.827V4.683h.583V0Z" transform="translate(-299.373 13.806)" fill="#333f48" />
    <path id="Path_1347" data-name="Path 1347" d="M413.646,30.136l1.291-7.534h-7.5l.9-5.078h7.526l1.291-7.533h5.251l-1.334,7.533h7.533l-.9,5.078h-7.534l-1.334,7.534Z" transform="translate(-261.08 7.688)" fill="#333f48" />
    <path id="Path_1348" data-name="Path 1348" d="M70.691,27.894,75.619,0H95.412a4.439,4.439,0,0,1,3.309,1.277A4.373,4.373,0,0,1,100,4.538a6.456,6.456,0,0,1-.084,1.013L99.1,10.124a7,7,0,0,1-2.5,4.245,6.774,6.774,0,0,1-4.524,1.765H79.127l-2.079,11.76Zm9.4-17.378H92.649L93.6,5.169H81.043Z" transform="translate(-54.875 13.803)" fill="#333f48" />
    <path id="Path_1349" data-name="Path 1349" d="M150.652,27.894a4.437,4.437,0,0,1-3.309-1.28,4.377,4.377,0,0,1-1.282-3.26,5.87,5.87,0,0,1,.085-.992l2.863-16.355a6.917,6.917,0,0,1,2.515-4.237A6.842,6.842,0,0,1,156.072.005h13.806a4.441,4.441,0,0,1,3.31,1.278,4.373,4.373,0,0,1,1.277,3.255,6.154,6.154,0,0,1-.085,1l-2.859,16.35A6.939,6.939,0,0,1,169,26.124a6.833,6.833,0,0,1-4.545,1.769Zm2.006-6.414h12.581l2.635-15.062H155.291Z" transform="translate(-101.027 13.803)" fill="#333f48" />
    <path id="Path_1350" data-name="Path 1350" d="M247.157,27.89l-1.01-16.907L238.779,27.89h-9.515L227.219,0h6.407l1.684,20.716L244.537,0h6.983l1.744,20.9L262.41,0H268.6L256.7,27.89Z" transform="translate(-150.725 13.807)" fill="#333f48" />
    <path id="Path_1351" data-name="Path 1351" d="M348.036,27.894l2.069-11.76H337.54l-2.079,11.76H329.1L334.029,0h19.8a4.441,4.441,0,0,1,3.31,1.277,4.374,4.374,0,0,1,1.278,3.258,6.13,6.13,0,0,1-.082,1l-.808,4.593a5.368,5.368,0,0,1-3.174,3.628,3.045,3.045,0,0,1,1.943,3.659L354.4,27.894Zm-9.547-17.317h12.574l.945-5.345h-12.56Z" transform="translate(-213.113 13.803)" fill="#333f48" />
  </g>
</svg>