<svg xmlns="http://www.w3.org/2000/svg" width="38.284rem" height="30.701rem" viewBox="0 0 38.284 30.701">
  <g id="Group_100" data-name="Group 100" transform="translate(-1806.694 -160.414)">
    <g id="Group_98" data-name="Group 98">
      <g id="Group_86" data-name="Group 86">
        <path id="Path_872" data-name="Path 872" d="M1818.021,191.115a.955.955,0,0,1-.291-.065.6.6,0,0,1-.225-.709l5.354-13.226h-4.967a.532.532,0,0,1-.484-.291.553.553,0,0,1,0-.548l8.1-14.871a.53.53,0,0,1,.483-.29h7.1a.531.531,0,0,1,.484.29.615.615,0,0,1,0,.581l-5.355,9.258h5.355a.575.575,0,0,1,.516.322.6.6,0,0,1-.064.613l-15.549,18.71a.678.678,0,0,1-.451.226Zm.838-15.129h4.839a.61.61,0,0,1,.484.258.5.5,0,0,1,.064.516l-4.322,10.613,12.452-15h-5.129a.532.532,0,0,1-.484-.29.616.616,0,0,1,0-.581l5.354-9.226h-5.774Z" fill="#a2a4a4" fill-rule="evenodd"/>
        <path id="Path_873" data-name="Path 873" d="M1838.815,171.639a.53.53,0,0,1-.294-.481.573.573,0,0,1,.53-.6l5.329-.231a.564.564,0,1,1,.065,1.126l-5.343.26A.922.922,0,0,1,1838.815,171.639Z" fill="#a2a4a4" fill-rule="evenodd"/>
        <path id="Path_874" data-name="Path 874" d="M1840.782,179.771a.358.358,0,0,1-.128-.1l-3.943-3.6a.552.552,0,1,1,.751-.809l3.943,3.595a.538.538,0,0,1,.029.78A.544.544,0,0,1,1840.782,179.771Z" fill="#a2a4a4" fill-rule="evenodd"/>
        <path id="Path_875" data-name="Path 875" d="M1837,167.046a.345.345,0,0,1-.128-.1.538.538,0,0,1-.029-.78l3.6-3.943a.552.552,0,0,1,.809.751l-3.595,3.944A.5.5,0,0,1,1837,167.046Z" fill="#a2a4a4" fill-rule="evenodd"/>
        <path id="Path_876" data-name="Path 876" d="M1813.478,176.789a.924.924,0,0,1-.292.057l-5.3-.606a.565.565,0,0,1,.145-1.12l5.3.607a.573.573,0,0,1,.487.632A.567.567,0,0,1,1813.478,176.789Z" fill="#a2a4a4" fill-rule="evenodd"/>
        <path id="Path_877" data-name="Path 877" d="M1810.942,184.762a.553.553,0,0,1-.67-.165.562.562,0,0,1,.083-.776l4.187-3.308a.552.552,0,0,1,.693.86l-4.188,3.308C1811.031,184.723,1810.972,184.749,1810.942,184.762Z" fill="#a2a4a4" fill-rule="evenodd"/>
        <path id="Path_878" data-name="Path 878" d="M1815.616,172.335a.554.554,0,0,1-.671-.165l-3.308-4.187a.563.563,0,0,1,.084-.776.537.537,0,0,1,.776.084l3.308,4.187a.563.563,0,0,1-.084.776C1815.7,172.3,1815.645,172.322,1815.616,172.335Z" fill="#a2a4a4" fill-rule="evenodd"/>
      </g>
      <g id="Group_97" data-name="Group 97">
        <g id="Group_96" data-name="Group 96">
          <g id="Group_87" data-name="Group 87">
            <path id="Path_879" data-name="Path 879" d="M1817.32,190.414a.914.914,0,0,1-.29-.065.6.6,0,0,1-.226-.709l5.355-13.226h-4.968a.533.533,0,0,1-.484-.29.554.554,0,0,1,0-.549l8.1-14.871a.532.532,0,0,1,.484-.29h7.1a.533.533,0,0,1,.484.29.616.616,0,0,1,0,.581l-5.355,9.258h5.355a.574.574,0,0,1,.516.322.6.6,0,0,1-.064.613l-15.549,18.71a.678.678,0,0,1-.451.226Zm.839-15.129H1823a.613.613,0,0,1,.484.258.506.506,0,0,1,.065.516l-4.323,10.613,12.452-15h-5.129a.533.533,0,0,1-.484-.29.615.615,0,0,1,0-.581l5.355-9.226h-5.775Z" fill="#7eaf00" fill-rule="evenodd"/>
          </g>
          <g id="Group_91" data-name="Group 91">
            <g id="Group_88" data-name="Group 88">
              <path id="Path_880" data-name="Path 880" d="M1838.114,170.939a.533.533,0,0,1-.294-.482.573.573,0,0,1,.53-.6l5.329-.231a.564.564,0,1,1,.065,1.126l-5.343.26A.949.949,0,0,1,1838.114,170.939Z" fill="#1d252d" fill-rule="evenodd"/>
            </g>
            <g id="Group_89" data-name="Group 89">
              <path id="Path_881" data-name="Path 881" d="M1840.081,179.07a.358.358,0,0,1-.128-.1l-3.943-3.6a.552.552,0,1,1,.751-.809l3.943,3.6a.536.536,0,0,1,.029.779A.544.544,0,0,1,1840.081,179.07Z" fill="#1d252d" fill-rule="evenodd"/>
            </g>
            <g id="Group_90" data-name="Group 90">
              <path id="Path_882" data-name="Path 882" d="M1836.3,166.345a.344.344,0,0,1-.128-.1.537.537,0,0,1-.029-.779l3.595-3.944a.552.552,0,0,1,.809.751l-3.595,3.944A.5.5,0,0,1,1836.3,166.345Z" fill="#1d252d" fill-rule="evenodd"/>
            </g>
          </g>
          <g id="Group_95" data-name="Group 95">
            <g id="Group_92" data-name="Group 92">
              <path id="Path_883" data-name="Path 883" d="M1812.777,176.088a.923.923,0,0,1-.291.057l-5.3-.606a.565.565,0,0,1,.145-1.12l5.3.607a.574.574,0,0,1,.487.632A.567.567,0,0,1,1812.777,176.088Z" fill="#1d252d" fill-rule="evenodd"/>
            </g>
            <g id="Group_93" data-name="Group 93">
              <path id="Path_884" data-name="Path 884" d="M1810.241,184.061a.552.552,0,0,1-.67-.165.561.561,0,0,1,.083-.776l4.187-3.308a.552.552,0,0,1,.693.86l-4.187,3.308C1810.33,184.022,1810.271,184.048,1810.241,184.061Z" fill="#1d252d" fill-rule="evenodd"/>
            </g>
            <g id="Group_94" data-name="Group 94">
              <path id="Path_885" data-name="Path 885" d="M1814.915,171.634a.554.554,0,0,1-.671-.165l-3.308-4.187a.563.563,0,0,1,.084-.776.538.538,0,0,1,.776.084l3.308,4.187a.563.563,0,0,1-.084.776C1815,171.6,1814.944,171.621,1814.915,171.634Z" fill="#1d252d" fill-rule="evenodd"/>
            </g>
          </g>
        </g>
      </g>
    </g>
    <g id="Group_99" data-name="Group 99">
      <path id="Path_886" data-name="Path 886" d="M1818.155,175.275h4.839a.613.613,0,0,1,.484.258.506.506,0,0,1,.065.516l-4.323,10.613,12.452-15h-5.129a.532.532,0,0,1-.484-.29.616.616,0,0,1,0-.581l5.355-9.226h-5.775Z" fill="#fff" fill-rule="evenodd"/>
    </g>
  </g>
</svg>
