<svg xmlns="http://www.w3.org/2000/svg" width="24.077rem" height="30.576rem" viewBox="0 0 24.077 30.576">
  <g id="Group_84" data-name="Group 84" transform="translate(-1712.693 -160.414)">
    <g id="Group_81" data-name="Group 81">
      <path id="Path_864" data-name="Path 864" d="M1734.091,173.582a10.244,10.244,0,0,1,.5,11.834,11.8,11.8,0,0,1-11.329,4.938c-4.519-.573-7.025-2.93-8.359-6.9-1.272-3.785-2-9.033,1.076-13.193-.591,4.017,2.643,8.876,5.2,9.811-2.806-8.153-2.184-15.863,4.617-18.542-1.819,6.021-.464,9.755,2.35,11.22.222.116.685-6.919,4-5.514C1732.159,167.237,1730.951,171.445,1734.091,173.582Z" fill="#a2a4a4" fill-rule="evenodd"/>
      <path id="Path_865" data-name="Path 865" d="M1734.091,173.582l-.42.333a9.711,9.711,0,0,1,.471,11.205h0a10.446,10.446,0,0,1-3.973,3.519,11.72,11.72,0,0,1-5.341,1.277,12.049,12.049,0,0,1-1.5-.094h0a11.421,11.421,0,0,1-2.889-.727,7.878,7.878,0,0,1-3.089-2.213,10.752,10.752,0,0,1-1.939-3.6,19.165,19.165,0,0,1-1.068-6.005,12.4,12.4,0,0,1,.464-3.446,10.2,10.2,0,0,1,1.6-3.252l-.432-.319-.531-.078a7.341,7.341,0,0,0-.077,1.069,9.663,9.663,0,0,0,.521,3.025,12.844,12.844,0,0,0,2.17,3.964,9.715,9.715,0,0,0,1.423,1.441,5.417,5.417,0,0,0,1.513.894.537.537,0,0,0,.692-.679,25.656,25.656,0,0,1-1.54-8.2,11.816,11.816,0,0,1,1.384-5.918,8.232,8.232,0,0,1,1.805-2.183,9.292,9.292,0,0,1,2.656-1.568l-.2-.5-.514-.155a17.892,17.892,0,0,0-.851,5.137,8.822,8.822,0,0,0,.927,4.177,5.98,5.98,0,0,0,2.54,2.538.556.556,0,0,0,.253.062.564.564,0,0,0,.216-.044.58.58,0,0,0,.137-.084.534.534,0,0,0,.119-.136.725.725,0,0,0,.047-.086,1,1,0,0,0,.045-.122c.022-.071.039-.143.058-.226.035-.156.072-.348.117-.573.079-.394.181-.884.317-1.4a11.171,11.171,0,0,1,.367-1.152,6.27,6.27,0,0,1,.36-.783,2.8,2.8,0,0,1,.65-.827,1.3,1.3,0,0,1,.349-.2,1.059,1.059,0,0,1,.379-.069,1.607,1.607,0,0,1,.625.144l.034.012.176-.507-.364.4a.528.528,0,0,0,.188.112l.176-.507-.364.4.364-.4-.5.2a.544.544,0,0,0,.134.193l.364-.4-.5.2.5-.2-.533.062a.513.513,0,0,0,.035.14l.5-.2-.533.062.532-.062h-.536a.414.414,0,0,0,0,.062l.532-.062h0l-.529-.063a.5.5,0,0,0,0,.063h.533l-.529-.063.506.061-.5-.1c0,.006,0,.013-.005.036l.506.061-.5-.1.33.064-.327-.075,0,.011.33.064-.327-.075-.015.062c-.028.12-.083.365-.13.7a8.688,8.688,0,0,0-.087,1.217,6.787,6.787,0,0,0,.452,2.513,5.229,5.229,0,0,0,1.945,2.416l.3-.444-.42.333.42-.333.3-.444a4.23,4.23,0,0,1-.967-.9,4.389,4.389,0,0,1-.765-1.565,6.089,6.089,0,0,1-.2-1.575,7.551,7.551,0,0,1,.1-1.235c.025-.155.051-.278.07-.363.009-.042.017-.075.023-.1l.008-.033,0-.02,0-.023,0-.026a.381.381,0,0,0,0-.065.336.336,0,0,0,0-.042.439.439,0,0,0-.006-.053.542.542,0,0,0-.052-.152.564.564,0,0,0-.1-.131.535.535,0,0,0-.205-.129l-.176.507.21-.494a2.687,2.687,0,0,0-1.045-.229,2.157,2.157,0,0,0-1.137.324,2.943,2.943,0,0,0-.742.669,5.926,5.926,0,0,0-.859,1.571,15.683,15.683,0,0,0-.675,2.426c-.07.34-.125.628-.166.816-.02.093-.038.164-.045.185v0l.146.051-.142-.063,0,.012.146.051-.142-.063.383.171-.323-.265a.44.44,0,0,0-.06.094l.383.171-.323-.265.39.32-.27-.426a.5.5,0,0,0-.12.106l.39.32-.27-.426.279.44-.16-.5a.551.551,0,0,0-.119.056l.279.44-.16-.5.161.5v-.525a.543.543,0,0,0-.161.025l.161.5v0l.243-.466a.519.519,0,0,0-.243-.059v.525l.243-.466a4.891,4.891,0,0,1-2.088-2.09,7.753,7.753,0,0,1-.8-3.672,16.848,16.848,0,0,1,.805-4.827.538.538,0,0,0-.711-.655,10.366,10.366,0,0,0-2.961,1.752,9.551,9.551,0,0,0-2.724,3.916,14,14,0,0,0-.841,5,26.743,26.743,0,0,0,1.6,8.548l.508-.175.184-.5a5.032,5.032,0,0,1-1.632-1.094,11.146,11.146,0,0,1-2.293-3.224,9.483,9.483,0,0,1-1-4,6.24,6.24,0,0,1,.065-.913.537.537,0,0,0-.963-.4,11.285,11.285,0,0,0-1.77,3.593,13.44,13.44,0,0,0-.507,3.744,20.249,20.249,0,0,0,1.124,6.347,13.1,13.1,0,0,0,1.287,2.788,9.063,9.063,0,0,0,3.024,3.015,11.332,11.332,0,0,0,4.489,1.462h0a13.063,13.063,0,0,0,1.635.1,12.8,12.8,0,0,0,5.831-1.4,11.522,11.522,0,0,0,4.38-3.884h0a10.784,10.784,0,0,0-.527-12.463.536.536,0,0,0-.118-.11Z" fill="#a2a4a4"/>
      <path id="Path_866" data-name="Path 866" d="M1733.025,178.385a7.607,7.607,0,0,1-4.586,8.407" fill="#a2a4a4" fill-rule="evenodd"/>
      <path id="Path_867" data-name="Path 867" d="M1732.5,178.495l.213-.044-.213.043h0l.213-.044-.213.043a6.714,6.714,0,0,1,.1,1.207,7.486,7.486,0,0,1-.757,3.344,6.42,6.42,0,0,1-1.313,1.765,7.822,7.822,0,0,1-2.3,1.49.537.537,0,1,0,.428.985,8.911,8.911,0,0,0,2.614-1.7,7.523,7.523,0,0,0,1.969-3.115,8.868,8.868,0,0,0,.435-2.772,7.508,7.508,0,0,0-.12-1.426.537.537,0,0,0-1.051.22Z" fill="#a2a4a4"/>
    </g>
    <g id="Group_83" data-name="Group 83">
      <g id="Group_82" data-name="Group 82">
        <path id="Path_868" data-name="Path 868" d="M1733.515,173.005a10.247,10.247,0,0,1,.5,11.834,11.8,11.8,0,0,1-11.329,4.939c-4.52-.574-7.025-2.931-8.36-6.9-1.271-3.786-2-9.033,1.077-13.194-.591,4.018,2.643,8.877,5.2,9.812-2.806-8.154-2.184-15.864,4.616-18.542-1.818,6.02-.464,9.755,2.351,11.22.222.116.685-6.92,4-5.514C1731.582,166.661,1730.375,170.869,1733.515,173.005Z" fill="#fff" fill-rule="evenodd"/>
        <path id="Path_869" data-name="Path 869" d="M1733.515,173.005l-.421.334a9.711,9.711,0,0,1,.471,11.205h0a10.45,10.45,0,0,1-3.974,3.519,11.714,11.714,0,0,1-5.34,1.277,11.859,11.859,0,0,1-1.5-.1h0a11.438,11.438,0,0,1-2.89-.726,7.871,7.871,0,0,1-3.088-2.214,10.736,10.736,0,0,1-1.94-3.6,19.175,19.175,0,0,1-1.067-6.006,12.4,12.4,0,0,1,.464-3.445,10.193,10.193,0,0,1,1.6-3.252l-.431-.32-.532-.078a7.354,7.354,0,0,0-.076,1.07,9.7,9.7,0,0,0,.52,3.025,12.869,12.869,0,0,0,2.171,3.964,9.709,9.709,0,0,0,1.422,1.44,5.409,5.409,0,0,0,1.513.895.537.537,0,0,0,.692-.679,25.713,25.713,0,0,1-1.54-8.2,11.8,11.8,0,0,1,1.385-5.918,8.228,8.228,0,0,1,1.8-2.183,9.279,9.279,0,0,1,2.657-1.569l-.2-.5-.514-.156a17.928,17.928,0,0,0-.85,5.138,8.817,8.817,0,0,0,.927,4.176,5.969,5.969,0,0,0,2.54,2.538.55.55,0,0,0,.253.063.545.545,0,0,0,.215-.045.512.512,0,0,0,.137-.083.6.6,0,0,0,.12-.136.642.642,0,0,0,.047-.087,1.112,1.112,0,0,0,.045-.121c.022-.072.039-.143.058-.227.034-.155.072-.347.117-.573.079-.393.18-.884.316-1.4a11.5,11.5,0,0,1,.367-1.152,6.29,6.29,0,0,1,.36-.782,2.8,2.8,0,0,1,.651-.827,1.294,1.294,0,0,1,.348-.2,1.046,1.046,0,0,1,.379-.069,1.6,1.6,0,0,1,.626.143l.033.013.177-.507-.364.4a.532.532,0,0,0,.187.112l.177-.507-.364.4.364-.4-.5.2a.539.539,0,0,0,.134.193l.364-.4-.5.2.5-.2-.533.062a.527.527,0,0,0,.036.14l.5-.2-.533.062.533-.062h-.536a.551.551,0,0,0,0,.062l.533-.062h0l-.528-.063a.34.34,0,0,0,0,.063h.532l-.528-.063.506.06-.5-.1a.259.259,0,0,0-.005.036l.506.06-.5-.1.33.063-.328-.075,0,.012.33.063-.328-.075-.014.063c-.029.12-.083.365-.13.7a8.66,8.66,0,0,0-.088,1.217,6.8,6.8,0,0,0,.453,2.512,5.23,5.23,0,0,0,1.945,2.416l.3-.444-.421.334.421-.334.3-.444a4.205,4.205,0,0,1-.967-.9,4.388,4.388,0,0,1-.764-1.565,6.092,6.092,0,0,1-.2-1.575,7.667,7.667,0,0,1,.1-1.235c.026-.155.051-.278.07-.363.01-.043.018-.075.023-.1l.008-.033.005-.021,0-.023,0-.025c0-.013,0-.028,0-.065,0-.011,0-.024,0-.043a.5.5,0,0,0-.007-.052.507.507,0,0,0-.052-.152.527.527,0,0,0-.095-.132.542.542,0,0,0-.2-.128l-.176.507.209-.494a2.662,2.662,0,0,0-1.045-.229,2.153,2.153,0,0,0-1.136.324,2.906,2.906,0,0,0-.742.669A5.9,5.9,0,0,0,1728,168.5a15.575,15.575,0,0,0-.675,2.426c-.071.339-.125.627-.166.816-.02.093-.038.164-.045.184l0,0,.146.052-.141-.063,0,.011.146.052-.141-.063.383.171-.323-.265a.4.4,0,0,0-.06.094l.383.171-.323-.265.39.32-.27-.426a.476.476,0,0,0-.12.106l.39.32-.27-.426.279.44-.16-.5a.491.491,0,0,0-.119.056l.279.44-.16-.5.161.5v-.525a.482.482,0,0,0-.161.025l.161.5v0l.243-.466a.525.525,0,0,0-.243-.059v.525l.243-.466a4.891,4.891,0,0,1-2.088-2.09,7.753,7.753,0,0,1-.8-3.672,16.842,16.842,0,0,1,.8-4.827.537.537,0,0,0-.711-.655,10.371,10.371,0,0,0-2.96,1.751,9.555,9.555,0,0,0-2.724,3.917,13.972,13.972,0,0,0-.842,5,26.732,26.732,0,0,0,1.6,8.547l.508-.174.184-.5a5.029,5.029,0,0,1-1.632-1.093,11.14,11.14,0,0,1-2.293-3.225,9.473,9.473,0,0,1-1-4,6.281,6.281,0,0,1,.065-.914.537.537,0,0,0-.963-.4,11.263,11.263,0,0,0-1.771,3.592,13.485,13.485,0,0,0-.506,3.744,20.22,20.22,0,0,0,1.123,6.348,13.067,13.067,0,0,0,1.288,2.787,9.047,9.047,0,0,0,3.024,3.016,11.341,11.341,0,0,0,4.489,1.462h0a13.063,13.063,0,0,0,1.635.1,12.788,12.788,0,0,0,5.831-1.4,11.515,11.515,0,0,0,4.379-3.883h0a10.786,10.786,0,0,0-.526-12.463.524.524,0,0,0-.119-.111Z" fill="#7eaf00"/>
        <path id="Path_870" data-name="Path 870" d="M1732.449,177.809a7.608,7.608,0,0,1-4.587,8.407" fill="#fff" fill-rule="evenodd"/>
        <path id="Path_871" data-name="Path 871" d="M1731.923,177.919l.213-.044-.213.043h0l.213-.044-.213.043a6.65,6.65,0,0,1,.1,1.207,7.482,7.482,0,0,1-.758,3.343,6.365,6.365,0,0,1-1.313,1.766,7.808,7.808,0,0,1-2.3,1.489.537.537,0,0,0,.428.985,8.885,8.885,0,0,0,2.615-1.7,7.528,7.528,0,0,0,1.969-3.116,8.861,8.861,0,0,0,.435-2.771,7.606,7.606,0,0,0-.12-1.426.537.537,0,0,0-1.052.22Z" fill="#1d252d"/>
      </g>
    </g>
  </g>
</svg>
