<svg xmlns="http://www.w3.org/2000/svg" width="33.384rem" height="26.001rem" viewBox="0 0 33.384 26.001">
  <g id="Group_121" data-name="Group 121" transform="translate(0.499 0.503)">
    <g id="Group_119" data-name="Group 119" transform="translate(4.131 19.631)">
      <path id="Path_331" data-name="Path 331" d="M823.8,38.738a.371.371,0,1,0-.4-.343A.372.372,0,0,0,823.8,38.738Z" transform="translate(-800.369 -37.186)" fill="#7eaf00"/>
      <path id="Path_332" data-name="Path 332" d="M822.833,37.926a.37.37,0,1,0-.4-.343A.375.375,0,0,0,822.833,37.926Z" transform="translate(-800.369 -37.186)" fill="#7eaf00"/>
      <path id="Path_333" data-name="Path 333" d="M822.154,38.855a.37.37,0,1,0-.4-.341A.369.369,0,0,0,822.154,38.855Z" transform="translate(-800.369 -37.186)" fill="#7eaf00"/>
      <path id="Path_334" data-name="Path 334" d="M821.19,38.044a.371.371,0,1,0-.4-.344A.374.374,0,0,0,821.19,38.044Z" transform="translate(-800.369 -37.186)" fill="#7eaf00"/>
      <path id="Path_335" data-name="Path 335" d="M820.508,38.974a.37.37,0,1,0-.4-.343A.372.372,0,0,0,820.508,38.974Z" transform="translate(-800.369 -37.186)" fill="#7eaf00"/>
      <path id="Path_336" data-name="Path 336" d="M819.544,38.161a.37.37,0,1,0-.4-.342A.369.369,0,0,0,819.544,38.161Z" transform="translate(-800.369 -37.186)" fill="#7eaf00"/>
      <path id="Path_337" data-name="Path 337" d="M818.865,39.092a.37.37,0,1,0-.4-.344A.37.37,0,0,0,818.865,39.092Z" transform="translate(-800.369 -37.186)" fill="#7eaf00"/>
      <path id="Path_338" data-name="Path 338" d="M817.9,38.28a.371.371,0,1,0-.4-.343A.373.373,0,0,0,817.9,38.28Z" transform="translate(-800.369 -37.186)" fill="#7eaf00"/>
      <path id="Path_339" data-name="Path 339" d="M817.22,39.211a.371.371,0,1,0-.4-.344A.371.371,0,0,0,817.22,39.211Z" transform="translate(-800.369 -37.186)" fill="#7eaf00"/>
      <path id="Path_340" data-name="Path 340" d="M816.255,38.4a.372.372,0,0,0,.346-.4.373.373,0,1,0-.346.4Z" transform="translate(-800.369 -37.186)" fill="#7eaf00"/>
      <path id="Path_341" data-name="Path 341" d="M815.566,39.321a.37.37,0,1,0-.4-.341A.367.367,0,0,0,815.566,39.321Z" transform="translate(-800.369 -37.186)" fill="#7eaf00"/>
      <path id="Path_342" data-name="Path 342" d="M814.6,38.51a.371.371,0,1,0-.4-.344A.373.373,0,0,0,814.6,38.51Z" transform="translate(-800.369 -37.186)" fill="#7eaf00"/>
      <path id="Path_343" data-name="Path 343" d="M813.921,39.441a.371.371,0,1,0-.4-.344A.372.372,0,0,0,813.921,39.441Z" transform="translate(-800.369 -37.186)" fill="#7eaf00"/>
      <path id="Path_344" data-name="Path 344" d="M812.956,38.627a.37.37,0,1,0-.4-.341A.37.37,0,0,0,812.956,38.627Z" transform="translate(-800.369 -37.186)" fill="#7eaf00"/>
      <path id="Path_345" data-name="Path 345" d="M812.277,39.558a.37.37,0,1,0-.4-.344A.37.37,0,0,0,812.277,39.558Z" transform="translate(-800.369 -37.186)" fill="#7eaf00"/>
      <path id="Path_346" data-name="Path 346" d="M811.313,38.746a.37.37,0,1,0-.4-.343A.373.373,0,0,0,811.313,38.746Z" transform="translate(-800.369 -37.186)" fill="#7eaf00"/>
      <path id="Path_347" data-name="Path 347" d="M810.632,39.677a.371.371,0,1,0-.4-.343A.371.371,0,0,0,810.632,39.677Z" transform="translate(-800.369 -37.186)" fill="#7eaf00"/>
      <path id="Path_348" data-name="Path 348" d="M809.668,38.863a.37.37,0,1,0-.4-.343A.371.371,0,0,0,809.668,38.863Z" transform="translate(-800.369 -37.186)" fill="#7eaf00"/>
      <path id="Path_349" data-name="Path 349" d="M808.991,39.788a.37.37,0,1,0-.4-.341A.367.367,0,0,0,808.991,39.788Z" transform="translate(-800.369 -37.186)" fill="#7eaf00"/>
      <path id="Path_350" data-name="Path 350" d="M808.027,38.976a.37.37,0,1,0-.4-.343A.373.373,0,0,0,808.027,38.976Z" transform="translate(-800.369 -37.186)" fill="#7eaf00"/>
      <path id="Path_351" data-name="Path 351" d="M807.346,39.907a.371.371,0,1,0-.4-.343A.371.371,0,0,0,807.346,39.907Z" transform="translate(-800.369 -37.186)" fill="#7eaf00"/>
      <path id="Path_352" data-name="Path 352" d="M806.381,39.093a.369.369,0,1,0-.4-.341A.37.37,0,0,0,806.381,39.093Z" transform="translate(-800.369 -37.186)" fill="#7eaf00"/>
      <path id="Path_353" data-name="Path 353" d="M805.7,40.024a.369.369,0,1,0-.4-.343A.368.368,0,0,0,805.7,40.024Z" transform="translate(-800.369 -37.186)" fill="#7eaf00"/>
      <path id="Path_354" data-name="Path 354" d="M804.738,39.213a.371.371,0,1,0-.053-.74.371.371,0,1,0,.053.74Z" transform="translate(-800.369 -37.186)" fill="#7eaf00"/>
      <path id="Path_355" data-name="Path 355" d="M804.057,40.143a.37.37,0,1,0-.4-.343A.371.371,0,0,0,804.057,40.143Z" transform="translate(-800.369 -37.186)" fill="#7eaf00"/>
      <path id="Path_356" data-name="Path 356" d="M803.092,39.33a.371.371,0,1,0-.4-.344A.372.372,0,0,0,803.092,39.33Z" transform="translate(-800.369 -37.186)" fill="#7eaf00"/>
      <path id="Path_357" data-name="Path 357" d="M802.4,40.254a.37.37,0,1,0-.4-.341A.369.369,0,0,0,802.4,40.254Z" transform="translate(-800.369 -37.186)" fill="#7eaf00"/>
      <path id="Path_358" data-name="Path 358" d="M801.457,39.462a.371.371,0,1,0-.4-.344A.371.371,0,0,0,801.457,39.462Z" transform="translate(-800.369 -37.186)" fill="#7eaf00"/>
      <path id="Path_359" data-name="Path 359" d="M800.768,40.386a.37.37,0,1,0-.4-.341A.367.367,0,0,0,800.768,40.386Z" transform="translate(-800.369 -37.186)" fill="#7eaf00"/>
    </g>
    <g id="Group_120" data-name="Group 120">
      <path id="Path_360" data-name="Path 360" d="M796.361,42.555h1.913a.121.121,0,0,0,.12-.133c-.119-1.5.958-4.3,2.856-4.446l20.729-1.67a3.092,3.092,0,0,1,3.49,3.036c.087,1.04.088,2.777.085,3.071a.12.12,0,0,0,.121.122h2.537a.361.361,0,0,0,.364-.358c0-.175.067-2.642.045-3.532a28.779,28.779,0,0,0-1.309-8.25,21.467,21.467,0,0,0-3.663-6.823l3.666-4.479a.368.368,0,0,0-.061-.522l-.937-.854a.543.543,0,0,0-.781.022l-4.457,4.744-8.258.64a.386.386,0,0,0-.272.6,5.392,5.392,0,0,0,.845.926,1.566,1.566,0,0,0,1.191.479c.954,0,2.294-.147,3.656-.2,2.33-.1,3.051-.221,4.575,2.116a10.818,10.818,0,0,1,2.165,6.112l-24.129,1.967c-3.037.215-4.589,4.943-4.614,7.315A.123.123,0,0,0,796.361,42.555Z" transform="translate(-796.238 -17.555)" fill="none" stroke="#84bd00" stroke-miterlimit="10" stroke-width="0.997"/>
      <line id="Line_17" data-name="Line 17" x1="26.66" y2="1.759" transform="translate(2.191 22.121)" fill="none" stroke="#84bd00" stroke-miterlimit="10" stroke-width="0.997"/>
    </g>
  </g>
</svg>
