<svg xmlns="http://www.w3.org/2000/svg" width="28.407rem" height="34.821rem" viewBox="0 0 28.407 34.821">
  <g id="Distance_Icon" data-name="Distance Icon" transform="translate(0)">
    <path id="Path_1389" data-name="Path 1389" d="M278.411,3.528h18.883L300.712,35.8H274.992Z" transform="translate(-272.536 -1.143)" fill="#323e48"/>
    <path id="Path_1390" data-name="Path 1390" d="M299.279,34.489H272.145L275.7.941h20.027Z" transform="translate(-271.614 -0.305)" fill="#fff"/>
    <path id="Path_1391" data-name="Path 1391" d="M294.147.663a.476.476,0,0,0-.475-.427H280.649a.476.476,0,0,0-.475.427l-3.553,33.548a.477.477,0,0,0,.474.528h20.13a.477.477,0,0,0,.475-.528Zm-13.069.527h12.165L296.7,33.784H277.627Z" transform="translate(-273.062 -0.076)" fill="#333f48"/>
    <path id="Path_1392" data-name="Path 1392" d="M292.878,5.505a.483.483,0,0,0-.337-.139H290.4a.476.476,0,0,0-.477.477v4.933a.477.477,0,0,0,.477.477h2.143a.477.477,0,0,0,.477-.477V5.843a.482.482,0,0,0-.139-.337m-2,.815h1.189V10.3h-1.189Z" transform="translate(-277.37 -1.738)" fill="#333f48"/>
    <path id="Path_1393" data-name="Path 1393" d="M292.54,18.528H290.4a.476.476,0,0,0-.477.477v4.934a.477.477,0,0,0,.477.477h2.143a.477.477,0,0,0,.477-.477V19a.476.476,0,0,0-.477-.477m-1.666.954h1.189v3.979h-1.189Z" transform="translate(-277.37 -6)" fill="#333f48"/>
    <path id="Path_1394" data-name="Path 1394" d="M292.54,31.69H290.4a.476.476,0,0,0-.477.477V37.1a.477.477,0,0,0,.477.477h2.143a.477.477,0,0,0,.477-.477V32.167a.476.476,0,0,0-.477-.477m-1.666.954h1.189v3.979h-1.189Z" transform="translate(-277.37 -10.262)" fill="#333f48"/>
    <path id="Path_1395" data-name="Path 1395" d="M292.54,44.852H290.4a.476.476,0,0,0-.477.477V48.6a.477.477,0,0,0,.477.477h2.143a.477.477,0,0,0,.477-.477v-3.27a.476.476,0,0,0-.477-.477m-1.666.954h1.189v2.315h-1.189Z" transform="translate(-277.37 -14.525)" fill="#333f48"/>
    <path id="Path_1396" data-name="Path 1396" d="M296.209.569A.635.635,0,0,0,295.576,0H275.548a.635.635,0,0,0-.633.569l-3.553,33.548a.635.635,0,0,0,.633.7h27.134a.637.637,0,0,0,.633-.7Zm-20.088.7H295l3.418,32.276H272.7Z" transform="translate(-271.359 0)" fill="#0072b2"/>
  </g>
</svg>
