<svg id="Duration_Icon" data-name="Duration Icon" xmlns="http://www.w3.org/2000/svg" xmlns:xlink="http://www.w3.org/1999/xlink" width="33.309rem " height="37.585rem " viewBox="0 0 33.309 37.585">
  <defs>
    <clipPath id="clip-path">
      <rect id="Rectangle_567" data-name="Rectangle 567" width="33.309 " height="37.585 " fill="none" />
    </clipPath>
  </defs>
  <rect id="Rectangle_561" data-name="Rectangle 561" width="7.835" height="2.148" transform="translate(12.738 0.477)" fill="#fff" />
  <rect id="Rectangle_562" data-name="Rectangle 562" width="2.636" height="2.617" transform="translate(15.337 2.637)" fill="#fff" />
  <rect id="Rectangle_563" data-name="Rectangle 563" width="1.857" height="5.574" transform="matrix(0.707, -0.707, 0.707, 0.707, 27.578, 6.469)" fill="#fff" />
  <rect id="Rectangle_564" data-name="Rectangle 564" width="2.263" height="1.875" transform="translate(27.278 9.384) rotate(-45)" fill="#fff" />
  <rect id="Rectangle_565" data-name="Rectangle 565" width="5.573" height="1.857" transform="translate(0.478 9.098) rotate(-45.015)" fill="#fff" />
  <rect id="Rectangle_566" data-name="Rectangle 566" width="1.875" height="2.263" transform="translate(3.105 9.11) rotate(-45)" fill="#fff" />
  <g id="Group_533" data-name="Group 533" transform="translate(0 0)">
    <g id="Group_532" data-name="Group 532" clip-path="url(#clip-path)">
      <path id="Path_1372" data-name="Path 1372" d="M17.043,7.977A15.777,15.777,0,1,0,32.82,23.754,15.777,15.777,0,0,0,17.043,7.977" transform="translate(-0.41 -2.583)" fill="#fff" fill-rule="evenodd" />
      <path id="Path_1373" data-name="Path 1373" d="M31.182,10.747a.477.477,0,0,0,.675,0L33.17,9.435a.478.478,0,0,0,0-.675L29.229,4.818a.477.477,0,0,0-.675,0L27.241,6.131a.478.478,0,0,0,0,.675l.97.97-.919.919A16.336,16.336,0,0,0,18.45,4.86V3.1h2.122a.478.478,0,0,0,.477-.477V.477A.478.478,0,0,0,20.572,0H12.738a.478.478,0,0,0-.477.477V2.624a.478.478,0,0,0,.477.477h2.122V4.855A16.331,16.331,0,0,0,6,8.675l-.9-.9.97-.97a.477.477,0,0,0,0-.675L4.755,4.818a.477.477,0,0,0-.675,0L.14,8.76a.477.477,0,0,0,0,.675l1.313,1.312a.477.477,0,0,0,.675,0l.97-.97.909.909a16.413,16.413,0,1,0,25.273.023l.932-.932ZM13.214.954H20.1V2.148H13.214ZM1.79,9.735,1.152,9.1,4.418,5.831l.638.638ZM15.814,4.776V3.114H17.5V4.776h-.122c-.245-.011-.492-.019-.74-.019s-.494.008-.74.019ZM3.78,9.109l.651-.65.857.857q-.333.318-.648.655ZM27.34,31.877a15.141,15.141,0,1,1,4.434-10.706A15.092,15.092,0,0,1,27.34,31.877M28.647,9.993c-.209-.225-.425-.443-.646-.656l.878-.878.651.65Zm.245-4.162L32.158,9.1l-.638.638L28.253,6.469Z" transform="translate(0 0)" fill="#1072b2" />
      <path id="Path_1374" data-name="Path 1374" d="M18.468,12.378a12.8,12.8,0,1,0,12.8,12.8,12.8,12.8,0,0,0-12.8-12.8m8.757,21-1.463-1.463a.4.4,0,0,0-.563.563l1.463,1.463a11.946,11.946,0,0,1-7.8,3.229V35.1a.4.4,0,0,0-.8,0v2.068a11.947,11.947,0,0,1-7.8-3.229l1.463-1.464a.4.4,0,1,0-.563-.562L9.71,33.374a11.943,11.943,0,0,1-3.229-7.8H8.55a.4.4,0,0,0,0-.8H6.481a11.941,11.941,0,0,1,3.229-7.8l1.463,1.464a.4.4,0,0,0,.563-.563l-1.463-1.463a11.94,11.94,0,0,1,7.8-3.229v2.068a.4.4,0,0,0,.8,0V13.193a11.94,11.94,0,0,1,7.8,3.229L25.2,17.885a.4.4,0,0,0,.563.563l1.463-1.464a11.941,11.941,0,0,1,3.229,7.8H28.385a.4.4,0,0,0,0,.8h2.068a11.94,11.94,0,0,1-3.229,7.8" transform="translate(-1.835 -4.008)" fill="#333f48" />
      <path id="Path_1375" data-name="Path 1375" d="M25.34,29.421a1.87,1.87,0,0,0-1.125-2.927V22.186a.4.4,0,1,0-.8,0v4.308a1.876,1.876,0,1,0,1.327,3.458l3.112,3.112a.4.4,0,1,0,.563-.563Zm-2.606-1.093a1.082,1.082,0,0,1,.953-1.07.334.334,0,0,0,.26,0,1.081,1.081,0,1,1-1.214,1.07" transform="translate(-7.105 -7.056)" fill="#333f48" />
    </g>
  </g>
</svg>