<svg id="Goal_Icon" data-name="Goal Icon" xmlns="http://www.w3.org/2000/svg" xmlns:xlink="http://www.w3.org/1999/xlink" width="32rem" height="26.654rem" viewBox="0 0 32 26.654">
  <defs>
    <clipPath id="clip-path">
      <rect id="Rectangle_713" data-name="Rectangle 713" width="32rem" height="26.654rem" fill="none"/>
    </clipPath>
  </defs>
  <g id="Group_541" data-name="Group 541" transform="translate(0 0)" clip-path="url(#clip-path)">
    <path id="Path_1701" data-name="Path 1701" d="M23.475,12.922c.4,1.573-.045,2.686-1.254,3.186a2.356,2.356,0,0,1-2.39-4,2.391,2.391,0,0,1,3.34.342l2.144-1.67Q28.981,7.92,32.65,5.066a.623.623,0,0,0,.258-.428c.085-.558.181-1.114.283-1.669a.371.371,0,0,1,.131-.221Q35.328,1.383,37.342.029A.432.432,0,0,1,37.426,0c.035.533.072,1.055.106,1.578s.074,1.035.093,1.554c0,.153.093.19.2.238l2.492,1.15c.069.032.136.065.225.108-.058.048-.1.087-.146.118-1.315.889-2.629,1.779-3.949,2.66a.475.475,0,0,1-.332.055c-.566-.125-1.126-.274-1.691-.4a.463.463,0,0,0-.3.032q-5.262,2.871-10.518,5.752c-.046.025-.09.054-.131.079" transform="translate(-8.539 0)" fill="#243138"/>
    <path id="Path_1702" data-name="Path 1702" d="M16.709,26.654a7.967,7.967,0,0,1-4.219-1.176,8.139,8.139,0,0,1-3.7-7.618,8.156,8.156,0,0,1,5.056-6.588,8.144,8.144,0,0,1,8.424,1.716.55.55,0,0,1-.761.794A7.024,7.024,0,0,0,14.242,12.3a6.879,6.879,0,0,0-1.168,12.248,6.878,6.878,0,0,0,10.442-6.895,6.877,6.877,0,0,0-.29-1.169.55.55,0,0,1,1.04-.356,7.918,7.918,0,0,1,.336,1.357,8.138,8.138,0,0,1-3.367,7.808,8.02,8.02,0,0,1-4.526,1.363" transform="translate(-3.937 -4.843)" fill="#0073b1"/>
    <path id="Path_1703" data-name="Path 1703" d="M12.783,27.546A12.783,12.783,0,1,1,22.024,5.936a.55.55,0,0,1-.8.76A11.579,11.579,0,0,0,12.783,3.08a11.682,11.682,0,1,0,10.911,7.507.55.55,0,1,1,1.027-.394A12.783,12.783,0,0,1,12.783,27.546" transform="translate(0 -0.891)" fill="#0073b1"/>
  </g>
</svg>
