<svg xmlns="http://www.w3.org/2000/svg" width="31.865rem" height="30rem" viewBox="0 0 31.865 30">
  <g id="Group_74" data-name="Group 74" transform="translate(-1509.002 -160.414)">
    <path id="Path_833" data-name="Path 833" d="M1511.15,173.869a11.832,11.832,0,0,1-.636-3.429c0-.1,0-.2.007-.3.015-.341.015-.672.028-.987a5.218,5.218,0,0,1,.1-.889,9.084,9.084,0,0,1,.836-2.323,7.457,7.457,0,0,1,1.49-1.951,7.668,7.668,0,0,1,2.375-1.553,7.053,7.053,0,0,1,2.677-.508,8.8,8.8,0,0,1,1.315.1,7.453,7.453,0,0,1,2.34.766,8.51,8.51,0,0,1,2,1.478c.42.412.847.8,1.271,1.207l.32-.338-.3-.355-.034.03a.458.458,0,0,0-.035.039.505.505,0,0,0-.039.055.376.376,0,0,0-.034.07.431.431,0,0,0-.033.171.449.449,0,0,0,.033.171.479.479,0,0,0,.091.145.467.467,0,0,0,.2.125.441.441,0,0,0,.143.023.505.505,0,0,0,.126-.017.45.45,0,0,0,.085-.034.4.4,0,0,0,.051-.03l.039-.028a.612.612,0,0,0,.093-.1l0,0,0,0a9.435,9.435,0,0,1,1.709-1.677,8.908,8.908,0,0,1,2.117-1.269,6.608,6.608,0,0,1,2.378-.507c.123,0,.246,0,.368,0a9.269,9.269,0,0,1,1.532.114,5.876,5.876,0,0,1,1.439.428,7.7,7.7,0,0,1,3.1,2.426,8.765,8.765,0,0,1,1.529,3.655c.053.272.068.585.106.925l0-.051v1.221l0-.048c-.019.2-.024.353-.048.461-.177.849-.337,1.69-.542,2.508a17.837,17.837,0,0,1-1.381,3.42,24.135,24.135,0,0,1-3.355,5.092,30.2,30.2,0,0,1-5.052,4.7,32.956,32.956,0,0,1-4.142,2.621.593.593,0,0,1-.122.051.3.3,0,0,1-.082.012.3.3,0,0,1-.09-.014.693.693,0,0,1-.139-.06,33.779,33.779,0,0,1-6.6-4.637,51.526,51.526,0,0,1-4.9-5.781l-.491,0-.5.026a.531.531,0,0,0,.009.083,1.282,1.282,0,0,0,.126.249,29.705,29.705,0,0,0,5.128,6.109,34.616,34.616,0,0,0,6.782,4.764,1.63,1.63,0,0,0,.319.134,1.248,1.248,0,0,0,.351.052,1.229,1.229,0,0,0,.33-.046,1.53,1.53,0,0,0,.309-.126,33.752,33.752,0,0,0,4.259-2.7,31.1,31.1,0,0,0,5.207-4.841,25.073,25.073,0,0,0,3.484-5.288,18.735,18.735,0,0,0,1.446-3.6c.214-.853.376-1.707.55-2.545a4.927,4.927,0,0,0,.062-.555l0-.023v-1.271l0-.026c-.035-.3-.049-.637-.117-1a9.69,9.69,0,0,0-1.7-4.036,8.651,8.651,0,0,0-3.466-2.718,6.8,6.8,0,0,0-1.666-.5,10.174,10.174,0,0,0-1.686-.127c-.131,0-.261,0-.391.005a7.545,7.545,0,0,0-2.709.576,9.9,9.9,0,0,0-2.338,1.4,10.4,10.4,0,0,0-1.873,1.844h0l.282.215-.233-.267a.285.285,0,0,0-.049.052l.282.215-.233-.267.254.29-.224-.314-.03.024.254.29-.224-.314.256.359-.22-.383c-.02.012-.029.019-.036.024l.256.359-.22-.383.228.4-.178-.422c-.026.011-.039.019-.05.024l.228.4-.178-.422.18.426-.125-.445a.46.46,0,0,0-.055.019l.18.426-.125-.445.125.446v-.464a.449.449,0,0,0-.125.018l.125.446v0l.124-.447a.458.458,0,0,0-.124-.017v.464l.124-.447-.124.448.253-.39a.475.475,0,0,0-.129-.058l-.124.448.253-.39-.253.39.421-.2a.465.465,0,0,0-.168-.194l-.253.39.421-.2-.421.2h.465a.465.465,0,0,0-.044-.2l-.421.2h0l.431.17a.45.45,0,0,0,.033-.17h-.464l.431.17-.43-.17.375.27a.4.4,0,0,0,.055-.1l-.43-.17.375.27-.367-.264.328.312a.452.452,0,0,0,.039-.048l-.367-.264.328.312-.295-.281.274.3.021-.021-.295-.281.274.3-.19-.209.182.216.008-.007-.19-.209.182.216.239-.658-.219-.035c-.431-.408-.855-.8-1.26-1.2a9.459,9.459,0,0,0-2.223-1.637,8.367,8.367,0,0,0-2.631-.862,9.678,9.678,0,0,0-1.455-.113,8,8,0,0,0-3.025.576,8.593,8.593,0,0,0-2.664,1.738,8.4,8.4,0,0,0-1.673,2.191,9.99,9.99,0,0,0-.922,2.56,5.918,5.918,0,0,0-.121,1.049c-.015.341-.015.672-.029.984-.005.116-.007.231-.007.345a12.684,12.684,0,0,0,.675,3.7A.468.468,0,1,0,1511.15,173.869Z" fill="#a2a4a4"/>
    <path id="Path_834" data-name="Path 834" d="M1509.435,176.844c.076-.273.264-.333.53-.334,1.971-.01,3.943-.037,5.914-.046a.329.329,0,0,0,.354-.245c.53-1.244,1.071-2.484,1.61-3.725.033-.075.076-.146.108-.222a.341.341,0,0,1,.37-.237.4.4,0,0,1,.387.288c.1.393.195.788.267,1.187.268,1.479.525,2.96.787,4.44.131.742.262,1.484.436,2.232.049-.166.1-.33.145-.5q.634-2.667,1.264-5.335.762-3.221,1.526-6.44c.041-.172.1-.34.151-.51a.4.4,0,0,1,.386-.286c.189-.02.283.109.331.259.151.471.309.94.429,1.419q.943,3.753,1.867,7.512c.032.133.093.154.208.155,1.247.006,2.494.012,3.74.028.14,0,.172-.084.214-.172a1.724,1.724,0,0,1,3.291.814,1.716,1.716,0,0,1-1.4,1.429,1.688,1.688,0,0,1-1.774-.776c-.01-.016-.027-.031-.03-.048-.056-.321-.289-.3-.537-.3-1.208,0-2.417-.007-3.625-.017a5.456,5.456,0,0,1-.568-.054c-.169-.02-.242-.13-.282-.289-.256-1.028-.519-2.056-.779-3.084q-.51-2.019-1.021-4.04a.863.863,0,0,0-.05-.1c-.075.267-.148.5-.2.733q-1,4.233-1.991,8.465c-.308,1.3-.632,2.6-.953,3.9-.07.283-.188.37-.432.353a.471.471,0,0,1-.452-.43q-.39-2.229-.783-4.458-.345-1.939-.7-3.877c-.016-.09-.039-.179-.07-.32-.207.494-.384.94-.579,1.377-.236.527-.487,1.048-.73,1.572a.359.359,0,0,1-.354.233c-.661.006-1.322.034-1.983.036-1.354,0-2.709,0-4.063-.013-.184,0-.368-.024-.552-.042a.4.4,0,0,1-.412-.3Z" fill="#1d252d"/>
    <g id="Group_72" data-name="Group 72">
      <path id="Path_835" data-name="Path 835" d="M1516.971,179.234l.027.15c.219,1.217.446,2.476.657,3.713.019.106.04.208.066.306a2.931,2.931,0,0,0,2.085,1.8,2.292,2.292,0,0,1,.259.013,2.2,2.2,0,0,0,2.21-1.668c.047-.185.1-.371.157-.567.071-.247.144-.5.207-.767.33-1.387.662-2.8.982-4.162l.057-.241a3.045,3.045,0,0,0,.446.74,2.182,2.182,0,0,0,1.791.751l.852.005c.685,0,1.394.007,2.093.007h.553a3.508,3.508,0,0,0,2.593,1.072c.1,0,.206,0,.31-.011a3.368,3.368,0,0,0,3.156-3.057,3.521,3.521,0,0,0-.886-2.728,3.375,3.375,0,0,0-2.523-1.084,4.088,4.088,0,0,0-1.018.132,3.643,3.643,0,0,0-1.593.9c-.4.005-.8.006-1.184.006h-.51c-.339-1.385-.688-2.8-1.044-4.2-.289-1.134-.6-2.272-.918-3.436a2.187,2.187,0,0,0-.832-1.245,2.419,2.419,0,0,0-.255-.16,2.124,2.124,0,0,0-.676-.24,2.73,2.73,0,0,0-.463-.044,2.314,2.314,0,0,0-2.3,1.8c-.049.245-.117.494-.188.757-.055.2-.11.4-.16.617-.223.947-.447,1.909-.665,2.847a2.356,2.356,0,0,0-2.035-1.14,2.268,2.268,0,0,0-2.083,1.281c-.007.014-.014.026-.022.04a2.152,2.152,0,0,0-.111.215l-.086.2c-.382.885-.776,1.8-1.162,2.7l-2.635-.024-.567,0-1.008-.018-.079.942h2.294c1.393.013,1.048.022,2.441.039h.006a.212.212,0,0,0,.228-.161q.7-1.656,1.421-3.307c.035-.082.088-.156.124-.236a1.338,1.338,0,0,1,1.239-.74,1.433,1.433,0,0,1,1.262.728,2.717,2.717,0,0,1,.226.8c.173.845.334,1.692.5,2.538.008.042.025.081.055.178.141-.592.269-1.13.4-1.668.389-1.667.774-3.335,1.166-5,.11-.469.259-.93.354-1.4a1.379,1.379,0,0,1,1.389-1.057,1.458,1.458,0,0,1,.854.27,1.272,1.272,0,0,1,.477.736c.311,1.137.621,2.276.913,3.419.4,1.581.791,3.165,1.178,4.749.029.116.068.153.184.153h0l.77,0h.319c.477,0,.954,0,1.43-.008a.545.545,0,0,0,.313-.176,2.809,2.809,0,0,1,1.265-.749,3.163,3.163,0,0,1,.786-.1,2.511,2.511,0,0,1,.189,5.015c-.082.006-.164.009-.245.009a2.606,2.606,0,0,1-1.988-.855.671.671,0,0,0-.544-.217h-.614c-.98,0-1.96-.008-2.94-.013a1.261,1.261,0,0,1-1.068-.4,1.927,1.927,0,0,1-.356-.638c-.25-.872-.467-1.754-.7-2.632a2.585,2.585,0,0,0-.193-.551c-.091.355-.187.709-.272,1.066q-.8,3.39-1.6,6.779c-.106.444-.249.879-.361,1.321a1.28,1.28,0,0,1-1.31.968,1.564,1.564,0,0,1-.74-.18,1.488,1.488,0,0,1-.754-1.164c-.283-1.657-.587-3.31-.883-4.965-.014-.078-.038-.154-.062-.252-.151.141-.28.268-.416.387a.865.865,0,0,1-.572.228c-1.335.023-3.084.049-4.419.074h-.148a.37.37,0,0,0,.026.106l1.221.794c.823-.016,2.513-.031,3.336-.046a1.851,1.851,0,0,0,.317-.033" fill="#7eaf00"/>
    </g>
    <g id="Group_73" data-name="Group 73">
      <path id="Path_836" data-name="Path 836" d="M1539.629,168.724v.023l0,.03Z" fill="#fff"/>
      <path id="Path_837" data-name="Path 837" d="M1539.629,169.958l0-.048,0,.029Z" fill="#fff"/>
      <path id="Path_838" data-name="Path 838" d="M1525.2,164.642h0l0,0Z" fill="#fff"/>
      <path id="Path_839" data-name="Path 839" d="M1539.525,167.841a8.859,8.859,0,0,0-1.545-3.693,7.8,7.8,0,0,0-3.134-2.451,5.929,5.929,0,0,0-1.455-.432,9.238,9.238,0,0,0-1.548-.116c-.123,0-.247,0-.372.005a6.677,6.677,0,0,0-2.4.511,9.052,9.052,0,0,0-2.139,1.283,9.6,9.6,0,0,0-1.727,1.694h0a.551.551,0,0,1-.094.1.3.3,0,0,1-.038.029.541.541,0,0,1-.052.03.469.469,0,0,1-.213.052.511.511,0,0,1-.145-.023.469.469,0,0,1-.2-.127c-.041-.044-.83-.791-1.254-1.207a8.612,8.612,0,0,0-2.025-1.494,7.492,7.492,0,0,0-2.364-.773,8.732,8.732,0,0,0-1.329-.1,7.134,7.134,0,0,0-2.7.513,7.746,7.746,0,0,0-2.4,1.57,7.553,7.553,0,0,0-1.506,1.971,9.178,9.178,0,0,0-.844,2.347,5.226,5.226,0,0,0-.1.9c-.013.319-.013.653-.029,1q-.006.153-.006.306a11.947,11.947,0,0,0,.642,3.465c.12.4.278.855.436,1.3l.546.01.567,0,2.635.024c.386-.906.78-1.818,1.162-2.7l.086-.2a2.28,2.28,0,0,1,.111-.216c.008-.013.015-.025.022-.039a2.268,2.268,0,0,1,2.083-1.281,2.356,2.356,0,0,1,2.035,1.14c.218-.938.442-1.9.665-2.847.05-.212.106-.418.16-.617.071-.263.139-.512.188-.757a2.314,2.314,0,0,1,2.3-1.8,2.731,2.731,0,0,1,.463.044,2.111,2.111,0,0,1,.676.24,2.407,2.407,0,0,1,.255.16,2.189,2.189,0,0,1,.833,1.245c.318,1.164.628,2.3.917,3.436.356,1.4.705,2.816,1.044,4.2h.51c.383,0,.786,0,1.184-.006a3.644,3.644,0,0,1,1.593-.9,4.088,4.088,0,0,1,1.018-.132,3.375,3.375,0,0,1,2.523,1.084,3.52,3.52,0,0,1,.886,2.728,3.368,3.368,0,0,1-3.156,3.057c-.1.008-.208.011-.31.011a3.508,3.508,0,0,1-2.593-1.072h-.553c-.7,0-1.408,0-2.093-.007l-.852-.005a2.182,2.182,0,0,1-1.791-.751,3.049,3.049,0,0,1-.446-.74l-.056.241c-.321,1.364-.653,2.775-.983,4.162-.063.264-.136.52-.207.767-.057.2-.11.382-.157.567a2.2,2.2,0,0,1-2.21,1.668c-.081,0-.307-.025-.272-.015l.013,0-.013,0a2.935,2.935,0,0,1-2.072-1.795c-.025-.1-.047-.2-.065-.306-.212-1.237-.439-2.5-.658-3.713l-.027-.15a1.85,1.85,0,0,1-.316.033c-.725.013-2.121.026-3.006.04a43.118,43.118,0,0,0,4.238,4.9,34.126,34.126,0,0,0,6.671,4.686.767.767,0,0,0,.14.06.306.306,0,0,0,.091.014.29.29,0,0,0,.082-.012.638.638,0,0,0,.124-.051,33.207,33.207,0,0,0,4.185-2.65,30.462,30.462,0,0,0,5.1-4.745,24.408,24.408,0,0,0,3.391-5.145,18.156,18.156,0,0,0,1.4-3.456c.207-.826.369-1.677.547-2.534a4.38,4.38,0,0,0,.046-.437v-1.192C1539.593,168.414,1539.576,168.108,1539.525,167.841Z" fill="#fff"/>
      <path id="Path_840" data-name="Path 840" d="M1519.758,185.2l.013,0Z" fill="#323e48"/>
    </g>
    <path id="Path_841" data-name="Path 841" d="M1510.8,175.42l.494.009c-.233-.672-.533-1.49-.731-2.143a11.805,11.805,0,0,1-.636-3.429c0-.1,0-.2.007-.3.015-.341.015-.672.028-.987a5.207,5.207,0,0,1,.1-.889,9.048,9.048,0,0,1,.836-2.323,7.458,7.458,0,0,1,1.489-1.951,7.665,7.665,0,0,1,2.376-1.553,7.066,7.066,0,0,1,2.677-.509,8.808,8.808,0,0,1,1.315.1,7.427,7.427,0,0,1,2.34.766,8.531,8.531,0,0,1,2,1.478c.419.412.847.805,1.271,1.206l.319-.337-.3-.355c-.009.008-.018.015-.033.03s-.017.017-.035.038a.514.514,0,0,0-.039.056.475.475,0,0,0-.035.069.476.476,0,0,0,0,.343.485.485,0,0,0,.092.145.468.468,0,0,0,.2.125.5.5,0,0,0,.143.023.459.459,0,0,0,.126-.018.432.432,0,0,0,.085-.033.5.5,0,0,0,.051-.03l.039-.028a.573.573,0,0,0,.092-.1l0,0,0,0a9.456,9.456,0,0,1,1.708-1.676,8.916,8.916,0,0,1,2.117-1.269,6.614,6.614,0,0,1,2.379-.507c.123,0,.246,0,.368,0a9.278,9.278,0,0,1,1.532.115,5.833,5.833,0,0,1,1.439.428,7.716,7.716,0,0,1,3.1,2.426,8.76,8.76,0,0,1,1.529,3.655c.052.272.068.584.106.925l0-.052v1.222l0-.048c-.019.2-.023.353-.047.461-.177.849-.337,1.69-.542,2.508a17.928,17.928,0,0,1-1.381,3.42,24.136,24.136,0,0,1-3.355,5.092,30.119,30.119,0,0,1-5.053,4.7,32.816,32.816,0,0,1-4.142,2.622.606.606,0,0,1-.122.051.288.288,0,0,1-.081.012.331.331,0,0,1-.09-.014.762.762,0,0,1-.139-.06,33.751,33.751,0,0,1-6.6-4.637,51.62,51.62,0,0,1-4.9-5.781l-.491,0-.5.026a.628.628,0,0,0,.008.083,1.392,1.392,0,0,0,.127.249,29.7,29.7,0,0,0,5.127,6.108,34.671,34.671,0,0,0,6.783,4.765,1.631,1.631,0,0,0,.319.134,1.249,1.249,0,0,0,.351.052,1.228,1.228,0,0,0,.33-.046,1.529,1.529,0,0,0,.309-.126,33.745,33.745,0,0,0,4.259-2.695,31.139,31.139,0,0,0,5.207-4.841,25.074,25.074,0,0,0,3.483-5.288,18.764,18.764,0,0,0,1.447-3.6c.213-.853.375-1.707.55-2.545a5.167,5.167,0,0,0,.062-.555l0-.024V168.84l0-.026c-.035-.3-.049-.636-.117-1a9.684,9.684,0,0,0-1.7-4.036,8.639,8.639,0,0,0-3.465-2.717,6.815,6.815,0,0,0-1.666-.5,10.185,10.185,0,0,0-1.686-.127c-.131,0-.261,0-.391.005a7.545,7.545,0,0,0-2.709.576,9.85,9.85,0,0,0-2.338,1.4,10.393,10.393,0,0,0-1.873,1.843h0l.282.216-.233-.268a.323.323,0,0,0-.049.052l.282.216-.233-.268.254.291-.225-.314c-.014.01-.022.017-.029.023l.254.291-.225-.314.256.358-.219-.382-.037.024.256.358-.219-.382.228.4-.179-.422c-.025.011-.038.018-.049.024l.228.4-.179-.422.181.425-.125-.445a.528.528,0,0,0-.056.02l.181.425-.125-.445.125.447V164.1a.5.5,0,0,0-.125.017l.125.447v0l.124-.447a.463.463,0,0,0-.124-.017v.464l.124-.447-.124.447.253-.389a.447.447,0,0,0-.129-.058l-.124.447.253-.389-.253.389.421-.2a.463.463,0,0,0-.168-.193l-.253.389.421-.2-.421.2h.464a.467.467,0,0,0-.043-.2l-.421.2h0l.432.171a.455.455,0,0,0,.032-.171h-.464l.432.171-.43-.17.375.27a.474.474,0,0,0,.055-.1l-.43-.17.375.27-.368-.265.329.312a.4.4,0,0,0,.039-.047l-.368-.265.329.312-.295-.28.273.3.022-.021-.295-.28.273.3-.189-.208.182.215.007-.007-.189-.208.182.215.239-.657-.219-.035c-.431-.408-.855-.8-1.26-1.195a9.448,9.448,0,0,0-2.224-1.638,8.377,8.377,0,0,0-2.63-.861,9.688,9.688,0,0,0-1.455-.113,8,8,0,0,0-3.026.576,8.615,8.615,0,0,0-2.663,1.737,8.423,8.423,0,0,0-1.673,2.192,10.022,10.022,0,0,0-.923,2.559,6.141,6.141,0,0,0-.121,1.05c-.014.341-.014.671-.028.984-.005.116-.008.231-.008.345a12.721,12.721,0,0,0,.676,3.7c.211.694.4,1.216.625,1.87Z" fill="#7eaf00"/>
  </g>
</svg>
