<svg id="Group_133" data-name="Group 133" xmlns="http://www.w3.org/2000/svg" width="24.267rem" height="25rem" viewBox="0 0 24.267 25">
  <g id="Group_130" data-name="Group 130" transform="translate(0 8.95)">
    <line id="Line_18" data-name="Line 18" x2="14.563" transform="translate(9.222 3.604)" fill="none" stroke="#7eaf00" stroke-linecap="round" stroke-linejoin="round" stroke-width="0.965"/>
    <path id="Path_366" data-name="Path 366" d="M581.724,26.5a3.6,3.6,0,1,0,3.6,3.6A3.6,3.6,0,0,0,581.724,26.5Zm1.61,5.379h-3.09v-.792c1.707-1.235,2.026-1.507,2.026-1.9,0-.271-.253-.413-.561-.413a1.46,1.46,0,0,0-1.034.431l-.561-.673a2.172,2.172,0,0,1,1.595-.656c.928,0,1.6.52,1.6,1.311,0,.6-.431,1.117-1.489,1.8h1.519Z" transform="translate(-578.121 -26.505)" fill="#84bd00"/>
  </g>
  <g id="Group_131" data-name="Group 131" transform="translate(0 17.793)">
    <line id="Line_19" data-name="Line 19" x2="14.563" transform="translate(9.222 3.603)" fill="none" stroke="#7eaf00" stroke-linecap="round" stroke-linejoin="round" stroke-width="0.965"/>
    <path id="Path_367" data-name="Path 367" d="M581.724,35.348a3.6,3.6,0,1,0,3.6,3.6A3.6,3.6,0,0,0,581.724,35.348Zm0,5.6a2.09,2.09,0,0,1-1.6-.609l.505-.656a1.613,1.613,0,0,0,1.056.418c.43,0,.65-.174.65-.4s-.162-.354-.69-.354c-.168,0-.465.006-.523.012V38.5c.076.006.378.006.523.006.4,0,.626-.116.626-.331,0-.243-.278-.371-.649-.371a1.5,1.5,0,0,0-.976.383l-.47-.61a2,2,0,0,1,1.55-.627c.987,0,1.538.424,1.538,1.063a.943.943,0,0,1-.847.871.97.97,0,0,1,.911.917C583.326,40.481,582.687,40.951,581.724,40.951Z" transform="translate(-578.121 -35.348)" fill="#84bd00"/>
  </g>
  <g id="Group_132" data-name="Group 132">
    <line id="Line_20" data-name="Line 20" x2="14.563" transform="translate(9.222 3.603)" fill="none" stroke="#7eaf00" stroke-linecap="round" stroke-linejoin="round" stroke-width="0.965"/>
    <path id="Path_368" data-name="Path 368" d="M581.724,17.555a3.6,3.6,0,1,0,3.6,3.6A3.6,3.6,0,0,0,581.724,17.555Zm.706,5.6H581.4v-2.68l-.671.677-.588-.617,1.4-1.38h.894Z" transform="translate(-578.121 -17.555)" fill="#84bd00"/>
  </g>
</svg>
