<svg xmlns="http://www.w3.org/2000/svg" width="26.717rem" height="26.04rem" viewBox="0 0 26.717 26.04">
  <g id="Group_137" data-name="Group 137" transform="translate(0.5 0.54)">
    <g id="Group_135" data-name="Group 135" transform="translate(5.977)">
      <path id="Path_369" data-name="Path 369" d="M1067.284,36.9a4.533,4.533,0,0,1-4.447-5.372l-4.982-5.067a4.532,4.532,0,0,1-5.517-5.747l.208-.656,2.3,2.3a.808.808,0,0,0,1.14,0l.936-.936a.809.809,0,0,0,0-1.141l-2.3-2.3.657-.209a4.531,4.531,0,0,1,5.829,5.157l4.983,5.067a4.532,4.532,0,0,1,5.517,5.746l-.209.657-2.3-2.3a.808.808,0,0,0-1.14,0l-.936.936a.807.807,0,0,0,0,1.14l2.3,2.3-.657.209A4.548,4.548,0,0,1,1067.284,36.9Z" transform="translate(-1052.123 -17.555)" fill="none" stroke="#7eaf00" stroke-linecap="round" stroke-linejoin="round" stroke-width="1"/>
    </g>
    <g id="Group_136" data-name="Group 136" transform="translate(0 7.687)">
      <path id="Path_370" data-name="Path 370" d="M1055.587,37.564a4.476,4.476,0,0,1-4.436-4.516,4.166,4.166,0,0,1,2.727-4.08c.07-.02-3.758-3.726-3.758-3.726l-2.376,2.333,1.2,1.219-.994,2.657-1.771-.02-.03,3.33,1.708.016,1.175,2.581-1.263,1.24,2.333,2.375,1.219-1.2,2.666,1-.016,1.747,3.33.03.015-1.708,2.582-1.176,1.239,1.264,2.376-2.334-3.759-3.781A4.079,4.079,0,0,1,1055.587,37.564Z" transform="translate(-1046.146 -25.242)" fill="none" stroke="#7eaf00" stroke-linecap="round" stroke-linejoin="round" stroke-width="1"/>
    </g>
  </g>
</svg>
