<svg xmlns="http://www.w3.org/2000/svg" xmlns:xlink="http://www.w3.org/1999/xlink" width="18.047" height="18" viewBox="0 0 18.047 18">
  <defs>
    <clipPath id="clip-path">
      <rect id="Rectangle_297" data-name="Rectangle 297" width="18.047" height="18" fill="none"/>
    </clipPath>
  </defs>
  <g id="Group_282" data-name="Group 282" transform="translate(0 0)">
    <g id="Group_281" data-name="Group 281" transform="translate(0 0)" clip-path="url(#clip-path)">
      <path id="Path_994" data-name="Path 994" d="M.51,10.5a.3.3,0,0,1-.219-.091.313.313,0,0,1,0-.441L2.373,7.891a.312.312,0,1,1,.441.441L.73,10.413A.3.3,0,0,1,.51,10.5" transform="translate(0.114 4.429)" fill="#252f38"/>
      <path id="Path_995" data-name="Path 995" d="M2.278,12.27a.3.3,0,0,1-.219-.091.31.31,0,0,1,0-.441l2.08-2.082a.312.312,0,1,1,.441.441L2.5,12.179a.3.3,0,0,1-.219.091" transform="translate(1.117 5.431)" fill="#252f38"/>
      <path id="Path_996" data-name="Path 996" d="M.731,12.8A.3.3,0,0,1,.511,12.7a.31.31,0,0,1,0-.441L4.647,8.127a.312.312,0,1,1,.441.441L.95,12.7a.3.3,0,0,1-.219.091" transform="translate(0.238 4.563)" fill="#252f38"/>
      <path id="Path_997" data-name="Path 997" d="M.312,10.3a.3.3,0,0,1-.219-.091.31.31,0,0,1,0-.441L2.171,7.691a.312.312,0,0,1,.441.441L.53,10.213a.3.3,0,0,1-.218.091" transform="translate(0 4.315)" fill="#0072b2"/>
      <path id="Path_998" data-name="Path 998" d="M2.078,12.07a.3.3,0,0,1-.219-.091.31.31,0,0,1,0-.441l2.08-2.082a.312.312,0,0,1,.441.441L2.3,11.979a.3.3,0,0,1-.219.091" transform="translate(1.003 5.318)" fill="#0072b2"/>
      <path id="Path_999" data-name="Path 999" d="M.531,12.6A.3.3,0,0,1,.311,12.5a.31.31,0,0,1,0-.441L4.447,7.927a.312.312,0,0,1,.441.441L.75,12.5a.3.3,0,0,1-.219.091" transform="translate(0.125 4.449)" fill="#0072b2"/>
      <path id="Path_1000" data-name="Path 1000" d="M.91,7.268,7.667,9.726a.314.314,0,0,1,.187.187l2.458,6.759L16.632.948Z" transform="translate(0.517 0.538)" fill="#252f38"/>
      <path id="Path_1001" data-name="Path 1001" d="M10.59,17.507h-.011a.614.614,0,0,1-.569-.408L7.6,10.466.962,8.052A.616.616,0,0,1,.941,6.9L16.687.57a.618.618,0,0,1,.8.8L11.162,17.12a.613.613,0,0,1-.572.387M1.186,7.472,7.945,9.93a.314.314,0,0,1,.187.187l2.458,6.759,6.32-15.724Z" transform="translate(0.315 0.298)" fill="#252f38"/>
      <path id="Path_1002" data-name="Path 1002" d="M10.59,17.507h-.011a.614.614,0,0,1-.569-.408L7.6,10.466.962,8.052A.616.616,0,0,1,.941,6.9L16.687.57a.618.618,0,0,1,.8.8L11.162,17.12A.613.613,0,0,1,10.59,17.507ZM1.186,7.472,7.945,9.93a.314.314,0,0,1,.187.187l2.458,6.759,6.32-15.724Z" transform="translate(0.315 0.298)" fill="none" stroke="#252f38" stroke-miterlimit="10" stroke-width="0.25"/>
      <path id="Path_1003" data-name="Path 1003" d="M.51,6.868,7.267,9.326a.31.31,0,0,1,.187.187l2.46,6.759L16.232.548Z" transform="translate(0.29 0.311)" fill="#fff"/>
      <path id="Path_1004" data-name="Path 1004" d="M10.19,17.107h-.011a.614.614,0,0,1-.569-.408L7.2,10.066.562,7.652A.616.616,0,0,1,.541,6.5L16.287.17a.618.618,0,0,1,.8.8L10.762,16.72a.613.613,0,0,1-.572.387M.786,7.072,7.545,9.53a.314.314,0,0,1,.187.187l2.458,6.759L16.509.752Z" transform="translate(0.087 0.071)" fill="#0072b2"/>
      <path id="Path_1005" data-name="Path 1005" d="M10.19,17.107h-.011a.614.614,0,0,1-.569-.408L7.2,10.066.562,7.652A.616.616,0,0,1,.541,6.5L16.287.17a.618.618,0,0,1,.8.8L10.762,16.72A.613.613,0,0,1,10.19,17.107ZM.786,7.072,7.545,9.53a.314.314,0,0,1,.187.187l2.458,6.759L16.509.752Z" transform="translate(0.087 0.071)" fill="none" stroke="#0072b2" stroke-miterlimit="10" stroke-width="0.25"/>
    </g>
  </g>
</svg>
