<svg xmlns="http://www.w3.org/2000/svg" width="30.597rem" height="30.596rem" viewBox="0 0 30.597 30.596">
  <g id="Group_79" data-name="Group 79" transform="translate(-1612.974 -160.414)">
    <g id="Group_76" data-name="Group 76">
      <circle id="Ellipse_1" data-name="Ellipse 1" cx="14.509" cy="14.509" r="14.509" transform="translate(1614.101 161.534)" fill="#a2a4a4"/>
      <path id="Path_842" data-name="Path 842" d="M1613.98,176.01h.409a14.183,14.183,0,1,1,4.154,10.028,14.132,14.132,0,0,1-4.154-10.028h-.818a15,15,0,1,0,15-15,15,15,0,0,0-15,15Z" fill="#a2a4a4"/>
      <path id="Path_843" data-name="Path 843" d="M1614.759,179.946h2.973a.461.461,0,0,0,0-.922h-2.973a.461.461,0,1,0,0,.922" fill="#a2a4a4"/>
      <path id="Path_844" data-name="Path 844" d="M1629.031,164.735v-2.974a.461.461,0,0,0-.921,0v2.974a.461.461,0,0,0,.921,0" fill="#a2a4a4"/>
      <path id="Path_845" data-name="Path 845" d="M1620.212,168.407l-2.1-2.1a.461.461,0,0,0-.651.652l2.1,2.1a.46.46,0,0,0,.651-.651" fill="#a2a4a4"/>
      <path id="Path_846" data-name="Path 846" d="M1624.419,165.436l-1.311-2.669a.461.461,0,0,0-.827.406l1.312,2.669a.46.46,0,1,0,.826-.406" fill="#a2a4a4"/>
      <path id="Path_847" data-name="Path 847" d="M1617.58,173.264l-2.945-.409a.46.46,0,1,0-.127.912l2.945.409a.46.46,0,1,0,.127-.912" fill="#a2a4a4"/>
      <path id="Path_848" data-name="Path 848" d="M1642.378,179.946h-2.973a.461.461,0,1,1,0-.922h2.973a.461.461,0,0,1,0,.922" fill="#a2a4a4"/>
      <path id="Path_849" data-name="Path 849" d="M1636.924,168.407l2.1-2.1a.461.461,0,0,1,.651.652l-2.1,2.1a.461.461,0,0,1-.652-.651" fill="#a2a4a4"/>
      <path id="Path_850" data-name="Path 850" d="M1632.717,165.436l1.311-2.669a.461.461,0,0,1,.827.406l-1.311,2.669a.461.461,0,0,1-.827-.406" fill="#a2a4a4"/>
      <path id="Path_851" data-name="Path 851" d="M1639.557,173.264l2.945-.409a.46.46,0,0,1,.127.912l-2.946.409a.46.46,0,1,1-.126-.912" fill="#a2a4a4"/>
      <path id="Path_852" data-name="Path 852" d="M1638.789,163.18a.561.561,0,0,0-.038-.2.736.736,0,0,0-.146-.233,1.052,1.052,0,0,0-.282-.218.918.918,0,0,0-.17-.07.726.726,0,0,0-.208-.032.574.574,0,0,0-.231.047.527.527,0,0,0-.207.162h0l-9.566,12.1a2.05,2.05,0,0,0-1.041.649,2.015,2.015,0,0,0-.489,1.315,2.1,2.1,0,0,0,.107.658h0a2.057,2.057,0,0,0,1.42,1.333h0a2.162,2.162,0,0,0,.535.068,2.047,2.047,0,0,0,1.413-.563,2.026,2.026,0,0,0,.62-1.265c.03-.047.069-.111.122-.2,1.186-1.921,8.08-13.271,8.081-13.272h0A.538.538,0,0,0,1638.789,163.18Z" fill="#a2a4a4"/>
    </g>
    <g id="Group_78" data-name="Group 78">
      <g id="Group_77" data-name="Group 77">
        <circle id="Ellipse_2" data-name="Ellipse 2" cx="14.509" cy="14.509" r="14.509" transform="translate(1613.505 160.938)" fill="#fff"/>
        <path id="Path_853" data-name="Path 853" d="M1613.383,175.414h.41a14.181,14.181,0,1,1,4.153,10.028,14.132,14.132,0,0,1-4.153-10.028h-.819a15,15,0,1,0,15-15,15,15,0,0,0-15,15Z" fill="#7db02d"/>
        <path id="Path_854" data-name="Path 854" d="M1614.162,179.349h2.974a.461.461,0,0,0,0-.921h-2.974a.461.461,0,0,0,0,.921" fill="#7db02d"/>
        <path id="Path_855" data-name="Path 855" d="M1628.435,164.138v-2.973a.461.461,0,1,0-.921,0v2.973a.461.461,0,1,0,.921,0" fill="#7db02d"/>
        <path id="Path_856" data-name="Path 856" d="M1619.616,167.81l-2.1-2.1a.461.461,0,0,0-.652.651l2.1,2.1a.461.461,0,1,0,.651-.652" fill="#7db02d"/>
        <path id="Path_857" data-name="Path 857" d="M1623.823,164.84l-1.311-2.669a.461.461,0,0,0-.827.406l1.311,2.669a.461.461,0,0,0,.827-.406" fill="#7db02d"/>
        <path id="Path_858" data-name="Path 858" d="M1616.984,172.668l-2.946-.409a.46.46,0,0,0-.126.912l2.945.409a.46.46,0,1,0,.127-.912" fill="#7db02d"/>
        <path id="Path_859" data-name="Path 859" d="M1641.782,179.349h-2.974a.461.461,0,0,1,0-.921h2.974a.461.461,0,0,1,0,.921" fill="#7db02d"/>
        <path id="Path_860" data-name="Path 860" d="M1636.328,167.81l2.1-2.1a.461.461,0,0,1,.652.651l-2.1,2.1a.461.461,0,1,1-.651-.652" fill="#7db02d"/>
        <path id="Path_861" data-name="Path 861" d="M1632.121,164.84l1.311-2.669a.461.461,0,0,1,.827.406l-1.311,2.669a.461.461,0,0,1-.827-.406" fill="#7db02d"/>
        <path id="Path_862" data-name="Path 862" d="M1638.96,172.668l2.946-.409a.46.46,0,1,1,.126.912l-2.945.409a.46.46,0,1,1-.127-.912" fill="#7db02d"/>
        <path id="Path_863" data-name="Path 863" d="M1638.193,162.584a.583.583,0,0,0-.038-.2.76.76,0,0,0-.147-.234,1.032,1.032,0,0,0-.282-.217.88.88,0,0,0-.169-.07.7.7,0,0,0-.209-.032.57.57,0,0,0-.23.046.537.537,0,0,0-.207.163h0l-9.566,12.1a2.058,2.058,0,0,0-1.041.65,2.008,2.008,0,0,0-.489,1.314,2.086,2.086,0,0,0,.106.658h0a2.052,2.052,0,0,0,1.42,1.333h0a2.106,2.106,0,0,0,.535.069,2.053,2.053,0,0,0,1.413-.563,2.03,2.03,0,0,0,.619-1.265l.123-.2c1.186-1.922,8.08-13.271,8.08-13.272h0A.533.533,0,0,0,1638.193,162.584Z" fill="#1d252d"/>
      </g>
    </g>
  </g>
</svg>
