<svg id="Group_360" data-name="Group 360" xmlns="http://www.w3.org/2000/svg" xmlns:xlink="http://www.w3.org/1999/xlink" width="62.245rem" height="57.598rem" viewBox="0 0 62.245 57.598">
  <defs>
    <clipPath id="clip-path">
      <rect id="Rectangle_332" data-name="Rectangle 332" width="62.245rem" height="57.598rem" fill="none"/>
    </clipPath>
  </defs>
  <g id="Group_359" data-name="Group 359" transform="translate(0 0)" clip-path="url(#clip-path)">
    <path id="Path_1237" data-name="Path 1237" d="M61.251,18.647l.681-.148a5.549,5.549,0,0,0-.691-1.6,5.791,5.791,0,0,0-2.922-2.407,22.019,22.019,0,0,0-4.54-1.244l-.052,0h0a3.18,3.18,0,0,1-1.142-.372,4.044,4.044,0,0,1-1.763-1.961A8.239,8.239,0,0,0,47.58,7.593a13.743,13.743,0,0,0-2.19-1.1l-.243.653.389-.577-.183-.125c-.412-.284-1.454-1.016-2.388-1.77A14.141,14.141,0,0,1,41.75,3.594a3.254,3.254,0,0,1-.343-.4l-.064-.106,0-.007-.167.065.175-.019-.009-.046-.167.065.175-.019a1.476,1.476,0,0,0-.315-.749,2.233,2.233,0,0,0-.859-.643,2.586,2.586,0,0,0-1.02-.224,1.623,1.623,0,0,0-.988.3,1.334,1.334,0,0,0-.511,1.082l.006.149v0c.027.3.1.679.2,1.169a30.756,30.756,0,0,1,.8,5.77,5.145,5.145,0,0,1-.561,2.7,11.743,11.743,0,0,1-2.5,2.86,5,5,0,0,1-4.233,1.11,3.845,3.845,0,0,1-2.718-1.937,4.883,4.883,0,0,1-.457-1.084c-.042-.143-.067-.26-.082-.337l-.016-.085,0-.018-.052.007.052-.006h0l-.052.007.052-.006-.039-.155a14.029,14.029,0,0,0-.584-1.316,6.106,6.106,0,0,0-.6-.968,2.186,2.186,0,0,0-.406-.409,1.15,1.15,0,0,0-.684-.245.994.994,0,0,0-.623.225,1.348,1.348,0,0,0-.352.456c-.189.38-.454,1.029-.774,1.861-.477,1.241-1.059,2.857-1.565,4.344s-.934,2.832-1.112,3.587c-.126.546-.23,1.421-.41,2.595-.529,3.5-1.7,9.442-5.258,13.775a53.078,53.078,0,0,1-6.635,6.771c-.9.762-1.642,1.339-2.159,1.722-.259.192-.461.336-.6.431l-.153.106L6.095,46h0a27.286,27.286,0,0,0-2.2,1.664,12.925,12.925,0,0,0-1.555,1.522,4.777,4.777,0,0,0-.565.826,2.076,2.076,0,0,0-.262.95,7.754,7.754,0,0,0,.85,3.506,4.939,4.939,0,0,0,1.477,1.714,4.73,4.73,0,0,0,2.489.842c1.11.068,2.747.273,4.752.274a26.394,26.394,0,0,0,16.19-5.558c9.225-6.809,15.264-12.187,20.913-16.2,5.786-4.127,11.451-10.314,13.727-16.655a.715.715,0,0,0,.025-.382l-.681.148-.656-.234C58.489,24.339,52.98,30.422,47.373,34.4c-5.744,4.09-11.755,9.447-20.933,16.22a24.973,24.973,0,0,1-15.363,5.285c-1.914,0-3.483-.2-4.665-.271a3.331,3.331,0,0,1-1.77-.588,3.977,3.977,0,0,1-1.386-2A6.75,6.75,0,0,1,2.9,50.963a.778.778,0,0,1,.1-.307,5,5,0,0,1,.86-1.082A18.881,18.881,0,0,1,5.819,47.91c.3-.228.565-.416.752-.548l.218-.151.075-.051,0,0a49.755,49.755,0,0,0,9.9-9.342,25.734,25.734,0,0,0,4.725-10.162c.4-1.617.651-3.1.831-4.285s.3-2.1.388-2.486c.2-.861.888-2.956,1.594-4.952.355-1,.716-1.987,1.028-2.8s.579-1.459.719-1.737l.016-.029-.2-.152.124.215.079-.063-.2-.152.124.215-.208-.358v.414l.208-.056-.208-.358v.066l-.132.324.132.024v-.348l-.132.324.063-.156-.083.147.02.01.063-.156-.083.147h0a1.64,1.64,0,0,1,.3.381,8.559,8.559,0,0,1,.567,1.09c.076.172.139.323.182.43s.064.166.064.166l.653-.245-.691.09a6.039,6.039,0,0,0,.731,2.037,5.255,5.255,0,0,0,3.661,2.61,6.384,6.384,0,0,0,5.352-1.377,13.071,13.071,0,0,0,2.813-3.2,6.421,6.421,0,0,0,.788-3.46,24.434,24.434,0,0,0-.485-4.325c-.123-.653-.247-1.243-.343-1.722s-.166-.854-.178-1.009v-.06l-.081-.017.066.047.015-.03-.081-.017.066.047-.1-.067.07.094.026-.027-.1-.067.07.094L39,2.907l.009.016,0,0L39,2.907l.009.016.148-.021a1.229,1.229,0,0,1,.6.18l.181.151.026.042,0,.006.016,0h-.016v0l.016,0h-.016a1.669,1.669,0,0,0,.357.792,8.182,8.182,0,0,0,1.153,1.173,40.9,40.9,0,0,0,3.283,2.479l.148.076.032.013A12.723,12.723,0,0,1,47.048,8.9a6.694,6.694,0,0,1,2.506,2.585,5.4,5.4,0,0,0,2.531,2.69,4.314,4.314,0,0,0,1.575.455l.033-.7-.087.69.064.01a21.608,21.608,0,0,1,4.159,1.157,4.381,4.381,0,0,1,2.227,1.837,4.723,4.723,0,0,1,.415.847c.04.108.066.194.081.249l.016.059,0,.012.18-.043-.181.04v0l.18-.043-.181.04.681-.148-.656-.234Z" transform="translate(0.106 0.105)" fill="#252f38"/>
    <path id="Path_1238" data-name="Path 1238" d="M28.5,51.584H45.377a.662.662,0,0,0,0-1.325H28.5a.662.662,0,0,0,0,1.325" transform="translate(1.948 3.419)" fill="#333f48"/>
    <path id="Path_1239" data-name="Path 1239" d="M34.794,47.68H51.67a.662.662,0,1,0,0-1.325H34.794a.662.662,0,1,0,0,1.325" transform="translate(2.389 3.146)" fill="#333f48"/>
    <path id="Path_1240" data-name="Path 1240" d="M41.087,43.777H57.963a.662.662,0,1,0,0-1.325H41.087a.662.662,0,0,0,0,1.325" transform="translate(2.829 2.872)" fill="#333f48"/>
    <path id="Path_1241" data-name="Path 1241" d="M35.118,2.959v0h0Z" transform="translate(2.458 0.207)" fill="#252f38"/>
    <path id="Path_1242" data-name="Path 1242" d="M62.132,18.471a5.754,5.754,0,0,0-.715-1.662A5.988,5.988,0,0,0,58.4,14.322a22.2,22.2,0,0,0-4.584-1.254l-.059-.005-.074-.009a3.2,3.2,0,0,1-1.158-.434,3.9,3.9,0,0,1-1.517-1.778,8.424,8.424,0,0,0-3.313-3.4,14.145,14.145,0,0,0-2.115-1.074l-.1-.071c-.41-.282-1.45-1.013-2.378-1.761a13.83,13.83,0,0,1-1.2-1.062,3.135,3.135,0,0,1-.324-.378l-.047-.077,0,0a1.711,1.711,0,0,0-.328-.75,2.4,2.4,0,0,0-.933-.7,2.74,2.74,0,0,0-1.1-.24,1.8,1.8,0,0,0-1.1.341,1.527,1.527,0,0,0-.587,1.235l.007.165a11.977,11.977,0,0,0,.2,1.19,30.634,30.634,0,0,1,.8,5.732,4.974,4.974,0,0,1-.53,2.595A11.551,11.551,0,0,1,35.495,15.4a5.026,5.026,0,0,1-3.13,1.165,4.952,4.952,0,0,1-.948-.093,3.654,3.654,0,0,1-2.588-1.843,4.749,4.749,0,0,1-.439-1.041c-.04-.138-.064-.249-.078-.322l-.015-.078,0-.014-.048-.195a14.43,14.43,0,0,0-.594-1.336,6.276,6.276,0,0,0-.617-1,2.38,2.38,0,0,0-.443-.444,1.333,1.333,0,0,0-.8-.282,1.189,1.189,0,0,0-.745.266,1.559,1.559,0,0,0-.4.52c-.195.394-.459,1.043-.78,1.878-.478,1.244-1.061,2.862-1.568,4.351s-.935,2.835-1.118,3.6c-.131.567-.232,1.438-.412,2.61-.525,3.49-1.7,9.4-5.216,13.682a52.83,52.83,0,0,1-6.611,6.746c-.893.76-1.635,1.333-2.15,1.714-.257.19-.458.333-.593.427l-.151.1L6,45.852l0,0A27.28,27.28,0,0,0,3.78,47.531,12.916,12.916,0,0,0,2.2,49.076a4.934,4.934,0,0,0-.588.861,2.262,2.262,0,0,0-.285,1.039,7.969,7.969,0,0,0,.873,3.6,5.117,5.117,0,0,0,1.535,1.779,4.923,4.923,0,0,0,2.588.878c1.1.067,2.747.273,4.764.273a26.581,26.581,0,0,0,16.3-5.594c9.232-6.815,15.275-12.2,20.911-16.2,5.811-4.146,11.5-10.348,13.8-16.747a.9.9,0,0,0,.031-.488" transform="translate(0.093 0.093)" fill="#333f48"/>
    <path id="Path_1243" data-name="Path 1243" d="M59.876,17.272A5.218,5.218,0,0,0,56.7,13.767a21.383,21.383,0,0,0-4.382-1.2,4.388,4.388,0,0,1-3.505-2.739c-1.206-2.629-5.04-4.053-5.04-4.053s-4.382-2.957-4.491-3.944-2.411-1.533-2.3-.218,1.971,7.558.328,10.078-4.053,4.929-7.449,4.271A4.9,4.9,0,0,1,26.027,11.9S24.712,8.4,24.055,9.714a89.735,89.735,0,0,0-3.4,9.64C20.22,21.216,19.783,29.98,14.853,36a49.093,49.093,0,0,1-9.75,9.2S.831,48.055.831,49.588s.658,5.149,4.163,5.368S16.277,56.6,25.479,49.808,40.706,37.648,46.4,33.6,57.685,23.407,59.876,17.272" transform="translate(0.058 0.058)" fill="#fff"/>
    <path id="Path_1244" data-name="Path 1244" d="M52.559,15.876a.463.463,0,0,0-.655.048l-6.243,7.23a.464.464,0,1,0,.7.607l6.244-7.23a.465.465,0,0,0-.048-.655" transform="translate(3.188 1.103)" fill="#84bd00"/>
    <path id="Path_1245" data-name="Path 1245" d="M52.359,14.075c.8-.906,1.294-1.459,1.3-1.461A.464.464,0,0,0,52.96,12s-4.038,4.543-7.824,8.9a34.332,34.332,0,0,1-.446-4.515,3.88,3.88,0,0,1,.167-1.362,8.183,8.183,0,0,1,.821-1.228c.606-.8,1.412-1.758,2.064-2.516s1.15-1.311,1.151-1.312a.464.464,0,0,0-.69-.621s-.9,1-1.862,2.147c-.484.575-.984,1.188-1.4,1.739a8.673,8.673,0,0,0-.927,1.406,4.523,4.523,0,0,0-.249,1.746c0,.464.027.975.07,1.494a15.7,15.7,0,0,1-3.747,1.667c-.093.025-.2.058-.293.087.013-.319.031-.649.031-.943,0-3.182-.7-4.91-1.478-5.857a2.637,2.637,0,0,0-1.694-1.053.463.463,0,0,0-.08.923h0a1.116,1.116,0,0,1,.338.119A2.821,2.821,0,0,1,38.118,14.2a10.39,10.39,0,0,1,.777,4.488c0,.382-.018.806-.041,1.238-.581.195-1.189.408-1.789.6a10.123,10.123,0,0,1-2.731.61A1.112,1.112,0,0,1,33.7,21a3.5,3.5,0,0,1-.662-.735,13.951,13.951,0,0,0-1.37-1.717,3.135,3.135,0,0,0-2.22-1.007,3.23,3.23,0,0,0-.876.126c-.642.181-1.127.291-1.511.388a4.431,4.431,0,0,0-.74.24,1.3,1.3,0,0,0-.44.322,1.4,1.4,0,0,0-.3.766,5.891,5.891,0,0,0-.034.637,12.321,12.321,0,0,1-4.158-3.261.464.464,0,1,0-.717.59,13.318,13.318,0,0,0,4.857,3.688A20.4,20.4,0,0,1,25,24.87a10.7,10.7,0,0,1-4.347-3.219.464.464,0,0,0-.717.59,11.6,11.6,0,0,0,4.835,3.535A21.771,21.771,0,0,1,23.72,28.7a10.745,10.745,0,0,1-4.126-3.129.464.464,0,1,0-.717.59,11.683,11.683,0,0,0,4.451,3.379A21.934,21.934,0,0,1,21.3,32.884a10.385,10.385,0,0,1-3.419-2.828.465.465,0,1,0-.718.59,11.378,11.378,0,0,0,3.55,2.98,23.759,23.759,0,0,1-2.649,2.8A3.1,3.1,0,0,1,16.6,35.381a3.305,3.305,0,0,1-.468-.843,2.681,2.681,0,0,1-.087-.27l-.017-.068,0-.014a.464.464,0,1,0-.914.162,4.013,4.013,0,0,0,.752,1.6,4.072,4.072,0,0,0,2.093,1.413.458.458,0,0,0,.195.062,5.387,5.387,0,0,0,1.241.164c1.652.041,4.693.244,7.31.438,1.531.113,2.9.221,3.792.293a46.86,46.86,0,0,1-9.627,7.877,54.083,54.083,0,0,1-12.57,5.388c-1.683.483-3.074.791-4.041.978-.484.094-.861.158-1.117.2s-.384.056-.385.056a.464.464,0,0,0,.114.921,52.9,52.9,0,0,0,18.473-6.743,48.792,48.792,0,0,0,10.38-8.622.46.46,0,0,0,.271-.286c.55-.59,1.089-1.181,1.607-1.771,3.4-3.866,6.118-7.63,8.127-10.017,2.022-2.4,5.006-5.827,7.483-8.647,1.239-1.409,2.351-2.669,3.153-3.576M36.579,12.7Zm4.432,13c-2.045,2.433-4.748,6.173-8.114,10-.513.583-1.045,1.167-1.589,1.75-1.5-.123-8.869-.72-11.9-.794-.079,0-.149-.013-.224-.017a24.626,24.626,0,0,0,2.4-2.627,5.352,5.352,0,0,0,1.794.389h.024a.464.464,0,1,0-.017-.928h-.006a4.445,4.445,0,0,1-1.2-.235A22.965,22.965,0,0,0,24.2,29.867a7.76,7.76,0,0,0,1.695.376.464.464,0,1,0,.062-.926l-.028,0a7.037,7.037,0,0,1-1.337-.3,22.71,22.71,0,0,0,1.061-2.948,7.132,7.132,0,0,0,1.3.257.464.464,0,1,0,.062-.927l-.028,0a6.654,6.654,0,0,1-1.106-.227,21.786,21.786,0,0,0,.561-3.766,9.741,9.741,0,0,0,1.529.429.464.464,0,1,0,.15-.916h0l-.034-.006a9.606,9.606,0,0,1-1.616-.489V20.4a6.043,6.043,0,0,1,.045-.991.343.343,0,0,1,.077-.193,1.349,1.349,0,0,1,.569-.226c.37-.1.916-.219,1.663-.429a2.3,2.3,0,0,1,.625-.091,1.919,1.919,0,0,1,1.091.346,5.8,5.8,0,0,1,1.348,1.447,6.775,6.775,0,0,0,1.272,1.494,1.991,1.991,0,0,0,1.172.31,10.8,10.8,0,0,0,3.017-.656c1.072-.349,2.153-.75,2.973-.97a16,16,0,0,0,3.607-1.547c.132,1.173.306,2.273.4,2.873a.294.294,0,0,0,.016.043c-1.221,1.408-2.384,2.764-3.335,3.895" transform="translate(0.164 0.643)" fill="#84bd00"/>
    <path id="Path_1246" data-name="Path 1246" d="M33.789,1.631v0Z" transform="translate(2.365 0.113)" fill="#0072b2"/>
    <path id="Path_1247" data-name="Path 1247" d="M60.8,17.141a5.707,5.707,0,0,0-.715-1.662,5.988,5.988,0,0,0-3.018-2.488,22.2,22.2,0,0,0-4.584-1.254l-.059-.005-.073-.01a3.155,3.155,0,0,1-1.158-.433A3.9,3.9,0,0,1,49.678,9.51a8.428,8.428,0,0,0-3.313-3.4,14.137,14.137,0,0,0-2.116-1.074l-.1-.071c-.41-.282-1.45-1.013-2.376-1.761a14.044,14.044,0,0,1-1.2-1.062,3.206,3.206,0,0,1-.323-.378L40.2,1.688l0,0a1.706,1.706,0,0,0-.328-.75,2.415,2.415,0,0,0-.933-.7,2.745,2.745,0,0,0-1.1-.24,1.8,1.8,0,0,0-1.1.341,1.53,1.53,0,0,0-.587,1.235l.007.165a11.925,11.925,0,0,0,.2,1.19,30.718,30.718,0,0,1,.8,5.732,4.988,4.988,0,0,1-.531,2.595,11.529,11.529,0,0,1-2.458,2.813,5.021,5.021,0,0,1-3.13,1.165,4.969,4.969,0,0,1-.948-.093A3.656,3.656,0,0,1,27.5,13.3a4.743,4.743,0,0,1-.438-1.042c-.04-.137-.064-.248-.079-.321l-.014-.078,0-.014h0l-.048-.195a14.255,14.255,0,0,0-.593-1.336,6.235,6.235,0,0,0-.618-1,2.373,2.373,0,0,0-.442-.444,1.336,1.336,0,0,0-.8-.282,1.187,1.187,0,0,0-.745.266,1.545,1.545,0,0,0-.4.52c-.2.394-.46,1.043-.781,1.878-.478,1.244-1.06,2.862-1.568,4.351s-.935,2.835-1.117,3.6c-.131.567-.232,1.438-.413,2.61-.525,3.49-1.7,9.4-5.216,13.682a52.832,52.832,0,0,1-6.61,6.746c-.895.76-1.635,1.332-2.15,1.714-.258.19-.458.333-.593.427l-.152.1-.046.031,0,0A27.4,27.4,0,0,0,2.45,46.2,13.07,13.07,0,0,0,.872,47.746a4.993,4.993,0,0,0-.588.861A2.261,2.261,0,0,0,0,49.646a7.948,7.948,0,0,0,.872,3.6,5.133,5.133,0,0,0,1.535,1.78A4.917,4.917,0,0,0,5,55.9c1.1.068,2.747.274,4.765.274a26.588,26.588,0,0,0,16.3-5.594c9.232-6.816,15.275-12.2,20.911-16.2,5.811-4.146,11.5-10.348,13.8-16.747a.892.892,0,0,0,.031-.488M45.944,32.928c-5.757,4.1-11.765,9.453-20.935,16.222A24.777,24.777,0,0,1,9.76,54.4c-1.9,0-3.46-.195-4.653-.27a3.145,3.145,0,0,1-1.67-.553,3.8,3.8,0,0,1-1.315-1.9,6.539,6.539,0,0,1-.343-2.024v-.007a1,1,0,0,1,.139-.314A5.773,5.773,0,0,1,2.8,48.283a19.554,19.554,0,0,1,1.875-1.578c.286-.214.533-.391.708-.514l.2-.141.065-.044A49.9,49.9,0,0,0,15.6,36.626a25.937,25.937,0,0,0,4.763-10.238c.4-1.625.653-3.112.835-4.3s.3-2.107.385-2.471c.1-.414.32-1.161.6-2.037.427-1.317.994-2.947,1.514-4.363.26-.708.508-1.363.72-1.9.063-.16.122-.306.179-.443.151.266.3.563.414.821.074.168.136.316.178.421l.033.086a6.319,6.319,0,0,0,.734,1.984,5.455,5.455,0,0,0,3.793,2.7,6.577,6.577,0,0,0,5.507-1.416,13.272,13.272,0,0,0,2.855-3.244,6.58,6.58,0,0,0,.819-3.566A24.56,24.56,0,0,0,38.443,4.3c-.122-.656-.247-1.248-.343-1.725-.066-.322-.117-.595-.147-.782a1.032,1.032,0,0,1,.385.133l.129.106a1.9,1.9,0,0,0,.383.832,8.324,8.324,0,0,0,1.181,1.2,40.518,40.518,0,0,0,3.3,2.494l.187.1.03.011a12.543,12.543,0,0,1,2.075,1.075,6.521,6.521,0,0,1,2.436,2.5,5.6,5.6,0,0,0,2.621,2.783,4.492,4.492,0,0,0,1.581.467h.011a21.025,21.025,0,0,1,4.17,1.153,4.2,4.2,0,0,1,2.13,1.758,4.5,4.5,0,0,1,.4.813c.011.029.013.041.021.065-2.151,5.788-7.551,11.734-13.05,15.635" transform="translate(0 0)" fill="#0072b2"/>
    <path id="Path_1248" data-name="Path 1248" d="M27.172,50.254H44.048a.662.662,0,1,0,0-1.325H27.172a.662.662,0,0,0,0,1.325" transform="translate(1.855 3.424)" fill="#0072b2"/>
    <path id="Path_1249" data-name="Path 1249" d="M33.465,46.351H50.341a.662.662,0,1,0,0-1.325H33.465a.662.662,0,1,0,0,1.325" transform="translate(2.296 3.151)" fill="#0072b2"/>
    <path id="Path_1250" data-name="Path 1250" d="M39.758,42.447H56.634a.662.662,0,1,0,0-1.325H39.758a.662.662,0,0,0,0,1.325" transform="translate(2.736 2.878)" fill="#0072b2"/>
  </g>
</svg>
