<svg id="Group_366" data-name="Group 366" xmlns="http://www.w3.org/2000/svg" xmlns:xlink="http://www.w3.org/1999/xlink" width="46.658" height="60.605" viewBox="0 0 46.658 60.605">
  <defs>
    <clipPath id="clip-path">
      <rect id="Rectangle_341" data-name="Rectangle 341" width="46.658" height="60.605" fill="none"/>
    </clipPath>
  </defs>
  <g id="Group_365" data-name="Group 365" transform="translate(0 0)" clip-path="url(#clip-path)">
    <path id="Path_1264" data-name="Path 1264" d="M40.773,26.276a20.1,20.1,0,0,1,.978,23.212c-4.613,7-13.357,10.808-22.222,9.687S5.751,53.427,3.133,45.633C.638,38.209-.792,27.916,5.244,19.756,4.085,27.637,10.429,37.167,15.449,39,9.946,23.008,11.166,7.886,24.5,2.631c-3.567,11.809-.909,19.135,4.611,22.009.435.227,1.344-13.573,7.847-10.815.019.007-2.35,8.26,3.81,12.451" transform="translate(0.069 0.184)" fill="#252f38" fill-rule="evenodd"/>
    <path id="Path_1265" data-name="Path 1265" d="M41.367,26.345,40.541,27a19.046,19.046,0,0,1,.924,21.979,20.477,20.477,0,0,1-7.793,6.9,22.987,22.987,0,0,1-10.475,2.5,23.53,23.53,0,0,1-2.942-.186h0a22.359,22.359,0,0,1-5.668-1.425,15.435,15.435,0,0,1-6.058-4.341,21.11,21.11,0,0,1-3.8-7.065A37.594,37.594,0,0,1,2.633,33.588a24.267,24.267,0,0,1,.911-6.758,19.969,19.969,0,0,1,3.143-6.379l-.847-.626L4.8,19.672a14.458,14.458,0,0,0-.15,2.1A19.029,19.029,0,0,0,5.667,27.7a25.207,25.207,0,0,0,4.259,7.776A18.98,18.98,0,0,0,12.715,38.3a10.662,10.662,0,0,0,2.967,1.755,1.053,1.053,0,0,0,1.358-1.332A50.38,50.38,0,0,1,14.02,22.646a23.161,23.161,0,0,1,2.716-11.607,16.117,16.117,0,0,1,3.54-4.281A18.23,18.23,0,0,1,25.486,3.68L25.1,2.7l-1.008-.3a35.123,35.123,0,0,0-1.668,10.076,17.29,17.29,0,0,0,1.818,8.192,11.715,11.715,0,0,0,4.982,4.979,1.075,1.075,0,0,0,.92.035,1.06,1.06,0,0,0,.268-.164,1.13,1.13,0,0,0,.235-.266l.092-.17.089-.239c.043-.14.076-.28.113-.444.067-.3.141-.683.229-1.125.155-.771.354-1.733.621-2.738a22.239,22.239,0,0,1,.72-2.259,12.324,12.324,0,0,1,.706-1.534,5.435,5.435,0,0,1,1.276-1.623,2.51,2.51,0,0,1,.683-.4,2.078,2.078,0,0,1,.744-.135,3.167,3.167,0,0,1,1.227.281l.065.025.346-.994-.714.774a1.053,1.053,0,0,0,.368.22l.346-.994-.714.774.714-.774-.976.4a1.045,1.045,0,0,0,.262.378l.714-.774-.976.4.976-.4-1.046.121a1.067,1.067,0,0,0,.071.275l.976-.4-1.046.121,1.044-.121H36.5l.006.121,1.044-.121h-.006l-1.037-.124-.007.124h1.044l-1.037-.124.993.119-.982-.189-.011.071.993.119-.982-.189.646.125-.641-.148-.005.022.646.125-.641-.148-.03.122c-.055.235-.162.717-.255,1.364a17.027,17.027,0,0,0-.171,2.386,13.313,13.313,0,0,0,.888,4.928,10.257,10.257,0,0,0,3.815,4.739l.593-.871L40.541,27l.826-.654.593-.871a8.282,8.282,0,0,1-1.9-1.765,8.584,8.584,0,0,1-1.5-3.071,11.973,11.973,0,0,1-.385-3.089,14.99,14.99,0,0,1,.2-2.422c.05-.3.1-.545.138-.712l.045-.195.015-.063.01-.041.009-.045.007-.051.007-.126,0-.083-.014-.1a1.006,1.006,0,0,0-.1-.3l-.187-.257a1.055,1.055,0,0,0-.4-.253l-.347,1,.411-.97a5.23,5.23,0,0,0-2.049-.447,4.219,4.219,0,0,0-2.23.635,5.771,5.771,0,0,0-1.455,1.312A11.618,11.618,0,0,0,30.549,17.5a30.832,30.832,0,0,0-1.324,4.757c-.138.667-.245,1.232-.325,1.6-.039.183-.075.322-.089.362l0,.009.286.1-.277-.124-.009.022.286.1-.277-.124.751.335-.633-.52a.815.815,0,0,0-.118.185l.751.335-.633-.52.765.628-.53-.836a.965.965,0,0,0-.235.208l.765.628-.53-.836.547.862-.313-.972-.233.109.547.862-.313-.972.317.98v-1.03a1.018,1.018,0,0,0-.317.05l.317.98v0l.475-.914a1.032,1.032,0,0,0-.475-.117v1.03l.475-.914a9.61,9.61,0,0,1-4.095-4.1,15.224,15.224,0,0,1-1.572-7.2A33.111,33.111,0,0,1,26.107,3,1.053,1.053,0,0,0,24.713,1.72a20.326,20.326,0,0,0-5.807,3.436,18.749,18.749,0,0,0-5.344,7.681,27.444,27.444,0,0,0-1.65,9.809,52.451,52.451,0,0,0,3.135,16.767l1-.343.362-.989a9.88,9.88,0,0,1-3.2-2.145,21.836,21.836,0,0,1-4.5-6.325,18.585,18.585,0,0,1-1.954-7.84,12.377,12.377,0,0,1,.127-1.792,1.053,1.053,0,0,0-1.889-.78A22.078,22.078,0,0,0,1.52,26.245a26.375,26.375,0,0,0-.994,7.343,39.689,39.689,0,0,0,2.2,12.45,25.766,25.766,0,0,0,2.525,5.468,17.766,17.766,0,0,0,5.932,5.915,22.242,22.242,0,0,0,8.8,2.868,25.729,25.729,0,0,0,3.207.2,25.1,25.1,0,0,0,11.437-2.737,22.6,22.6,0,0,0,8.59-7.616h0a21.154,21.154,0,0,0-1.033-24.445l-.233-.217Z" transform="translate(0.037 0.115)" fill="#252f38"/>
    <path id="Path_1266" data-name="Path 1266" d="M40.773,24.629a20.1,20.1,0,0,1,.978,23.212c-4.613,7-13.357,10.808-22.222,9.687S5.751,51.78,3.133,43.987C.638,36.562-.792,26.269,5.244,18.109,4.085,25.99,10.429,35.52,15.449,37.353,9.946,21.361,11.166,6.239,24.5.984c-3.567,11.809-.909,19.135,4.611,22.009.435.227,1.344-13.573,7.847-10.815.019.007-2.35,8.26,3.81,12.451" transform="translate(0.069 0.069)" fill="#fff" fill-rule="evenodd"/>
    <path id="Path_1267" data-name="Path 1267" d="M41.667,24.043l-.233-.216a8.262,8.262,0,0,1-1.9-1.767,8.579,8.579,0,0,1-1.5-3.07,11.938,11.938,0,0,1-.385-3.089,14.978,14.978,0,0,1,.2-2.422c.05-.3.1-.545.138-.712l.045-.195.015-.064.01-.041.009-.045.007-.05.007-.126,0-.085-.014-.1a.993.993,0,0,0-.1-.3l-.187-.258a1.1,1.1,0,0,0-.339-.221l0-.005c-.013-.006-.027-.007-.041-.013a.255.255,0,0,0-.024-.013l0,0a5.223,5.223,0,0,0-1.983-.427,4.23,4.23,0,0,0-2.23.636,5.731,5.731,0,0,0-1.455,1.312,11.628,11.628,0,0,0-1.685,3.082A30.9,30.9,0,0,0,28.7,20.613c-.061.3-.114.565-.164.812a9.687,9.687,0,0,1-2.961-3.4A15.229,15.229,0,0,1,24,10.824a33.1,33.1,0,0,1,1.578-9.466A1.053,1.053,0,0,0,24.187.073,20.348,20.348,0,0,0,18.38,3.507a18.749,18.749,0,0,0-5.344,7.681A27.454,27.454,0,0,0,11.387,21a49.855,49.855,0,0,0,2.3,14.146c-.335-.26-.671-.539-1.007-.858a21.816,21.816,0,0,1-4.5-6.324,18.593,18.593,0,0,1-1.954-7.841,12.362,12.362,0,0,1,.127-1.791,1.053,1.053,0,0,0-1.889-.78A22.067,22.067,0,0,0,.994,24.6,26.33,26.33,0,0,0,0,31.941,39.688,39.688,0,0,0,2.2,44.391a25.692,25.692,0,0,0,2.525,5.468,17.747,17.747,0,0,0,5.932,5.915,22.208,22.208,0,0,0,8.8,2.868,25.527,25.527,0,0,0,3.207.2,25.088,25.088,0,0,0,11.437-2.737,22.588,22.588,0,0,0,8.59-7.617,21.154,21.154,0,0,0-1.031-24.446M40.94,47.33a20.482,20.482,0,0,1-7.793,6.9,22.973,22.973,0,0,1-10.475,2.5,23.512,23.512,0,0,1-2.941-.185,22.424,22.424,0,0,1-5.669-1.425A15.45,15.45,0,0,1,8,50.785,21.1,21.1,0,0,1,4.2,43.72,37.6,37.6,0,0,1,2.107,31.941a24.217,24.217,0,0,1,.911-6.758,20.415,20.415,0,0,1,1.223-3.2,20.242,20.242,0,0,0,.9,4.069A25.189,25.189,0,0,0,9.4,33.83a18.929,18.929,0,0,0,2.789,2.826,10.666,10.666,0,0,0,2.967,1.756,1.054,1.054,0,0,0,1.358-1.332A50.385,50.385,0,0,1,13.494,21,23.161,23.161,0,0,1,16.209,9.391a16.155,16.155,0,0,1,3.54-4.282,17.439,17.439,0,0,1,3.222-2.152A32.849,32.849,0,0,0,21.9,10.824a17.294,17.294,0,0,0,1.818,8.193A11.721,11.721,0,0,0,28.7,24a1.08,1.08,0,0,0,1.188-.128,1.173,1.173,0,0,0,.235-.266l.092-.17.089-.24c.043-.139.076-.279.113-.443.067-.3.141-.683.229-1.125.155-.771.354-1.733.621-2.738a22.258,22.258,0,0,1,.72-2.26,12.4,12.4,0,0,1,.706-1.534,5.457,5.457,0,0,1,1.277-1.622,2.51,2.51,0,0,1,.683-.4,2.055,2.055,0,0,1,.744-.135,2.647,2.647,0,0,1,.41.047c-.029.163-.058.337-.086.533a17.056,17.056,0,0,0-.171,2.387,13.3,13.3,0,0,0,.888,4.928,10.167,10.167,0,0,0,3.651,4.617A19.039,19.039,0,0,1,40.94,47.33" transform="translate(0 0)" fill="#0072b2"/>
    <path id="Path_1268" data-name="Path 1268" d="M35.272,32.173l.417-.088-.417.086v0l.417-.088-.417.086a13.006,13.006,0,0,1,.19,2.367A14.674,14.674,0,0,1,33.977,41.1,12.543,12.543,0,0,1,31.4,44.559a15.339,15.339,0,0,1-4.515,2.921,1.054,1.054,0,1,0,.84,1.932,17.45,17.45,0,0,0,5.127-3.328,14.755,14.755,0,0,0,3.863-6.111,17.4,17.4,0,0,0,.853-5.437,14.8,14.8,0,0,0-.235-2.8,1.053,1.053,0,0,0-2.062.431" transform="translate(1.837 2.163)" fill="#84bd00"/>
  </g>
</svg>
