<svg xmlns="http://www.w3.org/2000/svg" xmlns:xlink="http://www.w3.org/1999/xlink" width="54.472rem" height="61.237rem" viewBox="0 0 54.472 61.237">
  <defs>
    <clipPath id="clip-path">
      <rect id="Rectangle_339" data-name="Rectangle 339" width="54.472rem" height="61.237rem" fill="none"/>
    </clipPath>
  </defs>
  <g id="Group_361" data-name="Group 361" clip-path="url(#clip-path)">
    <path id="Path_1251" data-name="Path 1251" d="M50.991,18.653a.753.753,0,0,0,1.067,0l2.078-2.078a.754.754,0,0,0,0-1.068L47.9,9.272a.756.756,0,0,0-1.069,0l-2.078,2.077a.758.758,0,0,0,0,1.068l1.535,1.535-1.454,1.454A25.855,25.855,0,0,0,30.843,9.337V6.555H34.2a.758.758,0,0,0,.756-.755V2.4a.758.758,0,0,0-.756-.755H21.8a.756.756,0,0,0-.755.755V5.8a.756.756,0,0,0,.755.755h3.358V9.329a25.838,25.838,0,0,0-14.008,6.06L9.715,13.952l1.535-1.535a.754.754,0,0,0,0-1.068L9.172,9.272a.756.756,0,0,0-1.069,0L1.869,15.508a.752.752,0,0,0,0,1.068l2.078,2.078a.753.753,0,0,0,1.067,0l1.535-1.535L8,18.574a25.956,25.956,0,1,0,39.975.019l1.474-1.476Z" transform="translate(0.115 0.115)" fill="#333f48"/>
    <rect id="Rectangle_333" data-name="Rectangle 333" width="12.398" height="3.398" transform="translate(20.156 0.754)" fill="#fff"/>
    <rect id="Rectangle_334" data-name="Rectangle 334" width="4.171" height="4.142" transform="translate(24.269 4.172)" fill="#fff"/>
    <rect id="Rectangle_335" data-name="Rectangle 335" width="2.938" height="8.82" transform="matrix(0.707, -0.707, 0.707, 0.707, 43.641, 10.236)" fill="#fff"/>
    <rect id="Rectangle_336" data-name="Rectangle 336" width="3.582" height="2.967" transform="translate(43.166 14.85) rotate(-45)" fill="#fff"/>
    <rect id="Rectangle_337" data-name="Rectangle 337" width="8.82" height="2.938" transform="matrix(0.707, -0.707, 0.707, 0.707, 0.755, 14.395)" fill="#fff"/>
    <rect id="Rectangle_338" data-name="Rectangle 338" width="2.967" height="3.582" transform="translate(4.914 14.415) rotate(-45)" fill="#fff"/>
    <path id="Path_1252" data-name="Path 1252" d="M26.232,7.977A24.966,24.966,0,1,0,51.2,32.943,24.966,24.966,0,0,0,26.232,7.977" transform="translate(0.089 0.558)" fill="#fff" fill-rule="evenodd"/>
    <path id="Path_1253" data-name="Path 1253" d="M49.344,17.006a.754.754,0,0,0,1.068,0l2.078-2.077a.757.757,0,0,0,0-1.068L46.252,7.625a.754.754,0,0,0-1.068,0L43.107,9.7a.756.756,0,0,0,0,1.068l1.535,1.535L43.188,13.76A25.851,25.851,0,0,0,29.2,7.691V4.908h3.359a.756.756,0,0,0,.755-.755V.755A.756.756,0,0,0,32.554,0h-12.4A.756.756,0,0,0,19.4.755v3.4a.756.756,0,0,0,.755.755h3.358V7.683A25.843,25.843,0,0,0,9.491,13.728L8.068,12.306,9.6,10.771A.754.754,0,0,0,9.6,9.7L7.525,7.625a.754.754,0,0,0-1.068,0L.221,13.862a.754.754,0,0,0,0,1.068L2.3,17.006a.754.754,0,0,0,1.068,0L4.9,15.472,6.34,16.91a25.972,25.972,0,1,0,39.993.036l1.476-1.474ZM20.911,1.51H31.8V3.4H20.911ZM2.833,15.4,1.823,14.4,6.991,9.227,8,10.237ZM25.025,7.558V4.927h2.661V7.558h-.194c-.388-.017-.779-.03-1.172-.03s-.782.013-1.172.03ZM5.981,14.415l1.03-1.029,1.357,1.357q-.526.5-1.025,1.036ZM43.263,50.444A23.96,23.96,0,1,1,50.28,33.5a23.882,23.882,0,0,1-7.017,16.941m2.068-34.63c-.331-.356-.673-.7-1.023-1.038l1.39-1.39,1.03,1.029Zm.387-6.587L50.888,14.4,49.877,15.4l-5.169-5.168Z" transform="translate(0 0)" fill="#0072b2"/>
    <path id="Path_1254" data-name="Path 1254" d="M25.924,12.378A20.258,20.258,0,1,0,46.181,32.635,20.258,20.258,0,0,0,25.924,12.378M39.782,45.6l-2.315-2.315a.629.629,0,0,0-.89.89l2.315,2.315A18.9,18.9,0,0,1,26.553,51.6V48.33a.63.63,0,0,0-1.259,0V51.6a18.9,18.9,0,0,1-12.338-5.109l2.315-2.317a.629.629,0,0,0-.89-.889L12.066,45.6A18.9,18.9,0,0,1,6.956,33.264h3.273a.629.629,0,1,0,0-1.258H6.956a18.9,18.9,0,0,1,5.109-12.339l2.315,2.317a.629.629,0,0,0,.89-.89l-2.315-2.315a18.894,18.894,0,0,1,12.338-5.109v3.273a.63.63,0,0,0,1.259,0V13.668a18.894,18.894,0,0,1,12.338,5.109l-2.315,2.315a.629.629,0,0,0,.89.89l2.315-2.317a18.9,18.9,0,0,1,5.109,12.339H41.618a.629.629,0,0,0,0,1.258h3.273A18.894,18.894,0,0,1,39.782,45.6" transform="translate(0.397 0.866)" fill="#84bd00"/>
    <path id="Path_1255" data-name="Path 1255" d="M27.321,33.866a2.959,2.959,0,0,0-1.78-4.632V22.417a.629.629,0,0,0-1.258,0v6.817a2.969,2.969,0,1,0,2.1,5.472l4.924,4.924a.629.629,0,0,0,.89-.89ZM23.2,32.137a1.711,1.711,0,0,1,1.509-1.694.529.529,0,0,0,.412,0A1.71,1.71,0,1,1,23.2,32.137" transform="translate(1.535 1.524)" fill="#84bd00"/>
  </g>
</svg>
